<?xml version="1.0" standalone="no"?>
<!DOCTYPE svg PUBLIC "-//W3C//DTD SVG 1.1//EN" "http://www.w3.org/Graphics/SVG/1.1/DTD/svg11.dtd" >
<svg xmlns="http://www.w3.org/2000/svg" xmlns:xlink="http://www.w3.org/1999/xlink" version="1.1">
<metadata>
Created by FontForge 20161013 at Mon Dec 25 19:02:24 2006
 By ,,,
Copyright (c) 2006 M. Hacen, All Rights Reserved / www.hacen.net
</metadata>
<defs>
<font id="HacenVanillaUltraLight" horiz-adv-x="891" >
  <font-face 
    font-family="Hacen Vanilla Ultra Light"
    font-weight="400"
    font-stretch="normal"
    units-per-em="2048"
    panose-1="2 0 0 0 0 0 0 0 0 0"
    ascent="1638"
    descent="-410"
    x-height="1097"
    cap-height="1450"
    bbox="-246 -706 2701 2225.06"
    underline-thickness="100"
    underline-position="-900"
    unicode-range="U+0020-FEFF"
  />
<missing-glyph horiz-adv-x="582" 
d="M5 1257h485v-1107h-485v1107zM76 1186v-966h343v966h-343z" />
    <glyph glyph-name=".notdef" unicode="&#x640;&#x651;&#x650;" horiz-adv-x="582" 
d="M5 1257h485v-1107h-485v1107zM76 1186v-966h343v966h-343z" />
    <glyph glyph-name="shaddawithfathatanisolated" unicode="&#x651;&#x64b;" horiz-adv-x="425" 
d="M398 1823q5 -8 5.5 -12.5t-0.5 -8.5t-1.5 -8.5t3.5 -13.5q12 -32 14.5 -66t-5 -63.5t-25.5 -50.5t-47 -26q-25 -4 -39 3t-31 18q-4 -11 -10.5 -25.5t-18 -28.5t-27 -25.5t-37.5 -16.5q-34 -9 -56 -3.5t-35 20t-17.5 35t-4.5 40.5q0 21 4.5 39.5t9.5 29.5q0 -3 4.5 1.5
t9.5 10.5t10 10.5t5 1.5q-5 -21 -7 -40t2 -32.5t17 -19t38 -0.5q28 5 41 23t17.5 40.5t5.5 46t6 39.5q1 -3 4.5 1t7.5 9t8 9.5t6 1.5q-3 -30 6.5 -54t26 -36.5t38 -11.5t42.5 21q4 10 2 23t-8.5 25.5t-15.5 24.5t-18 21q5 10 14.5 15.5t20 10t20 9.5t15.5 13zM390 2031
l-340 -193l17 91l340 193zM401 1903l-340 -193l17 91l340 193z" />
    <glyph glyph-name="shaddawithdammatanisolated" unicode="&#x651;&#x64c;" horiz-adv-x="484" arabic-form="isolated" 
d="M425 1928q-7 -12 -21 -28.5t-33 -34t-42 -33t-48 -26t-50 -13t-48 6.5q-23 10 -25 27t3 36t11 36t-2 26.5t-36.5 9t-90.5 -17.5q20 23 46.5 37.5t53 18.5t49.5 -1.5t35.5 -20.5t10.5 -40.5t-24 -61.5q48 17 89.5 38t75.5 53q-43 9 -63 27t-23.5 40t8 45t31.5 41.5t46 30
t52 10.5q22 -2 29.5 -21t7 -43t-6 -46.5t-9.5 -31.5l40 -10l-18 -65zM396 1846q13 -15 22.5 -33t17.5 -36q11 -32 13 -66t-6 -63.5t-26.5 -50t-47.5 -24.5q-25 -4 -38.5 3t-30.5 19q-4 -11 -11 -25t-18.5 -28t-27.5 -25.5t-38 -16.5q-34 -8 -56.5 1.5t-36 29.5t-19 46.5
t-6 53t3.5 49t9 33.5q1 -2 5.5 3t10 10.5t10 9.5t4.5 1q-5 -21 -6.5 -47.5t4 -49.5t19.5 -37.5t40 -9.5q28 5 41 23t18 40.5t6.5 45.5t6.5 39q1 -3 4.5 1t8 9t8 9.5t5.5 1.5q-3 -30 6 -54t25.5 -37t38 -12.5t43.5 20.5q4 10 2 23t-8.5 26t-15 25t-17.5 21q11 20 19.5 37.5
t17.5 34.5zM403 2065q-5 5 -12 6.5t-12 1.5q-14 1 -23.5 -7t-9.5 -18q-2 -10 3.5 -16.5t14.5 -11.5t21.5 -9.5t25.5 -9.5q2 17 2 30q0 11 -2 21.5t-8 14.5v-2z" />
    <glyph glyph-name="shaddawithkasratanisolated" unicode="&#x651;&#x64d;" horiz-adv-x="425" arabic-form="isolated" 
d="M370 2050q12 -15 21.5 -33.5t16.5 -36.5q10 -32 11 -66t-7.5 -63t-27.5 -49t-48 -24q-25 -3 -38.5 4t-30.5 20q-4 -11 -11.5 -25t-19 -27.5t-28 -24.5t-38.5 -16q-34 -7 -56.5 3t-35 31t-17.5 48t-4.5 53.5t4.5 49t10 32.5q0 -3 4.5 1.5l10.5 10.5t10.5 10t4.5 1
q-6 -21 -8 -48t3 -50t18.5 -37.5t39.5 -10.5q29 4 42.5 21t19 39.5t7 46t7.5 39.5q1 -3 5 0.5t8.5 9t8 9.5t5.5 1q-4 -29 4 -53.5t24 -38t37 -13.5q22 0 45 20q5 10 3 22.5t-8 25.5t-14.5 25.5t-16.5 21.5q11 20 20 37t19 34zM381 1579l-350 -141l33 75l350 141zM391 1684
l-350 -141l33 75l350 141z" />
    <glyph glyph-name="shaddawithfathaisolated" unicode="&#x651;&#x64e;" horiz-adv-x="425" arabic-form="isolated" 
d="M398 1823q5 -8 5.5 -12.5t-0.5 -8.5t-1.5 -8.5t3.5 -13.5q12 -32 14.5 -66t-5 -63.5t-25.5 -50.5t-47 -26q-25 -4 -39 3t-31 18q-4 -11 -10.5 -25.5t-18 -28.5t-27 -25.5t-37.5 -16.5q-34 -9 -56 -3.5t-35 20t-17.5 35t-4.5 40.5q0 21 4.5 39.5t9.5 29.5q0 -3 4.5 1.5
t9.5 10.5t10 10.5t5 1.5q-5 -21 -7 -40t2 -32.5t17 -19t38 -0.5q28 5 41 23t17.5 40.5t5.5 46t6 39.5q1 -3 4.5 1t7.5 9t8 9.5t6 1.5q-3 -30 6.5 -54t26 -36.5t38 -11.5t42.5 21q4 10 2 23t-8.5 25.5t-15.5 24.5t-18 21q5 10 14.5 15.5t20 10t20 9.5t15.5 13zM401 1903
l-340 -193l17 91l340 193z" />
    <glyph glyph-name="shaddawithdammaisolated" unicode="&#x651;&#x64f;" horiz-adv-x="437" arabic-form="isolated" 
d="M372 1846q13 -15 22.5 -33t17.5 -36q11 -32 13 -66t-6 -63.5t-26.5 -50t-47.5 -24.5q-25 -4 -38.5 3t-30.5 19q-4 -11 -11 -25t-18.5 -28t-27.5 -25.5t-38 -16.5q-34 -8 -56.5 1.5t-36 29.5t-19 47.5t-6 54t3.5 48.5t9 33q0 -3 5 1.5t10.5 10.5t10 10t4.5 1
q-5 -21 -6.5 -47.5t4 -49.5t19.5 -37.5t40 -9.5q28 5 41 23t18 40.5t6.5 45.5t6.5 39q1 -3 4.5 1t8 9t8 9.5t5.5 1.5q-3 -30 6 -54t25.5 -37t38 -12.5t43.5 20.5q4 10 2 23t-8.5 26t-15 25t-17.5 21q11 20 19.5 37.5t17.5 34.5zM347 1915q-11 -18 -37 -41t-61.5 -43.5
t-76.5 -34t-83 -11.5q-57 4 -75 4q-17 0 -12 2q60 20 103 34t77 28t61.5 31t54.5 43q-46 8 -67.5 26.5t-25 40.5t8.5 45t33 42t48.5 30.5t55.5 10.5q23 -1 31 -20t7.5 -43.5t-6.5 -47.5t-10 -33l43 -10l-19 -63zM322 2054q-5 5 -11.5 6.5t-11.5 1.5q-17 1 -26.5 -7
t-10.5 -19q-2 -20 19 -29.5t50 -17.5q2 16 2 30q0 11 -2 22t-9 14v-1z" />
    <glyph glyph-name="shaddawithkasraisolated" unicode="&#x651;&#x650;" horiz-adv-x="425" arabic-form="isolated" 
d="M385 1972q12 -15 21.5 -33.5t16.5 -36.5q10 -32 11 -66t-7.5 -63t-27.5 -49t-48 -24q-25 -3 -38.5 4t-30.5 20q-4 -11 -11.5 -25t-19 -27.5t-28 -24.5t-38.5 -16q-34 -7 -56.5 3t-35 31t-17.5 48t-4.5 53.5t4.5 48.5t10 33q0 -3 4.5 1.5l10.5 10.5t10.5 10t4.5 1
q-6 -21 -8 -48t3 -50t18.5 -37.5t39.5 -10.5q29 4 42.5 21t19 39.5t7 46t7.5 39.5q1 -3 5 0.5t8.5 9t8 9.5t5.5 1q-4 -29 4 -53.5t24 -38t37 -13.5q22 0 45 20q5 10 3 22.5t-8 25.5t-14.5 25.5t-16.5 21.5q11 20 20 37t19 34zM422 1590l-340 -193l17 91l340 193z" />
    <glyph glyph-name="shaddawithfathamedial" unicode="&#x640;&#x651;&#x64e;" horiz-adv-x="375" arabic-form="medial" 
d="M298 1190q5 -8 5.5 -12.5t-0.5 -8.5t-1.5 -8.5t3.5 -13.5q12 -32 14.5 -66t-5 -63.5t-25.5 -50.5t-47 -26q-25 -4 -39 3t-31 18q-4 -11 -10.5 -25.5t-18 -28.5t-27 -25.5t-37.5 -16.5q-34 -9 -56 -3.5t-35 20t-17.5 35t-4.5 40.5q0 21 4.5 39.5t9.5 29.5q0 -3 4.5 1.5
t9.5 10.5t10 10.5t5 1.5q-5 -21 -7 -40t2 -32.5t17 -19t38 -0.5q28 5 41 23t17.5 40.5t5.5 46t6 39.5q1 -3 4.5 1t7.5 9t8 9.5t6 1.5q-3 -30 6.5 -54t26 -36.5t38 -11.5t42.5 21q4 10 2 23t-8.5 25.5t-15.5 24.5t-18 21q5 10 14.5 15.5t20 10t20 9.5t15.5 13zM301 1270
l-340 -193l17 91l340 193z" />
    <glyph glyph-name="shaddawithdammamedial" unicode="&#x640;&#x651;&#x64f;" horiz-adv-x="480" arabic-form="medial" 
d="M365 1238q13 -15 22.5 -33t17.5 -36q11 -32 13 -66t-6 -63.5t-26.5 -50t-47.5 -24.5q-25 -4 -38.5 3t-30.5 19q-4 -11 -11 -25t-18.5 -28t-27.5 -25.5t-38 -16.5q-34 -8 -56.5 1.5t-36 29.5t-19 47.5t-6 54t3.5 48.5t9 33q0 -3 5 1.5t10.5 10.5t10 10t4.5 1
q-5 -21 -6.5 -47.5t4 -49.5t19.5 -37.5t40 -9.5q28 5 41 23t18 40.5t6.5 45.5t6.5 39q1 -3 4.5 1t8 9t8 9.5t5.5 1.5q-3 -30 6 -54t25.5 -37t38 -12.5t43.5 20.5q4 10 2 23t-8.5 26t-15 25t-17.5 21q11 20 19.5 37.5t17.5 34.5zM340 1307q-11 -18 -37 -41t-61.5 -43.5
t-76.5 -34t-83 -11.5q-57 4 -75 4q-17 0 -12 2q60 20 103 34t77 28t61.5 31t54.5 43q-46 8 -67.5 26.5t-25 40.5t8.5 45t33 42t48.5 30.5t55.5 10.5q23 -1 31 -20t7.5 -43.5t-6.5 -47.5t-10 -33l43 -10l-19 -63zM315 1446q-5 5 -11.5 6.5t-11.5 1.5q-17 1 -26.5 -7
t-10.5 -19q-2 -20 19 -29.5t50 -17.5q2 16 2 30q0 11 -2 22t-9 14v-1z" />
    <glyph glyph-name="allahisolated" unicode="&#xfedf;&#xfee0;&#xfeea;" horiz-adv-x="2023" arabic-form="isolated" 
d="M864 343q-27 -94 -76.5 -134t-113.5 -37q-55 3 -116.5 39t-123.5 95.5t-121.5 137t-110.5 162.5t-90 174t-59 170t-19 149t31 112q26 39 72 57.5t115.5 9.5t163.5 -47.5t217 -113.5l-38 143l97 25q40 -152 67.5 -257t45 -173.5t27.5 -106t15 -56t6 -22.5t1 -6
q10 -39 22 -82.5t29 -86t38.5 -81.5t51.5 -69t68 -47.5t87 -17.5q38 2 69.5 26.5t61.5 63.5q35 46 46 123.5t4 175.5t-29.5 211.5t-53 230t-67 231.5t-71.5 217l115 31q61 -193 101 -338.5t64 -254.5t35.5 -186t16.5 -133t7.5 -95t8 -72.5t17 -66t35.5 -74.5q48 -84 140 -90
q75 0 121.5 32t70.5 86t28.5 124.5t-2.5 147.5q-6 57 -30.5 145.5t-59 190t-74 206.5t-75 195.5t-62 157t-35.5 90.5l94 34q7 -19 24.5 -62t41.5 -103.5t52.5 -134t57.5 -152t57 -158.5t50.5 -154t38 -137t19.5 -108q10 -98 2.5 -187t-41.5 -158t-98 -110.5t-167 -44.5
q-82 2 -140 37t-99 100q-8 13 -15 27t-14 30q-7 -16 -14 -30t-15 -27q-37 -59 -86 -93.5t-107 -43.5q-65 0 -114 12.5t-85.5 34t-62.5 51.5t-47 65zM668 976q-122 81 -212 128.5t-153 67t-101 14t-54 -29.5q-21 -31 -18.5 -85t23 -120.5t55.5 -142t80 -150.5q45 -76 96 -145
t103 -122t101.5 -85t90.5 -34q22 -1 40.5 12t33 43t24 77.5t13.5 115.5q-9 31 -17 61t-16 58l-88 338z" />
    <glyph glyph-name="fathamedial" unicode="&#x640;&#x64e;" horiz-adv-x="448" arabic-form="medial" 
d="M396 1157q-97 -52 -191.5 -102.5t-191.5 -102.5q5 24 8 39.5t7 37.5q99 52 191.5 101.5t191.5 102.5z" />
    <glyph glyph-name="dammamedial" unicode="&#x640;&#x64f;" horiz-adv-x="490" arabic-form="medial" 
d="M360 1221q-11 -23 -37.5 -52.5t-62.5 -55t-78.5 -42.5t-85.5 -15q-29 2 -47.5 3t-28.5 2t-12.5 1.5t-0.5 1.5q61 25 105.5 43t79 36t62.5 39.5t56 54.5q-47 11 -69 34t-25.5 51t9 57.5t34 53.5t49.5 39t56 13q16 -1 25 -12.5t12.5 -29t2.5 -39t-3.5 -41.5t-6.5 -36.5
t-7 -24.5l44 -13l-19 -80zM335 1398q-5 6 -12 8t-12 2q-17 2 -27 -8.5t-11 -24.5q-2 -25 20 -37t51 -23q2 20 2 38q0 15 -2 28.5t-9 18.5v-2z" />
    <glyph glyph-name="kasramedial" unicode="&#x640;&#x650;" horiz-adv-x="669" arabic-form="medial" 
d="M392 506q-97 -52 -191.5 -102.5t-191.5 -102.5q5 23 8 39t7 38q99 52 191.5 101.5t191.5 102.5z" />
    <glyph glyph-name="shaddamedial" unicode="&#x640;&#x651;" horiz-adv-x="448" arabic-form="medial" 
d="M386 1293q11 -17 17.5 -36t11.5 -38q6 -33 3 -67t-15 -62t-33 -45.5t-51 -17.5q-25 0 -37.5 9t-27.5 23q-6 -10 -15 -23t-22 -25t-31 -21t-40 -11q-35 -3 -56 10t-31 35t-11.5 49.5t2 53.5t10.5 47.5t14 31.5q0 -3 5 1t11.5 9t11.5 8.5t5 0.5q-8 -20 -13.5 -46.5t-3 -50
t14 -39.5t37.5 -15q28 0 43.5 15.5t24 37t13 44.5t12.5 38q1 -3 5.5 0.5t9 8t9 8t5.5 0.5q-8 -29 -2.5 -54t19.5 -40t35.5 -18t46.5 14q6 9 5.5 22t-4.5 26.5t-11 27t-14 23.5q13 18 24.5 34t22.5 32z" />
    <glyph glyph-name="lamwithalefmaddaaboveisolatedd" unicode="&#xfedf;&#xfe82;" horiz-adv-x="1157" arabic-form="isolated" 
d="M1079 1161q0 -40 2.5 -92t-10.5 -117q-12 -60 -44.5 -121.5t-99.5 -121.5q57 -104 91 -195.5t36 -166.5q1 -54 -21 -98t-61 -77t-92 -56.5t-113 -37.5q-66 -16 -137.5 -20.5t-137.5 2.5q-69 6 -127 24t-96 47q-40 31 -54 71t7 91q19 46 56 86.5t86 78t106.5 73
t118.5 71.5q54 32 107.5 64.5t101.5 67.5q-58 96 -130 198.5t-149 204.5t-155.5 200.5t-148.5 185.5q-50 60 -93 114t-78 100l77 64q35 -46 78.5 -100.5t93.5 -114.5q70 -87 147 -184t154 -198t149 -204t132 -202q45 44 67 87.5t31 85.5q11 51 8.5 101.5t-2.5 88.5v640h100
v-640zM848 647q-49 -35 -101.5 -67t-106.5 -64q-55 -33 -107.5 -65t-96 -64t-75.5 -65.5t-46 -67.5q-6 -13 -1.5 -24t16.5 -20q26 -20 70.5 -33t100.5 -18q58 -5 121 -1.5t123 17.5q43 10 81.5 26t67 37t44.5 47.5t16 59.5q-2 60 -30 137t-76 165zM-5 1865q-1 62 63 117.5
t240 5t270 35.5q-46 -183 -258.5 -121t-314.5 -37z" />
    <glyph glyph-name="lamwithalefmaddaabovefinal" unicode="&#xfee0;&#xfe82;" horiz-adv-x="1215" arabic-form="final" 
d="M939 408q-5 -12 -10.5 -23.5t-11.5 -22.5q-35 -64 -80 -108t-99 -72t-112 -40t-120 -10q-93 2 -186 30t-178 74l48 88q75 -41 156.5 -65.5t161.5 -26.5q50 -1 96 8t88 31q38 20 71 51t59 76l-783 1253l85 53l745 -1193q14 47 21.5 102t9.5 120l2 1068h100v-1149
q0 -93 17.5 -163.5t47.5 -118.5q26 -43 60.5 -65.5t73.5 -24.5h19v-100h-22q-66 2 -121 37t-95 100q-25 39 -43 91zM-10 1760q-1 62 63 117.5t240 5t270 35.5q-46 -183 -258.5 -121t-314.5 -37z" />
    <glyph glyph-name="lamwithalefhamzaaboveisolatedd" unicode="&#xfedf;&#xfe84;" horiz-adv-x="1157" arabic-form="isolated" 
d="M1079 1161q0 -40 2.5 -92t-10.5 -117q-12 -60 -44.5 -121.5t-99.5 -121.5q57 -104 91 -195.5t36 -166.5q1 -54 -21 -98t-61 -77t-92 -56.5t-113 -37.5q-66 -16 -137.5 -20.5t-137.5 2.5q-69 6 -127 24t-96 47q-40 31 -54 71t7 91q19 46 56 86.5t86 78t106.5 73
t118.5 71.5q54 32 107.5 64.5t101.5 67.5q-58 96 -130 198.5t-149 204.5t-155.5 200.5t-148.5 185.5q-50 60 -93 114t-78 100l77 64q35 -46 78.5 -100.5t93.5 -114.5q70 -87 147 -184t154 -198t149 -204t132 -202q45 44 67 87.5t31 85.5q11 51 8.5 101.5t-2.5 88.5v640h100
v-640zM848 647q-49 -35 -101.5 -67t-106.5 -64q-55 -33 -107.5 -65t-96 -64t-75.5 -65.5t-46 -67.5q-6 -13 -1.5 -24t16.5 -20q26 -20 70.5 -33t100.5 -18q58 -5 121 -1.5t123 17.5q43 10 81.5 26t67 37t44.5 47.5t16 59.5q-2 60 -30 137t-76 165zM106 2087q-42 23 -72 25
t-48 -9q-14 -8 -17.5 -23t1.5 -29q7 -22 30.5 -42.5t65.5 -33.5l101 59l31 -53l-240 -139l-31 53l71 42q-35 19 -56.5 44t-30.5 51q-11 37 0.5 70.5t43.5 54.5q29 17 75 16t104 -31z" />
    <glyph glyph-name="lamwithalefhamzaabovefinal" unicode="&#xfee0;&#xfe84;" horiz-adv-x="1215" arabic-form="final" 
d="M939 408q-5 -12 -10.5 -23.5t-11.5 -22.5q-35 -64 -80 -108t-99 -72t-112 -40t-120 -10q-93 2 -186 30t-178 74l48 88q75 -41 156.5 -65.5t161.5 -26.5q50 -1 96 8t88 31q38 20 71 51t59 76l-783 1253l85 53l745 -1193q14 47 21.5 102t9.5 120l2 1068h100v-1149
q0 -93 17.5 -163.5t47.5 -118.5q26 -43 60.5 -65.5t73.5 -24.5h19v-100h-22q-66 2 -121 37t-95 100q-25 39 -43 91zM127 1987q-42 23 -72 25t-48 -9q-14 -8 -17.5 -23t1.5 -29q7 -22 30.5 -42.5t65.5 -33.5l101 59l31 -53l-240 -139l-31 53l71 42q-35 19 -56.5 44t-30.5 51
q-11 37 0.5 70.5t43.5 54.5q29 17 75 16t104 -31z" />
    <glyph glyph-name="lamwithalefhamzabelowisolated" unicode="&#xfedf;&#xfe88;" horiz-adv-x="1157" arabic-form="isolated" 
d="M1079 1161q0 -40 2.5 -92t-10.5 -117q-12 -60 -44.5 -121.5t-99.5 -121.5q57 -104 91 -195.5t36 -166.5q1 -54 -21 -98t-61 -77t-92 -56.5t-113 -37.5q-66 -16 -137.5 -20.5t-137.5 2.5q-69 6 -127 24t-96 47q-40 31 -54 71t7 91q19 46 56 86.5t86 78t106.5 73
t118.5 71.5q54 32 107.5 64.5t101.5 67.5q-58 96 -130 198.5t-149 204.5t-155.5 200.5t-148.5 185.5q-50 60 -93 114t-78 100l77 64q35 -46 78.5 -100.5t93.5 -114.5q70 -87 147 -184t154 -198t149 -204t132 -202q45 44 67 87.5t31 85.5q11 51 8.5 101.5t-2.5 88.5v640h100
v-640zM848 647q-49 -35 -101.5 -67t-106.5 -64q-55 -33 -107.5 -65t-96 -64t-75.5 -65.5t-46 -67.5q-6 -13 -1.5 -24t16.5 -20q26 -20 70.5 -33t100.5 -18q58 -5 121 -1.5t123 17.5q43 10 81.5 26t67 37t44.5 47.5t16 59.5q-2 60 -30 137t-76 165zM367 -139q-42 23 -72 25
t-48 -9q-14 -8 -17.5 -23t1.5 -29q7 -22 30.5 -42.5t65.5 -33.5l101 59l31 -53l-240 -139l-31 53l71 42q-35 19 -56.5 44t-30.5 51q-11 37 0.5 70.5t43.5 54.5q29 17 75 16t104 -31z" />
    <glyph glyph-name="lamwithalefhamzabelowfinal" unicode="&#xfee0;&#xfe88;" horiz-adv-x="1215" arabic-form="final" 
d="M939 408q-5 -12 -10.5 -23.5t-11.5 -22.5q-35 -64 -80 -108t-99 -72t-112 -40t-120 -10q-93 2 -186 30t-178 74l48 88q75 -41 156.5 -65.5t161.5 -26.5q50 -1 96 8t88 31q38 20 71 51t59 76l-783 1253l85 53l745 -1193q14 47 21.5 102t9.5 120l2 1068h100v-1149
q0 -93 17.5 -163.5t47.5 -118.5q26 -43 60.5 -65.5t73.5 -24.5h19v-100h-22q-66 2 -121 37t-95 100q-25 39 -43 91zM349 -94q-42 23 -72 25t-48 -9q-14 -8 -17.5 -23t1.5 -29q7 -22 30.5 -42.5t65.5 -33.5l101 59l31 -53l-240 -139l-31 53l71 42q-35 19 -56.5 44t-30.5 51
q-11 37 0.5 70.5t43.5 54.5q29 17 75 16t104 -31z" />
    <glyph glyph-name="lamwithalefisolated" unicode="&#xfedf;&#xfe8e;" horiz-adv-x="1157" arabic-form="isolated" 
d="M1079 1161q0 -40 2.5 -92t-10.5 -117q-12 -60 -44.5 -121.5t-99.5 -121.5q57 -104 91 -195.5t36 -166.5q1 -54 -21 -98t-61 -77t-92 -56.5t-113 -37.5q-66 -16 -137.5 -20.5t-137.5 2.5q-69 6 -127 24t-96 47q-40 31 -54 71t7 91q19 46 56 86.5t86 78t106.5 73
t118.5 71.5q54 32 107.5 64.5t101.5 67.5q-58 96 -130 198.5t-149 204.5t-155.5 200.5t-148.5 185.5q-50 60 -93 114t-78 100l77 64q35 -46 78.5 -100.5t93.5 -114.5q70 -87 147 -184t154 -198t149 -204t132 -202q45 44 67 87.5t31 85.5q11 51 8.5 101.5t-2.5 88.5v640h100
v-640zM848 647q-49 -35 -101.5 -67t-106.5 -64q-55 -33 -107.5 -65t-96 -64t-75.5 -65.5t-46 -67.5q-6 -13 -1.5 -24t16.5 -20q26 -20 70.5 -33t100.5 -18q58 -5 121 -1.5t123 17.5q43 10 81.5 26t67 37t44.5 47.5t16 59.5q-2 60 -30 137t-76 165z" />
    <glyph glyph-name="lamwithaleffinal" unicode="&#xfee0;&#xfe8e;" horiz-adv-x="1215" arabic-form="final" 
d="M939 408q-5 -12 -10.5 -23.5t-11.5 -22.5q-35 -64 -80 -108t-99 -72t-112 -40t-120 -10q-93 2 -186 30t-178 74l48 88q75 -41 156.5 -65.5t161.5 -26.5q50 -1 96 8t88 31q38 20 71 51t59 76l-783 1253l85 53l745 -1193q14 47 21.5 102t9.5 120l2 1068h100v-1149
q0 -93 17.5 -163.5t47.5 -118.5q26 -43 60.5 -65.5t73.5 -24.5h19v-100h-22q-66 2 -121 37t-95 100q-25 39 -43 91z" />
    <glyph glyph-name="bullet_ara" unicode="&#xfcf4;" horiz-adv-x="532" arabic-form="medial" 
d="M424 1178q-11 -23 -37.5 -52.5t-62.5 -55t-78.5 -42.5t-85.5 -15q-29 2 -47.5 3t-28.5 2t-12.5 1.5t-0.5 1.5q61 25 105.5 43t79 36t62.5 39.5t56 54.5q-47 11 -69 34t-25.5 51t9 57.5t34 53.5t49.5 38.5t56 13.5q16 -1 25 -12.5t12.5 -29t2.5 -39t-3.5 -41.5t-6.5 -36.5
t-7 -24.5l44 -13l-19 -80zM399 1355q-5 6 -12 8t-12 2q-17 2 -27 -8.5t-11 -24.5q-2 -25 20 -37t51 -23q2 20 2 38q0 15 -2 28.5t-9 18.5v-2z" />
    <glyph glyph-name="fathatanisolated" unicode="&#xfe70;" horiz-adv-x="408" arabic-form="isolated" 
d="M389 1675l-340 -193l17 91l340 193zM403 1842l-340 -193l17 91l340 193z" />
    <glyph glyph-name="fathatanabove" unicode="&#xfe71;" horiz-adv-x="669" arabic-form="medial" 
d="M383 1154q-97 -52 -191 -102.5t-191 -102.5q5 23 8 39t7 38q99 52 191.5 101.5t191.5 102.5zM416 1345q-97 -52 -191.5 -102.5t-191.5 -102.5q5 23 8.5 38.5t7.5 38.5q99 52 191 101.5t191 102.5z" />
    <glyph glyph-name="dammatanisolated" unicode="&#xfe72;" horiz-adv-x="469" arabic-form="isolated" 
d="M409 1632q-6 -14 -19.5 -33.5t-32 -40t-40.5 -39.5t-45.5 -31t-47.5 -15t-46 8t-24 31.5t3 42t10.5 42t-2 32t-34.5 10.5t-86 -20q19 27 44.5 43.5t50.5 22t47 -1t34 -24.5t10.5 -48t-23.5 -72q46 20 85.5 44t71.5 62q-41 10 -60.5 31.5t-22 47.5t8 53t30 49.5t44 36
t49.5 12.5q21 -2 28 -24.5t6.5 -51t-6 -55.5t-8.5 -37l38 -12l-17 -76zM388 1793q-10 10 -23 10q-14 1 -22.5 -8.5t-8.5 -21.5q-2 -11 3 -19t14 -14t20.5 -11.5t24.5 -11.5q2 19 2 35q0 14 -2.5 26.5t-7.5 16.5v-2z" />
    <glyph glyph-name="kasratanisolated" unicode="&#xfe74;" horiz-adv-x="408" arabic-form="isolated" 
d="M384 -83q-97 -52 -191.5 -102.5t-191.5 -102.5q5 23 8 38.5t7 38.5q99 52 191.5 101.5t191.5 102.5zM416 107q-97 -52 -191.5 -102.5t-191.5 -102.5q5 24 8.5 39.5t7.5 38.5q99 52 191 101t191 102z" />
    <glyph glyph-name="fathaisolated" unicode="&#xfe76;" horiz-adv-x="408" arabic-form="isolated" 
d="M396 1583q-97 -52 -191.5 -102.5t-191.5 -102.5q5 24 8 39.5t7 37.5q99 52 191.5 101.5t191.5 102.5z" />
    <glyph glyph-name="dammaisolated" unicode="&#xfe78;" horiz-adv-x="414" arabic-form="isolated" 
d="M366 1664q-11 -23 -37.5 -52.5t-62.5 -55t-78.5 -42.5t-85.5 -15q-29 2 -47.5 3t-28.5 2t-12.5 1.5t-0.5 1.5q61 25 105.5 43t79 36t62.5 39.5t56 54.5q-47 11 -69 34t-25.5 51t9 57.5t34 53.5t49.5 38.5t56 13.5q16 -1 25 -12.5t12.5 -29t2.5 -39t-3.5 -41.5t-6.5 -36.5
t-7 -24.5l44 -13l-19 -80zM341 1841q-5 6 -12 8t-12 2q-17 2 -27 -8.5t-11 -24.5q-2 -25 20 -37t51 -23q2 20 2 38q0 15 -2 28.5t-9 18.5v-2z" />
    <glyph glyph-name="kasraisolated" unicode="&#xfe7a;" horiz-adv-x="408" arabic-form="isolated" 
d="M392 -363q-97 -52 -191.5 -102.5t-191.5 -102.5q5 23 8 39t7 38q99 52 191.5 101.5t191.5 102.5z" />
    <glyph glyph-name="shaddaisolated" unicode="&#xfe7c;" horiz-adv-x="425" arabic-form="isolated" 
d="M398 1823q11 -17 17.5 -36t11.5 -38q6 -33 3 -67t-15 -62t-33 -45.5t-51 -17.5q-25 0 -37.5 9t-27.5 23q-6 -10 -15 -23t-22 -25t-31 -21t-40 -11q-35 -3 -56 10t-31 35t-11.5 49.5t2 53.5t10.5 47.5t14 31.5q0 -3 5 1t11.5 9t11.5 8.5t5 0.5q-8 -20 -13.5 -46.5t-3 -50
t14 -39.5t37.5 -15q28 0 43.5 15.5t24 37t13 44.5t12.5 38q1 -3 5.5 0.5t9 8t9 8t5.5 0.5q-8 -29 -2.5 -54t19.5 -40t35.5 -18t46.5 14q6 9 5.5 22t-4.5 26.5t-11 27t-14 23.5q13 18 24.5 34t22.5 32z" />
    <glyph glyph-name="sukunisolated" unicode="&#xfe7e;" horiz-adv-x="328" arabic-form="isolated" 
d="M347 1696q5 -34 -10 -71.5t-41 -87.5v1q0 1 1 2l-3 -5h1h-1q-24 -14 -61.5 -26.5t-74 -15t-65 11t-34.5 51.5q-5 33 3.5 75.5t27 81.5t46 67t59.5 33q28 4 54 -6.5t46.5 -28.5t34.5 -40.5t17 -41.5zM283 1628q-3 14 -13.5 30t-25 29.5t-31.5 22t-35 5.5q-30 -5 -44 -27
t-11 -45q3 -22 21 -32.5t42 -11t50 6.5t46 21zM296 1536h-1h1z" />
    <glyph glyph-name="logo" unicode="&#xfe7f;" horiz-adv-x="2797" arabic-form="medial" 
d="M90 727h2611v-504h-2611v504zM1364 886q-21 -12 -45 -26t-49.5 -25.5t-50.5 -19.5t-49 -8q-31 0 -55.5 20.5t-43.5 65.5q-17 -12 -30 -20.5t-25.5 -15.5t-25.5 -12t-30 -11q-18 -6 -32 -6q-17 0 -33 11.5t-16 33.5q0 7 2.5 15t6.5 17q18 40 49 76.5t68.5 64t77.5 44
t76 16.5q27 0 48 -16t21 -52q0 -14 -9.5 -30.5t-27.5 -36.5q-20 -20 -35 -44.5t-15 -46.5q0 -15 9 -21.5t23 -6.5q21 0 49.5 10t56.5 23t51.5 25.5t33.5 18.5q8 37 32.5 68.5t55.5 54.5t63.5 36.5t57.5 13.5q14 0 20 -5t6 -13q0 -10 -11 -20.5t-30 -12.5q-19 -7 -44 -19
t-47.5 -30t-38 -41t-15.5 -52q0 -32 16.5 -45t42.5 -13t59 10t64.5 23.5t58 27.5t41.5 21q0 36 19 71t48.5 62.5t66.5 44t73 16.5q22 0 36.5 -4.5t22 -11t10.5 -15t3 -15.5q0 -26 -29 -52t-67 -49t-74.5 -40.5t-52.5 -25.5q16 -23 41 -33.5t57 -10.5q30 0 64.5 8.5t70 23.5
t70 35.5t64.5 43.5q19 14 38 32t40 33q4 3 13 8t19.5 10.5t21.5 9t20 3.5q15 0 15 -13q0 -5 -4 -16.5t-10 -22.5q-16 -45 -25.5 -75t-11.5 -47q0 -5 6 -5q7 0 20 6.5t29.5 16t34 22t32.5 24.5q4 2 23 15t43 27.5t48 26.5t38 12q12 0 12 -12q-3 -29 -3 -57q0 -12 1 -24.5
t4.5 -22t10 -15.5t17.5 -6q17 0 31 5.5t27 13.5t25.5 18t27.5 19l8 -21q-12 -9 -30 -25t-38.5 -31.5t-42.5 -27t-42 -11.5q-15 0 -25 6t-15 15t-7 19t-2 19t1 18.5t1 17.5q0 11 -3.5 21t-14.5 10q-10 0 -27.5 -9.5t-38.5 -24t-45 -31t-48 -31t-46 -24.5t-40 -10q-11 2 -22 8
t-11 19q0 23 4.5 44.5t18.5 62.5q0 1 -15.5 -10t-43 -28t-64 -37t-77 -37.5t-83 -29t-82.5 -11.5q-41 0 -76.5 16.5t-49.5 46.5q-19 -8 -47.5 -22t-62 -27.5t-68.5 -23t-66 -9.5q-35 0 -61.5 16.5t-35.5 60.5zM524 1295q8 37 25.5 64t46.5 27q10 0 19.5 -3.5t9.5 -17.5
q0 -9 -8 -24.5t-17 -28.5l-97 -192q105 5 209 36t189 97q35 31 61.5 43.5t43.5 12.5q25 0 25 -21q0 -19 -23 -47.5t-73 -54.5q-33 -34 -63 -72t-54 -82t-40 -96t-20 -115q0 -19 -15 -19q-12 0 -18 13.5t-6 45.5q0 73 22.5 140.5t56.5 124.5q-76 -25 -155 -36.5t-161 -11.5
l-80 -160q-15 -31 -39 -54t-56 -23q-24 0 -50 18.5t-47 49t-35 68.5t-14 77q0 34 16.5 56.5t54.5 22.5q6 0 12 -0.5t13 -1.5q46 -5 92.5 -10t94.5 -5zM1103 265h91v320l318 -320h109v421h-91v-320l-313 320h-114v-421zM1709 265h430v76h-331v108h299v75h-299v87h322v75h-421
v-421zM2202 686v-77h183v-344h89v344h183v77h-455zM427 1080q-108 3 -214 21q-13 -10 -13 -35q0 -23 9.5 -52.5t25.5 -56t36 -45t40 -18.5q15 0 29 12t26 40zM1183 1059q-5 1 -10 1h-10q-36 0 -70.5 -17t-65 -43.5t-56 -58.5t-43.5 -61q41 0 77.5 16.5t68.5 42t59 57.5
t50 63zM880 390v-125h126v125h-126zM1914 1091q-50 -5 -99 -38t-78 -99q40 17 73.5 34t58.5 33t39 30t14 25q0 10 -8 15z" />
    <glyph glyph-name="hamzaisolated" unicode="&#x621;" horiz-adv-x="1095" arabic-form="isolated" 
d="M757 861q-84 42 -157 63.5t-134.5 26.5t-110.5 -5t-86 -32q-65 -38 -88 -108q-11 -33 -11 -71t14 -78q15 -47 47 -93.5t82.5 -88.5t119.5 -77.5t158 -59.5l387 224l50 -87l-859 -498l-50 87l356 206q-82 31 -146.5 71t-112.5 86.5t-80 97t-48 101.5q-17 56 -17.5 109.5
t15.5 102.5q17 50 50 91.5t81 70.5q47 28 107.5 42t134 10t159.5 -28.5t184 -72.5z" />
    <glyph glyph-name="alefwithmaddaaboveisolated" unicode="&#x622;" horiz-adv-x="407" arabic-form="isolated" 
d="M258 1801v-1281q0 -103 -20 -185t-55 -141l-84 52q27 48 43 116.5t16 157.5v1281h100zM-99 1885q-1 62 63 117.5t240 5t270 35.5q-46 -183 -258.5 -121t-314.5 -37z" />
    <glyph glyph-name="alefwithmaddaabovefinal" unicode="&#x622;" horiz-adv-x="412" arabic-form="final" 
d="M198 1801v-1149q0 -93 17.5 -163.5t47.5 -118.5q26 -43 60.5 -65.5t73.5 -24.5h19v-100h-22q-66 2 -121 37t-95 100q-38 60 -59 144t-21 191v1149h100zM-99 1885q-1 62 63 117.5t240 5t270 35.5q-46 -183 -258.5 -121t-314.5 -37z" />
    <glyph glyph-name="alefwithhamzaaboveisolated" unicode="&#x623;" horiz-adv-x="407" arabic-form="isolated" 
d="M258 1801v-1281q0 -103 -20 -185t-55 -141l-84 52q27 48 43 116.5t16 157.5v1281h100zM257 2139q-42 23 -72 25t-48 -9q-14 -8 -17.5 -23t1.5 -29q7 -22 30.5 -42.5t65.5 -33.5l101 59l31 -53l-240 -139l-31 53l71 42q-35 19 -56.5 44t-30.5 51q-11 37 0.5 70.5
t43.5 54.5q29 17 75 16t104 -31z" />
    <glyph glyph-name="alefwithhamzaabovefinal" unicode="&#x623;" horiz-adv-x="412" arabic-form="final" 
d="M198 1801v-1149q0 -93 17.5 -163.5t47.5 -118.5q26 -43 60.5 -65.5t73.5 -24.5h19v-100h-22q-66 2 -121 37t-95 100q-38 60 -59 144t-21 191v1149h100zM210 2139q-42 23 -72 25t-48 -9q-14 -8 -17.5 -23t1.5 -29q7 -22 30.5 -42.5t65.5 -33.5l101 59l31 -53l-240 -139
l-31 53l71 42q-35 19 -56.5 44t-30.5 51q-11 37 0.5 70.5t43.5 54.5q29 17 75 16t104 -31z" />
    <glyph glyph-name="wawwithhamzaaboveisolated" unicode="&#x624;" horiz-adv-x="860" arabic-form="isolated" 
d="M428 1290q102 -5 173 -54.5t116.5 -127.5t67 -175.5t23.5 -197.5q0 -101 -6.5 -198t-23 -187t-44 -171.5t-69.5 -151.5q-43 -72 -102 -130t-137 -98.5t-176.5 -62.5t-219.5 -22v101q106 0 191.5 18.5t153 53t118 83t86.5 109.5q52 88 81 200q-44 -48 -100 -75t-125 -29
q-74 -3 -132.5 24.5t-103.5 75.5t-76.5 112.5t-49.5 135t-23.5 142.5t1.5 135q4 82 28.5 169t71 158.5t115.5 117t162 45.5zM433 1190q-48 0 -86.5 -17.5t-69.5 -48t-54 -70t-38 -84t-23.5 -90t-10.5 -87.5q-6 -48 -2.5 -105t16 -115t34.5 -112t54.5 -95.5t76 -66.5
t98.5 -24q67 0 118 36.5t86 97.5q37 65 56 147t20 170q-1 52 -7 105.5t-19 104.5t-34 96t-51 79.5t-71 55.5t-93 23zM504 1707q-51 27 -87 29.5t-58 -10.5q-17 -10 -21 -27.5t1 -34.5q8 -26 36.5 -51.5t79.5 -40.5l123 71l37 -64l-290 -168l-38 64l86 51q-43 23 -68.5 53
t-36.5 62q-13 45 0.5 85t52.5 66q35 20 91 19t126 -37z" />
    <glyph glyph-name="wawwithhamzaabovefinal" unicode="&#x624;" arabic-form="final" 
d="M434 1290q98 0 170 -50.5t120 -133.5q45 -77 67 -173t23 -198q0 -121 -9.5 -236t-34.5 -219h127v-100h-156q-29 -83 -70 -153q-43 -72 -102 -130t-137 -98.5t-176.5 -62.5t-219.5 -22v101q106 0 191.5 18.5t153 53t118 83t86.5 109.5q14 23 26 48.5t23 52.5
q-89 2 -160.5 15.5t-128.5 36t-100.5 53t-75.5 68.5q-34 39 -56.5 84t-35.5 93.5t-18 99.5t-5 102q0 102 22 199.5t67 174.5q48 83 120.5 133.5t170.5 50.5zM434 1190q-68 0 -118.5 -37t-85.5 -97q-38 -66 -57 -150t-19 -174q0 -44 4 -86.5t14.5 -82.5t27.5 -76.5t44 -67.5
t65 -56.5t89.5 -44t117.5 -28.5t149 -10q28 101 38.5 215t10.5 237q0 90 -19 174t-57 150q-35 60 -86 97t-118 37zM504 1707q-51 27 -87 29.5t-58 -10.5q-17 -10 -21 -27.5t1 -34.5q8 -26 36.5 -51.5t79.5 -40.5l123 71l37 -64l-290 -168l-38 64l86 51q-43 23 -68.5 53
t-36.5 62q-13 45 0.5 85t52.5 66q35 20 91 19t126 -37z" />
    <glyph glyph-name="alefwithhamzabelowisolated" unicode="&#x625;" horiz-adv-x="407" arabic-form="isolated" 
d="M258 1801v-1281q0 -103 -20 -185t-55 -141l-84 52q27 48 43 116.5t16 157.5v1281h100zM274 -13q-42 23 -72 25t-48 -9q-14 -8 -17.5 -23t1.5 -29q7 -22 30.5 -42.5t65.5 -33.5l101 59l31 -53l-240 -139l-31 53l71 42q-35 19 -56.5 44t-30.5 51q-11 37 0.5 70.5t43.5 54.5
q29 17 75 16t104 -31z" />
    <glyph glyph-name="alefwithhamzabelowfinal" unicode="&#x625;" horiz-adv-x="412" arabic-form="final" 
d="M198 1801v-1149q0 -93 17.5 -163.5t47.5 -118.5q26 -43 60.5 -65.5t73.5 -24.5h19v-100h-22q-66 2 -121 37t-95 100q-38 60 -59 144t-21 191v1149h100zM274 -13q-42 23 -72 25t-48 -9q-14 -8 -17.5 -23t1.5 -29q7 -22 30.5 -42.5t65.5 -33.5l101 59l31 -53l-240 -139
l-31 53l71 42q-35 19 -56.5 44t-30.5 51q-11 37 0.5 70.5t43.5 54.5q29 17 75 16t104 -31z" />
    <glyph glyph-name="yehwithhamzaaboveisolated" unicode="&#x626;" horiz-adv-x="1340" arabic-form="isolated" 
d="M1074 1190q-146 0 -243.5 -22.5t-156.5 -60.5q-36 -23 -57 -51t-29 -59q-15 -63 16 -139q29 -69 89.5 -137t144.5 -125q68 -45 145.5 -105.5t145.5 -134.5q36 -38 66 -79.5t52.5 -86.5t36 -92.5t14.5 -98.5q0 -50 -13.5 -92.5t-37.5 -79t-58 -66.5t-75 -54
q-77 -45 -174 -67t-199 -22q-133 0 -229 27t-161.5 75t-103.5 115t-55 147q-16 75 -15 158t13.5 170t33 175t43.5 172l97 -27q-22 -80 -41.5 -162.5t-31.5 -163.5t-13.5 -157.5t12.5 -143.5q13 -62 44 -114.5t84.5 -90.5t133 -59t189.5 -21q89 0 173 19t150 57
q61 35 97.5 85.5t36.5 117.5q-2 80 -42 153t-100 139q-63 68 -136.5 124.5t-136.5 99.5q-97 65 -167 144.5t-104 162.5q-21 52 -27 103t6 99q12 49 43 91.5t85 77.5q70 46 182 72.5t273 26.5v-100zM233 1090q-51 27 -87 29.5t-58 -10.5q-17 -10 -21 -27.5t1 -34.5
q8 -26 36.5 -51.5t79.5 -40.5l123 71l37 -64l-290 -168l-38 64l86 51q-43 23 -68.5 53t-36.5 62q-13 45 0.5 85t52.5 66q35 20 91 19t126 -37z" />
    <glyph glyph-name="yehwithhamzaabovefinal" unicode="&#x626;" horiz-adv-x="1225" arabic-form="final" 
d="M615 378q102 -1 199 -22.5t174 -66.5q4 -2 7 -4.5t7 -4.5h229v-100h-118q28 -38 43.5 -83t15.5 -99q0 -49 -13.5 -91.5t-37.5 -79t-58 -66.5t-75 -54q-77 -45 -174 -67t-199 -22q-133 0 -229 27t-161.5 75t-103.5 115t-55 147q-16 75 -15 158t13.5 170t33 175t43.5 172
l97 -27q-22 -80 -41.5 -162.5t-31.5 -163.5t-13.5 -157.5t12.5 -143.5q13 -62 44 -114.5t84.5 -90.5t133 -59t189.5 -21q89 0 173 19t150 57q61 35 97.5 85.5t36.5 118.5q0 67 -36.5 118t-97.5 86q-66 38 -150 56.5t-173 18.5v101zM306 1077q-51 27 -87 29.5t-58 -10.5
q-17 -10 -21 -27.5t1 -34.5q8 -26 36.5 -51.5t79.5 -40.5l123 71l37 -64l-290 -168l-38 64l86 51q-43 23 -68.5 53t-36.5 62q-13 45 0.5 85t52.5 66q35 20 91 19t126 -37z" />
    <glyph glyph-name="yehwithhamzaaboveinitial" unicode="&#x626;" horiz-adv-x="558" arabic-form="initial" 
d="M-6 280h174q75 0 121.5 32t70.5 86t28.5 124.5t-2.5 147.5q-9 85 -28.5 173t-42 166t-44.5 141t-35 99l94 34q14 -37 36.5 -102t46 -146.5t43.5 -173t29 -181.5q10 -99 2 -189.5t-43 -159.5t-101.5 -110t-174.5 -41h-174v100zM311 1697q-51 27 -87 29.5t-58 -10.5
q-17 -10 -21 -27.5t1 -34.5q8 -26 36.5 -51.5t79.5 -40.5l123 71l37 -64l-290 -168l-38 64l86 51q-43 23 -68.5 53t-36.5 62q-13 45 0.5 85t52.5 66q35 20 91 19t126 -37z" />
    <glyph glyph-name="yehwithhamzaabovemedial" unicode="&#x626;" horiz-adv-x="526" arabic-form="medial" 
d="M313 1181v-529q0 -93 17.5 -163.5t47.5 -118.5q26 -43 60.5 -65.5t73.5 -24.5h19v-100h-22q-66 2 -121 37t-96 100q-8 13 -15 27t-14 30q-7 -16 -14 -30t-15 -27q-41 -65 -96 -100t-121 -37h-21v100h18q80 3 135 90q29 48 46.5 118.5t17.5 162.5v530h100zM327 1634
q-51 27 -87 29.5t-58 -10.5q-17 -10 -21 -27.5t1 -34.5q8 -26 36.5 -51.5t79.5 -40.5l123 71l37 -64l-290 -168l-38 64l86 51q-43 23 -68.5 53t-36.5 62q-13 45 0.5 85t52.5 66q35 20 91 19t126 -37z" />
    <glyph glyph-name="alefisolated" unicode="&#x627;" horiz-adv-x="407" arabic-form="isolated" 
d="M258 1801v-1281q0 -103 -20 -185t-55 -141l-84 52q27 48 43 116.5t16 157.5v1281h100z" />
    <glyph glyph-name="aleffinal" unicode="&#x627;" horiz-adv-x="412" arabic-form="final" 
d="M198 1801v-1149q0 -93 17.5 -163.5t47.5 -118.5q26 -43 60.5 -65.5t73.5 -24.5h19v-100h-22q-66 2 -121 37t-95 100q-38 60 -59 144t-21 191v1149h100z" />
    <glyph glyph-name="behisolated" unicode="&#x628;" horiz-adv-x="1350" arabic-form="isolated" 
d="M1163 1205q8 -21 13 -37t11 -30q30 -71 54.5 -147t38.5 -154.5t13.5 -156.5t-21 -152.5t-64 -143t-115.5 -127.5q-79 -65 -176 -106.5t-200.5 -59t-208.5 -9.5t-200 42q-39 15 -75.5 36t-67.5 48.5t-54.5 61t-36.5 74.5q-23 64 -20.5 142.5t37.5 172.5q9 23 19.5 48
t24.5 51l89 -45q-11 -23 -20.5 -45t-17.5 -44q-29 -76 -32 -137.5t14 -109.5q20 -58 68 -98t107 -60q82 -30 173.5 -37t182.5 8t175.5 51t153.5 93q62 50 98 108.5t51.5 122.5t14 132.5t-15 137.5t-36 137t-47.5 132q-8 20 -14 37.5t-11 30.5zM568 -214q0 29 20.5 49
t48.5 20q29 0 49 -20t20 -49t-20 -49t-49 -20q-28 0 -48.5 20t-20.5 49z" />
    <glyph glyph-name="behfinal" unicode="&#x628;" horiz-adv-x="1501" arabic-form="final" 
d="M1289 1182v-216v-147q0 -58 -0.5 -90.5t-0.5 -48.5v-21v-7q1 -93 18 -163.5t47 -118.5q26 -43 60.5 -65.5t73.5 -24.5h19v-100h-22q-65 2 -120 37t-96 100q-28 45 -45 98q-8 -16 -18.5 -31.5t-22.5 -31.5q-49 -63 -113 -112t-136.5 -82.5t-152 -53t-160.5 -23.5
t-160.5 6.5t-152.5 36.5q-39 15 -76 36t-67.5 48.5t-54 61t-36.5 74.5q-18 39 -20.5 91t7 108t29 112t45.5 103l89 -45q-21 -37 -37.5 -83t-25.5 -92.5t-8.5 -89t15.5 -71.5q20 -58 67.5 -98t106.5 -60q95 -34 201.5 -38.5t209.5 20t194.5 77.5t156.5 135q32 43 49.5 88.5
t25.5 93.5t9 98t1 102l1 387h100zM699 -198q0 29 20.5 49t48.5 20q29 0 49 -20t20 -49t-20 -49t-49 -20q-28 0 -48.5 20t-20.5 49z" />
    <glyph glyph-name="behinitial" unicode="&#x628;" horiz-adv-x="558" arabic-form="initial" 
d="M-6 280h174q75 0 121.5 32t70.5 86t28.5 124.5t-2.5 147.5q-9 85 -28.5 173t-42 166t-44.5 141t-35 99l94 34q14 -37 36.5 -102t46 -146.5t43.5 -173t29 -181.5q10 -99 2 -189.5t-43 -159.5t-101.5 -110t-174.5 -41h-174v100zM167 -142q0 29 20.5 49t48.5 20q29 0 49 -20
t20 -49t-20 -49t-49 -20q-28 0 -48.5 20t-20.5 49z" />
    <glyph glyph-name="behmedial" unicode="&#x628;" horiz-adv-x="526" arabic-form="medial" 
d="M313 1181v-529q0 -93 17.5 -163.5t47.5 -118.5q26 -43 60.5 -65.5t73.5 -24.5h19v-100h-22q-66 2 -121 37t-96 100q-8 13 -15 27t-14 30q-7 -16 -14 -30t-15 -27q-41 -65 -96 -100t-121 -37h-21v100h18q80 3 135 90q29 48 46.5 118.5t17.5 162.5v530h100zM187 -142
q0 29 20.5 49t48.5 20q29 0 49 -20t20 -49t-20 -49t-49 -20q-28 0 -48.5 20t-20.5 49z" />
    <glyph glyph-name="tehmarbutaisolated" unicode="&#x629;" horiz-adv-x="860" arabic-form="isolated" 
d="M732 1185q34 -52 47.5 -123.5t10 -153t-21.5 -168t-48 -168.5q-30 -84 -70.5 -159.5t-87.5 -133t-98 -92t-102 -35.5q-59 -2 -113 44t-97.5 154t-72.5 284t-37 435v28l23 16q138 91 245.5 133.5t189.5 47t139 -25t93 -83.5zM648 1130q-24 36 -65 53t-102.5 9.5t-145 -43
t-192.5 -105.5q8 -223 28.5 -375t49.5 -245t64.5 -133.5t73.5 -38.5q35 1 71.5 30t71.5 77t66.5 112t57.5 135q26 73 43 148t21.5 145t-5.5 129.5t-37 101.5zM141 1537q0 29 20.5 49t48.5 20q29 0 49 -20t20 -49t-20 -49t-49 -20q-28 0 -48.5 20t-20.5 49zM321 1537
q0 29 20.5 49t48.5 20q29 0 49 -20t20 -49t-20 -49t-49 -20q-28 0 -48.5 20t-20.5 49z" />
    <glyph glyph-name="tehmarbutafinal" unicode="&#x629;" horiz-adv-x="1168" arabic-form="final" 
d="M864 343q-27 -94 -76.5 -134t-113.5 -37q-55 3 -116.5 39t-123.5 95.5t-121.5 137t-110.5 162.5t-90 174t-59 170t-19 149t31 112q26 39 72 57.5t115.5 9.5t163.5 -47.5t217 -113.5l-38 143l97 25q40 -152 67.5 -257t45 -173.5t27.5 -106t15 -56t6 -22.5t1 -6
q10 -39 22 -82.5t28 -86t36 -81.5t47 -69t60.5 -47.5t75.5 -17.5h50v-100h-50q-47 0 -85.5 12.5t-70 34t-57 51.5t-46.5 65zM668 976q-122 81 -212 128.5t-153 67t-101 14t-54 -29.5q-21 -31 -18.5 -85t23 -120.5t55.5 -142t80 -150.5q45 -76 96 -145t103 -122t101.5 -85
t90.5 -34q22 -1 40.5 12t33 43t24 77.5t13.5 115.5q-9 31 -17 61t-16 58l-88 338zM330 1537q0 29 20.5 49t48.5 20q29 0 49 -20t20 -49t-20 -49t-49 -20q-28 0 -48.5 20t-20.5 49zM510 1537q0 29 20.5 49t48.5 20q29 0 49 -20t20 -49t-20 -49t-49 -20q-28 0 -48.5 20
t-20.5 49z" />
    <glyph glyph-name="tehisolated" unicode="&#x62a;" horiz-adv-x="1350" arabic-form="isolated" 
d="M1163 1205q8 -21 13 -37t11 -30q30 -71 54.5 -147t38.5 -154.5t13.5 -156.5t-21 -152.5t-64 -143t-115.5 -127.5q-79 -65 -176 -106.5t-200.5 -59t-208.5 -9.5t-200 42q-39 15 -75.5 36t-67.5 48.5t-54.5 61t-36.5 74.5q-23 64 -20.5 142.5t37.5 172.5q9 23 19.5 48
t24.5 51l89 -45q-11 -23 -20.5 -45t-17.5 -44q-29 -76 -32 -137.5t14 -109.5q20 -58 68 -98t107 -60q82 -30 173.5 -37t182.5 8t175.5 51t153.5 93q62 50 98 108.5t51.5 122.5t14 132.5t-15 137.5t-36 137t-47.5 132q-8 20 -14 37.5t-11 30.5zM602 1277q0 29 20.5 49
t48.5 20q29 0 49 -20t20 -49t-20 -49t-49 -20q-28 0 -48.5 20t-20.5 49zM422 1277q0 29 20.5 49t48.5 20q29 0 49 -20t20 -49t-20 -49t-49 -20q-28 0 -48.5 20t-20.5 49z" />
    <glyph glyph-name="tehfinal" unicode="&#x62a;" horiz-adv-x="1501" arabic-form="final" 
d="M1289 1182v-216v-147q0 -58 -0.5 -90.5t-0.5 -48.5v-21v-7q1 -93 18 -163.5t47 -118.5q26 -43 60.5 -65.5t73.5 -24.5h19v-100h-22q-65 2 -120 37t-96 100q-28 45 -45 98q-8 -16 -18.5 -31.5t-22.5 -31.5q-49 -63 -113 -112t-136.5 -82.5t-152 -53t-160.5 -23.5
t-160.5 6.5t-152.5 36.5q-39 15 -76 36t-67.5 48.5t-54 61t-36.5 74.5q-18 39 -20.5 91t7 108t29 112t45.5 103l89 -45q-21 -37 -37.5 -83t-25.5 -92.5t-8.5 -89t15.5 -71.5q20 -58 67.5 -98t106.5 -60q95 -34 201.5 -38.5t209.5 20t194.5 77.5t156.5 135q32 43 49.5 88.5
t25.5 93.5t9 98t1 102l1 387h100zM657 1324q0 29 20.5 49t48.5 20q29 0 49 -20t20 -49t-20 -49t-49 -20q-28 0 -48.5 20t-20.5 49zM477 1324q0 29 20.5 49t48.5 20q29 0 49 -20t20 -49t-20 -49t-49 -20q-28 0 -48.5 20t-20.5 49z" />
    <glyph glyph-name="tehinitial" unicode="&#x62a;" horiz-adv-x="558" arabic-form="initial" 
d="M-6 280h174q75 0 121.5 32t70.5 86t28.5 124.5t-2.5 147.5q-9 85 -28.5 173t-42 166t-44.5 141t-35 99l94 34q14 -37 36.5 -102t46 -146.5t43.5 -173t29 -181.5q10 -99 2 -189.5t-43 -159.5t-101.5 -110t-174.5 -41h-174v100zM289 1533q0 29 20.5 49t48.5 20q29 0 49 -20
t20 -49t-20 -49t-49 -20q-28 0 -48.5 20t-20.5 49zM109 1533q0 29 20.5 49t48.5 20q29 0 49 -20t20 -49t-20 -49t-49 -20q-28 0 -48.5 20t-20.5 49z" />
    <glyph glyph-name="tehmedial" unicode="&#x62a;" horiz-adv-x="526" arabic-form="medial" 
d="M313 1181v-529q0 -93 17.5 -163.5t47.5 -118.5q26 -43 60.5 -65.5t73.5 -24.5h19v-100h-22q-66 2 -121 37t-96 100q-8 13 -15 27t-14 30q-7 -16 -14 -30t-15 -27q-41 -65 -96 -100t-121 -37h-21v100h18q80 3 135 90q29 48 46.5 118.5t17.5 162.5v530h100zM289 1533
q0 29 20.5 49t48.5 20q29 0 49 -20t20 -49t-20 -49t-49 -20q-28 0 -48.5 20t-20.5 49zM109 1533q0 29 20.5 49t48.5 20q29 0 49 -20t20 -49t-20 -49t-49 -20q-28 0 -48.5 20t-20.5 49z" />
    <glyph glyph-name="thehisolated" unicode="&#x62b;" horiz-adv-x="1350" arabic-form="isolated" 
d="M1163 1205q8 -21 13 -37t11 -30q30 -71 54.5 -147t38.5 -154.5t13.5 -156.5t-21 -152.5t-64 -143t-115.5 -127.5q-79 -65 -176 -106.5t-200.5 -59t-208.5 -9.5t-200 42q-39 15 -75.5 36t-67.5 48.5t-54.5 61t-36.5 74.5q-23 64 -20.5 142.5t37.5 172.5q9 23 19.5 48
t24.5 51l89 -45q-11 -23 -20.5 -45t-17.5 -44q-29 -76 -32 -137.5t14 -109.5q20 -58 68 -98t107 -60q82 -30 173.5 -37t182.5 8t175.5 51t153.5 93q62 50 98 108.5t51.5 122.5t14 132.5t-15 137.5t-36 137t-47.5 132q-8 20 -14 37.5t-11 30.5zM547 1423q0 29 20.5 49
t48.5 20q29 0 49 -20t20 -49t-20 -49t-49 -20q-28 0 -48.5 20t-20.5 49zM674 1235q0 29 20.5 49t48.5 20q29 0 49 -20t20 -49t-20 -49t-49 -20q-28 0 -48.5 20t-20.5 49zM434 1235q0 29 20.5 49t48.5 20q29 0 49 -20t20 -49t-20 -49t-49 -20q-28 0 -48.5 20t-20.5 49z" />
    <glyph glyph-name="thehfinal" unicode="&#x62b;" horiz-adv-x="1501" arabic-form="final" 
d="M1289 1182v-216v-147q0 -58 -0.5 -90.5t-0.5 -48.5v-21v-7q1 -93 18 -163.5t47 -118.5q26 -43 60.5 -65.5t73.5 -24.5h19v-100h-22q-65 2 -120 37t-96 100q-28 45 -45 98q-8 -16 -18.5 -31.5t-22.5 -31.5q-49 -63 -113 -112t-136.5 -82.5t-152 -53t-160.5 -23.5
t-160.5 6.5t-152.5 36.5q-39 15 -76 36t-67.5 48.5t-54 61t-36.5 74.5q-18 39 -20.5 91t7 108t29 112t45.5 103l89 -45q-21 -37 -37.5 -83t-25.5 -92.5t-8.5 -89t15.5 -71.5q20 -58 67.5 -98t106.5 -60q95 -34 201.5 -38.5t209.5 20t194.5 77.5t156.5 135q32 43 49.5 88.5
t25.5 93.5t9 98t1 102l1 387h100zM593 1521q0 29 20.5 49t48.5 20q29 0 49 -20t20 -49t-20 -49t-49 -20q-28 0 -48.5 20t-20.5 49zM720 1333q0 29 20.5 49t48.5 20q29 0 49 -20t20 -49t-20 -49t-49 -20q-28 0 -48.5 20t-20.5 49zM480 1333q0 29 20.5 49t48.5 20q29 0 49 -20
t20 -49t-20 -49t-49 -20q-28 0 -48.5 20t-20.5 49z" />
    <glyph glyph-name="thehinitial" unicode="&#x62b;" horiz-adv-x="558" arabic-form="initial" 
d="M-6 280h174q75 0 121.5 32t70.5 86t28.5 124.5t-2.5 147.5q-9 85 -28.5 173t-42 166t-44.5 141t-35 99l94 34q14 -37 36.5 -102t46 -146.5t43.5 -173t29 -181.5q10 -99 2 -189.5t-43 -159.5t-101.5 -110t-174.5 -41h-174v100zM202 1710q0 29 20.5 49t48.5 20q29 0 49 -20
t20 -49t-20 -49t-49 -20q-28 0 -48.5 20t-20.5 49zM329 1522q0 29 20.5 49t48.5 20q29 0 49 -20t20 -49t-20 -49t-49 -20q-28 0 -48.5 20t-20.5 49zM89 1522q0 29 20.5 49t48.5 20q29 0 49 -20t20 -49t-20 -49t-49 -20q-28 0 -48.5 20t-20.5 49z" />
    <glyph glyph-name="thehmedial" unicode="&#x62b;" horiz-adv-x="526" arabic-form="medial" 
d="M313 1181v-529q0 -93 17.5 -163.5t47.5 -118.5q26 -43 60.5 -65.5t73.5 -24.5h19v-100h-22q-66 2 -121 37t-96 100q-8 13 -15 27t-14 30q-7 -16 -14 -30t-15 -27q-41 -65 -96 -100t-121 -37h-21v100h18q80 3 135 90q29 48 46.5 118.5t17.5 162.5v530h100zM197 1701
q0 29 20.5 49t48.5 20q29 0 49 -20t20 -49t-20 -49t-49 -20q-28 0 -48.5 20t-20.5 49zM324 1513q0 29 20.5 49t48.5 20q29 0 49 -20t20 -49t-20 -49t-49 -20q-28 0 -48.5 20t-20.5 49zM84 1513q0 29 20.5 49t48.5 20q29 0 49 -20t20 -49t-20 -49t-49 -20q-28 0 -48.5 20
t-20.5 49z" />
    <glyph glyph-name="jeemisolated" unicode="&#x62c;" horiz-adv-x="1027" arabic-form="isolated" 
d="M61 1150q66 68 124.5 102.5t110 40.5t96.5 -13.5t85 -58.5q39 -38 72 -92.5t62 -119.5t55 -137.5t51 -145.5l16 -46l16 -46q32 11 65.5 20.5t68.5 17.5l24 -97q-143 -34 -261 -88t-209 -120t-153.5 -139.5t-95.5 -145.5q-23 -50 -31 -96t0 -86q7 -38 28.5 -69t58.5 -54
q44 -27 108.5 -40.5t150.5 -9t194.5 27.5t239.5 70l34 -94q-144 -51 -264 -75.5t-217 -27.5t-171.5 14t-126.5 49q-57 35 -90 83.5t-44 106.5q-11 56 -0.5 117t39.5 125q30 66 80.5 132t121 128t160 117.5t196.5 99.5q-17 45 -32 93q-24 69 -48.5 137t-51 128.5t-55 110
t-61.5 81.5q-24 23 -52 33t-62 3.5t-73.5 -32.5t-86.5 -74zM459 47q0 29 20.5 49t48.5 20q29 0 49 -20t20 -49t-20 -49t-49 -20q-28 0 -48.5 20t-20.5 49z" />
    <glyph glyph-name="jeemfinal" unicode="&#x62c;" horiz-adv-x="1053" arabic-form="final" 
d="M903 575q-75 -18 -145 -42q15 -54 33 -100.5t41.5 -80t52.5 -53t67 -19.5h106v-100h-106q-61 0 -106.5 24.5t-79.5 67t-58.5 100t-43.5 124.5q-93 -40 -170 -88.5t-137.5 -102.5t-104 -110.5t-68.5 -112.5q-23 -50 -31 -96t0 -86q7 -38 28.5 -69t58.5 -54
q44 -27 108.5 -40.5t150.5 -9t194.5 27.5t239.5 70l34 -94q-144 -51 -264 -75.5t-217 -27.5t-171.5 14t-126.5 49q-57 35 -90 83.5t-44 106.5q-11 56 -0.5 117t39.5 125q30 64 79.5 129.5t118 127t156 116.5t192.5 99q-7 29 -13 58.5t-12 59.5q-12 55 -24.5 110t-27 106
t-32 95t-39.5 79q-24 37 -56.5 59t-77.5 24.5t-103.5 -18t-133.5 -69.5l-54 84q99 64 177.5 89t140 18t108.5 -42.5t83 -90.5q26 -40 46 -89t35.5 -104t29 -113.5t25.5 -117.5q6 -26 11.5 -51.5t11.5 -51.5q35 12 71 23t74 19zM464 36q0 29 20.5 49t48.5 20q29 0 49 -20
t20 -49t-20 -49t-49 -20q-28 0 -48.5 20t-20.5 49z" />
    <glyph glyph-name="jeeminitial" unicode="&#x62c;" horiz-adv-x="1267" arabic-form="initial" 
d="M-5 280h316q66 0 121.5 17t105 45.5t95.5 66t91 76.5q23 20 46 39.5t47 38.5q-17 37 -34 79.5t-36 89.5q-25 64 -53 131.5t-59 129.5t-65.5 114t-73.5 85q-30 25 -64.5 35t-74.5 -1.5t-86.5 -46t-99.5 -97.5l-77 65q72 85 136 129t122 55.5t110 -6.5t99 -57
q46 -39 85.5 -96t73.5 -124t63.5 -139t56.5 -140q16 -40 31 -76.5t29 -68.5q59 38 126.5 67t150.5 41l14 -99q-64 -9 -119 -31.5t-103.5 -53t-92.5 -66.5t-87 -73q-51 -44 -102 -85.5t-108 -73.5t-122.5 -51t-145.5 -19h-316v100zM417 -142q0 29 20.5 49t48.5 20
q29 0 49 -20t20 -49t-20 -49t-49 -20q-28 0 -48.5 20t-20.5 49z" />
    <glyph glyph-name="jeemmedial" unicode="&#x62c;" horiz-adv-x="1092" arabic-form="medial" 
d="M-7 280h836q-27 37 -51.5 84t-46.5 100t-42.5 111t-40.5 118q-24 69 -48.5 137t-51 128.5t-55 110t-61.5 81.5q-24 23 -52 33t-62 3.5t-73.5 -32.5t-86.5 -74l-72 70q66 68 124.5 102.5t110 40.5t96.5 -13.5t85 -58.5q39 -38 72 -92.5t62 -119.5t55 -137.5t51 -145.5
q27 -78 54 -153t55.5 -135.5t59 -102.5t65.5 -55h121v-100h-1104v100zM370 -142q0 29 20.5 49t48.5 20q29 0 49 -20t20 -49t-20 -49t-49 -20q-28 0 -48.5 20t-20.5 49z" />
    <glyph glyph-name="hahisolated" unicode="&#x62d;" horiz-adv-x="1027" arabic-form="isolated" 
d="M61 1150q66 68 124.5 102.5t110 40.5t96.5 -13.5t85 -58.5q39 -38 72 -92.5t62 -119.5t55 -137.5t51 -145.5l16 -46l16 -46q32 11 65.5 20.5t68.5 17.5l24 -97q-143 -34 -261 -88t-209 -120t-153.5 -139.5t-95.5 -145.5q-23 -50 -31 -96t0 -86q7 -38 28.5 -69t58.5 -54
q44 -27 108.5 -40.5t150.5 -9t194.5 27.5t239.5 70l34 -94q-144 -51 -264 -75.5t-217 -27.5t-171.5 14t-126.5 49q-57 35 -90 83.5t-44 106.5q-11 56 -0.5 117t39.5 125q30 66 80.5 132t121 128t160 117.5t196.5 99.5q-17 45 -32 93q-24 69 -48.5 137t-51 128.5t-55 110
t-61.5 81.5q-24 23 -52 33t-62 3.5t-73.5 -32.5t-86.5 -74z" />
    <glyph glyph-name="hahfinal" unicode="&#x62d;" horiz-adv-x="1053" arabic-form="final" 
d="M903 575q-75 -18 -145 -42q15 -54 33 -100.5t41.5 -80t52.5 -53t67 -19.5h106v-100h-106q-61 0 -106.5 24.5t-79.5 67t-58.5 100t-43.5 124.5q-93 -40 -170 -88.5t-137.5 -102.5t-104 -110.5t-68.5 -112.5q-23 -50 -31 -96t0 -86q7 -38 28.5 -69t58.5 -54
q44 -27 108.5 -40.5t150.5 -9t194.5 27.5t239.5 70l34 -94q-144 -51 -264 -75.5t-217 -27.5t-171.5 14t-126.5 49q-57 35 -90 83.5t-44 106.5q-11 56 -0.5 117t39.5 125q30 64 79.5 129.5t118 127t156 116.5t192.5 99q-7 29 -13 58.5t-12 59.5q-12 55 -24.5 110t-27 106
t-32 95t-39.5 79q-24 37 -56.5 59t-77.5 24.5t-103.5 -18t-133.5 -69.5l-54 84q99 64 177.5 89t140 18t108.5 -42.5t83 -90.5q26 -40 46 -89t35.5 -104t29 -113.5t25.5 -117.5q6 -26 11.5 -51.5t11.5 -51.5q35 12 71 23t74 19z" />
    <glyph glyph-name="hahinitial" unicode="&#x62d;" horiz-adv-x="1267" arabic-form="initial" 
d="M-5 280h316q66 0 121.5 17t105 45.5t95.5 66t91 76.5q23 20 46 39.5t47 38.5q-17 37 -34 79.5t-36 89.5q-25 64 -53 131.5t-59 129.5t-65.5 114t-73.5 85q-30 25 -64.5 35t-74.5 -1.5t-86.5 -46t-99.5 -97.5l-77 65q72 85 136 129t122 55.5t110 -6.5t99 -57
q46 -39 85.5 -96t73.5 -124t63.5 -139t56.5 -140q16 -40 31 -76.5t29 -68.5q59 38 126.5 67t150.5 41l14 -99q-64 -9 -119 -31.5t-103.5 -53t-92.5 -66.5t-87 -73q-51 -44 -102 -85.5t-108 -73.5t-122.5 -51t-145.5 -19h-316v100z" />
    <glyph glyph-name="hahmedial" unicode="&#x62d;" horiz-adv-x="1092" arabic-form="medial" 
d="M-7 280h836q-27 37 -51.5 84t-46.5 100t-42.5 111t-40.5 118q-24 69 -48.5 137t-51 128.5t-55 110t-61.5 81.5q-24 23 -52 33t-62 3.5t-73.5 -32.5t-86.5 -74l-72 70q66 68 124.5 102.5t110 40.5t96.5 -13.5t85 -58.5q39 -38 72 -92.5t62 -119.5t55 -137.5t51 -145.5
q27 -78 54 -153t55.5 -135.5t59 -102.5t65.5 -55h121v-100h-1104v100z" />
    <glyph glyph-name="khahisolated" unicode="&#x62e;" horiz-adv-x="1027" arabic-form="isolated" 
d="M61 1150q66 68 124.5 102.5t110 40.5t96.5 -13.5t85 -58.5q39 -38 72 -92.5t62 -119.5t55 -137.5t51 -145.5l16 -46l16 -46q32 11 65.5 20.5t68.5 17.5l24 -97q-143 -34 -261 -88t-209 -120t-153.5 -139.5t-95.5 -145.5q-23 -50 -31 -96t0 -86q7 -38 28.5 -69t58.5 -54
q44 -27 108.5 -40.5t150.5 -9t194.5 27.5t239.5 70l34 -94q-144 -51 -264 -75.5t-217 -27.5t-171.5 14t-126.5 49q-57 35 -90 83.5t-44 106.5q-11 56 -0.5 117t39.5 125q30 66 80.5 132t121 128t160 117.5t196.5 99.5q-17 45 -32 93q-24 69 -48.5 137t-51 128.5t-55 110
t-61.5 81.5q-24 23 -52 33t-62 3.5t-73.5 -32.5t-86.5 -74zM365 1533q0 29 20.5 49t48.5 20q29 0 49 -20t20 -49t-20 -49t-49 -20q-28 0 -48.5 20t-20.5 49z" />
    <glyph glyph-name="khahfinal" unicode="&#x62e;" horiz-adv-x="1053" arabic-form="final" 
d="M903 575q-75 -18 -145 -42q15 -54 33 -100.5t41.5 -80t52.5 -53t67 -19.5h106v-100h-106q-61 0 -106.5 24.5t-79.5 67t-58.5 100t-43.5 124.5q-93 -40 -170 -88.5t-137.5 -102.5t-104 -110.5t-68.5 -112.5q-23 -50 -31 -96t0 -86q7 -38 28.5 -69t58.5 -54
q44 -27 108.5 -40.5t150.5 -9t194.5 27.5t239.5 70l34 -94q-144 -51 -264 -75.5t-217 -27.5t-171.5 14t-126.5 49q-57 35 -90 83.5t-44 106.5q-11 56 -0.5 117t39.5 125q30 64 79.5 129.5t118 127t156 116.5t192.5 99q-7 29 -13 58.5t-12 59.5q-12 55 -24.5 110t-27 106
t-32 95t-39.5 79q-24 37 -56.5 59t-77.5 24.5t-103.5 -18t-133.5 -69.5l-54 84q99 64 177.5 89t140 18t108.5 -42.5t83 -90.5q26 -40 46 -89t35.5 -104t29 -113.5t25.5 -117.5q6 -26 11.5 -51.5t11.5 -51.5q35 12 71 23t74 19zM365 1533q0 29 20.5 49t48.5 20q29 0 49 -20
t20 -49t-20 -49t-49 -20q-28 0 -48.5 20t-20.5 49z" />
    <glyph glyph-name="khahinitial" unicode="&#x62e;" horiz-adv-x="1267" arabic-form="initial" 
d="M-5 280h316q66 0 121.5 17t105 45.5t95.5 66t91 76.5q23 20 46 39.5t47 38.5q-17 37 -34 79.5t-36 89.5q-25 64 -53 131.5t-59 129.5t-65.5 114t-73.5 85q-30 25 -64.5 35t-74.5 -1.5t-86.5 -46t-99.5 -97.5l-77 65q72 85 136 129t122 55.5t110 -6.5t99 -57
q46 -39 85.5 -96t73.5 -124t63.5 -139t56.5 -140q16 -40 31 -76.5t29 -68.5q59 38 126.5 67t150.5 41l14 -99q-64 -9 -119 -31.5t-103.5 -53t-92.5 -66.5t-87 -73q-51 -44 -102 -85.5t-108 -73.5t-122.5 -51t-145.5 -19h-316v100zM245 1569q0 29 20.5 49t48.5 20
q29 0 49 -20t20 -49t-20 -49t-49 -20q-28 0 -48.5 20t-20.5 49z" />
    <glyph glyph-name="khahmedial" unicode="&#x62e;" horiz-adv-x="1092" arabic-form="medial" 
d="M-7 280h836q-27 37 -51.5 84t-46.5 100t-42.5 111t-40.5 118q-24 69 -48.5 137t-51 128.5t-55 110t-61.5 81.5q-24 23 -52 33t-62 3.5t-73.5 -32.5t-86.5 -74l-72 70q66 68 124.5 102.5t110 40.5t96.5 -13.5t85 -58.5q39 -38 72 -92.5t62 -119.5t55 -137.5t51 -145.5
q27 -78 54 -153t55.5 -135.5t59 -102.5t65.5 -55h121v-100h-1104v100zM318 1533q0 29 20.5 49t48.5 20q29 0 49 -20t20 -49t-20 -49t-49 -20q-28 0 -48.5 20t-20.5 49z" />
    <glyph glyph-name="dalisolated" unicode="&#x62f;" horiz-adv-x="813" arabic-form="isolated" 
d="M229 1277q57 0 110 -22.5t101 -64t90.5 -99t78.5 -127.5q34 -66 61 -140.5t46.5 -155t30 -164.5t11.5 -168v-29t-1 -53q-108 -40 -197 -64.5t-174 -36.5q-86 -13 -171.5 -12.5t-172.5 17.5l18 98q78 -14 156 -14.5t156 10.5q72 10 143 28.5t143 44.5q0 79 -9.5 159
t-27.5 156t-44 146.5t-57 131.5q-29 57 -62.5 104t-70 81t-75 53.5t-77.5 20.5h-6v100z" />
    <glyph glyph-name="dalfinal" unicode="&#x62f;" horiz-adv-x="987" arabic-form="final" 
d="M992 180h-15q-62 0 -112 27.5t-90 78.5q-35 44 -62 101q-5 -14 -10.5 -27t-12.5 -26q-35 -69 -94.5 -116t-134.5 -67q-88 -24 -194 -9.5t-225 77.5l46 89q101 -53 189 -66t158 6q113 31 166 132q29 55 34.5 126.5t-17.5 155.5l2 1l-166 556l96 28l206 -691
q20 -65 44 -117.5t53 -90.5q26 -32 56.5 -50t67.5 -18h15v-100z" />
    <glyph glyph-name="thalisolated" unicode="&#x630;" horiz-adv-x="813" arabic-form="isolated" 
d="M229 1277q57 0 110 -22.5t101 -64t90.5 -99t78.5 -127.5q34 -66 61 -140.5t46.5 -155t30 -164.5t11.5 -168v-29t-1 -53q-108 -40 -197 -64.5t-174 -36.5q-86 -13 -171.5 -12.5t-172.5 17.5l18 98q78 -14 156 -14.5t156 10.5q72 10 143 28.5t143 44.5q0 79 -9.5 159
t-27.5 156t-44 146.5t-57 131.5q-29 57 -62.5 104t-70 81t-75 53.5t-77.5 20.5h-6v100zM349 1533q0 29 20.5 49t48.5 20q29 0 49 -20t20 -49t-20 -49t-49 -20q-28 0 -48.5 20t-20.5 49z" />
    <glyph glyph-name="thalfinal" unicode="&#x630;" horiz-adv-x="987" arabic-form="final" 
d="M992 180h-15q-62 0 -112 27.5t-90 78.5q-35 44 -62 101q-5 -14 -10.5 -27t-12.5 -26q-35 -69 -94.5 -116t-134.5 -67q-88 -24 -194 -9.5t-225 77.5l46 89q101 -53 189 -66t158 6q113 31 166 132q29 55 34.5 126.5t-17.5 155.5l2 1l-166 556l96 28l206 -691
q20 -65 44 -117.5t53 -90.5q26 -32 56.5 -50t67.5 -18h15v-100zM349 1533q0 29 20.5 49t48.5 20q29 0 49 -20t20 -49t-20 -49t-49 -20q-28 0 -48.5 20t-20.5 49z" />
    <glyph glyph-name="rehisolated" unicode="&#x631;" horiz-adv-x="605" arabic-form="isolated" 
d="M325 1110q100 -224 147 -411t47 -340q0 -107 -22 -196t-64 -162q-87 -147 -250 -219q-151 -68 -356 -68v101q187 0 316 58q133 61 203 179q73 123 73 307q-1 142 -46 320t-140 390z" />
    <glyph glyph-name="rehfinal" unicode="&#x631;" horiz-adv-x="825" arabic-form="final" 
d="M440 1110q66 -150 109 -283t64 -251h2q11 -105 44 -174t81 -100q17 -10 35.5 -16t37.5 -6h17v-100h-18q-35 2 -65.5 10t-59.5 28q-31 19 -58 49q-8 -77 -28.5 -143t-52.5 -123q-87 -147 -250 -219q-151 -68 -356 -68v101q187 0 316 58q133 61 203 179q73 123 73 307h-1
q0 142 -45 320t-140 390z" />
    <glyph glyph-name="zainisolated" unicode="&#x632;" horiz-adv-x="605" arabic-form="isolated" 
d="M325 1110q100 -224 147 -411t47 -340q0 -107 -22 -196t-64 -162q-87 -147 -250 -219q-151 -68 -356 -68v101q187 0 316 58q133 61 203 179q73 123 73 307q-1 142 -46 320t-140 390zM98 1381q0 29 20.5 49t48.5 20q29 0 49 -20t20 -49t-20 -49t-49 -20q-28 0 -48.5 20
t-20.5 49z" />
    <glyph glyph-name="zainfinal" unicode="&#x632;" horiz-adv-x="825" arabic-form="final" 
d="M440 1110q66 -150 109 -283t64 -251h2q11 -105 44 -174t81 -100q17 -10 35.5 -16t37.5 -6h17v-100h-18q-35 2 -65.5 10t-59.5 28q-31 19 -58 49q-8 -77 -28.5 -143t-52.5 -123q-87 -147 -250 -219q-151 -68 -356 -68v101q187 0 316 58q133 61 203 179q73 123 73 307h-1
q0 142 -45 320t-140 390zM198 1381q0 29 20.5 49t48.5 20q29 0 49 -20t20 -49t-20 -49t-49 -20q-28 0 -48.5 20t-20.5 49z" />
    <glyph glyph-name="seenisolated" unicode="&#x633;" horiz-adv-x="2209" arabic-form="isolated" 
d="M931 47q43 72 68.5 162.5t27.5 202.5l2 769h100v-529q0 -93 17.5 -163.5t47.5 -118.5q53 -87 136 -90q78 5 131 90q29 48 46.5 118.5t17.5 162.5v530h100v-529q0 -93 17.5 -163.5t47.5 -118.5q26 -42 59.5 -64.5t80.5 -25.5q75 0 121.5 32t70.5 86t28.5 124.5t-2.5 147.5
q-9 85 -28.5 173t-42 166t-44.5 141t-35 99l94 34q14 -37 36.5 -102t46 -146.5t43.5 -173t29 -181.5q10 -98 2.5 -187t-41.5 -158t-98 -110.5t-167 -44.5q-82 2 -140 37t-99 100q-8 13 -15 27t-14 30q-7 -16 -14 -30t-15 -27q-38 -60 -88.5 -94.5t-110.5 -42.5l-39 1
q-113 12 -189 120q-12 -91 -38 -166.5t-64 -138.5q-55 -97 -136.5 -163.5t-176 -94.5t-194.5 -14.5t-193 77.5q-64 46 -117.5 118t-89.5 171.5t-52 227t-5 284.5l100 -7q-10 -142 3 -256.5t43.5 -203t76 -151t99.5 -101.5q75 -51 154.5 -61t153.5 14t138.5 78.5t109.5 132.5
z" />
    <glyph glyph-name="seenfinal" unicode="&#x633;" horiz-adv-x="2330" arabic-form="final" 
d="M2064 1202l47 -678q4 -57 29.5 -102t58 -76.5t65 -48t52.5 -17.5h19v-100h-22q-66 2 -121 37t-96 100q-8 13 -15 27t-14 30q-7 -16 -14 -30t-15 -27q-75 -119 -200 -137l-38 3q-67 9 -116.5 43t-84.5 91q-8 13 -15 27t-14 30q-7 -16 -14 -30t-15 -27q-38 -60 -88.5 -94.5
t-110.5 -42.5l-46 1q-113 12 -189 120q-12 -91 -38 -166.5t-64 -138.5q-55 -97 -136.5 -163.5t-176 -94.5t-194.5 -14.5t-193 77.5q-64 46 -117.5 118t-89.5 171.5t-52 227t-5 284.5l100 -7q-10 -142 3 -256.5t43.5 -203t76 -151t99.5 -101.5q75 -51 154.5 -61t153.5 14
t138.5 78.5t109.5 132.5q43 72 68.5 162.5t27.5 202.5l2 769h100v-529q0 -93 17.5 -163.5t47.5 -118.5q53 -87 143 -90q78 5 131 90q29 48 46.5 118.5t17.5 162.5v530h100v-529q0 -93 17.5 -163.5t47.5 -118.5q25 -42 58.5 -64.5t79.5 -25.5q95 5 140.5 83.5t45.5 222.5
q0 113 -14 261t-28 331z" />
    <glyph glyph-name="seeninitial" unicode="&#x633;" horiz-adv-x="1391" arabic-form="initial" 
d="M311 1181v-529q0 -93 17.5 -163.5t47.5 -118.5q53 -87 136 -90q78 5 131 90q29 48 46.5 118.5t17.5 162.5v530h100v-529q0 -93 17.5 -163.5t47.5 -118.5q26 -42 59.5 -64.5t80.5 -25.5q75 0 121.5 32t70.5 86t28.5 124.5t-2.5 147.5q-9 85 -28.5 173t-42 166t-44.5 141
t-35 99l94 34q14 -37 36.5 -102t46 -146.5t43.5 -173t29 -181.5q10 -98 2.5 -187t-41.5 -158t-98 -110.5t-167 -44.5q-82 2 -140 37t-99 100q-8 13 -15 27t-14 30q-7 -16 -14 -30t-15 -27q-38 -60 -88.5 -94.5t-110.5 -42.5l-39 1q-60 7 -111 41t-89 95q-8 13 -15 27t-14 30
q-7 -16 -14 -30t-15 -27q-41 -65 -96 -100t-121 -37h-21v100h18q80 3 135 90q29 48 46.5 118.5t17.5 162.5v530h100z" />
    <glyph glyph-name="seenmedial" unicode="&#x633;" horiz-adv-x="1517" arabic-form="medial" 
d="M1251 1202l47 -678q4 -57 29.5 -102t58 -76.5t65 -48t52.5 -17.5h19v-100h-22q-66 2 -121 37t-96 100q-8 13 -15 27t-14 30q-7 -16 -14 -30t-15 -27q-75 -119 -200 -137l-38 3q-67 9 -116.5 43t-84.5 91q-8 13 -15 27t-14 30q-7 -16 -14 -30t-15 -27q-38 -60 -88.5 -94.5
t-110.5 -42.5l-39 1q-60 7 -111 41t-89 95q-8 13 -15 27t-14 30q-7 -16 -14 -30t-15 -27q-41 -65 -96 -100t-121 -37h-21v100h18q80 3 135 90q29 48 46.5 118.5t17.5 162.5v530h100v-529q0 -93 17.5 -163.5t47.5 -118.5q53 -87 136 -90q78 5 131 90q29 48 46.5 118.5
t17.5 162.5v530h100v-529q0 -93 17.5 -163.5t47.5 -118.5q25 -42 58.5 -64.5t79.5 -25.5q95 5 140.5 83.5t45.5 222.5q0 113 -14 261t-28 331z" />
    <glyph glyph-name="sheenisolated" unicode="&#x634;" horiz-adv-x="2209" arabic-form="isolated" 
d="M931 47q43 72 68.5 162.5t27.5 202.5l2 769h100v-529q0 -93 17.5 -163.5t47.5 -118.5q53 -87 136 -90q78 5 131 90q29 48 46.5 118.5t17.5 162.5v530h100v-529q0 -93 17.5 -163.5t47.5 -118.5q26 -42 59.5 -64.5t80.5 -25.5q75 0 121.5 32t70.5 86t28.5 124.5t-2.5 147.5
q-9 85 -28.5 173t-42 166t-44.5 141t-35 99l94 34q14 -37 36.5 -102t46 -146.5t43.5 -173t29 -181.5q10 -98 2.5 -187t-41.5 -158t-98 -110.5t-167 -44.5q-82 2 -140 37t-99 100q-8 13 -15 27t-14 30q-7 -16 -14 -30t-15 -27q-38 -60 -88.5 -94.5t-110.5 -42.5l-39 1
q-113 12 -189 120q-12 -91 -38 -166.5t-64 -138.5q-55 -97 -136.5 -163.5t-176 -94.5t-194.5 -14.5t-193 77.5q-64 46 -117.5 118t-89.5 171.5t-52 227t-5 284.5l100 -7q-10 -142 3 -256.5t43.5 -203t76 -151t99.5 -101.5q75 -51 154.5 -61t153.5 14t138.5 78.5t109.5 132.5
zM1437 1710q0 29 20.5 49t48.5 20q29 0 49 -20t20 -49t-20 -49t-49 -20q-28 0 -48.5 20t-20.5 49zM1564 1522q0 29 20.5 49t48.5 20q29 0 49 -20t20 -49t-20 -49t-49 -20q-28 0 -48.5 20t-20.5 49zM1324 1522q0 29 20.5 49t48.5 20q29 0 49 -20t20 -49t-20 -49t-49 -20
q-28 0 -48.5 20t-20.5 49z" />
    <glyph glyph-name="sheenfinal" unicode="&#x634;" horiz-adv-x="2330" arabic-form="final" 
d="M2064 1202l47 -678q4 -57 29.5 -102t58 -76.5t65 -48t52.5 -17.5h19v-100h-22q-66 2 -121 37t-96 100q-8 13 -15 27t-14 30q-7 -16 -14 -30t-15 -27q-75 -119 -200 -137l-38 3q-67 9 -116.5 43t-84.5 91q-8 13 -15 27t-14 30q-7 -16 -14 -30t-15 -27q-38 -60 -88.5 -94.5
t-110.5 -42.5l-46 1q-113 12 -189 120q-12 -91 -38 -166.5t-64 -138.5q-55 -97 -136.5 -163.5t-176 -94.5t-194.5 -14.5t-193 77.5q-64 46 -117.5 118t-89.5 171.5t-52 227t-5 284.5l100 -7q-10 -142 3 -256.5t43.5 -203t76 -151t99.5 -101.5q75 -51 154.5 -61t153.5 14
t138.5 78.5t109.5 132.5q43 72 68.5 162.5t27.5 202.5l2 769h100v-529q0 -93 17.5 -163.5t47.5 -118.5q53 -87 143 -90q78 5 131 90q29 48 46.5 118.5t17.5 162.5v530h100v-529q0 -93 17.5 -163.5t47.5 -118.5q25 -42 58.5 -64.5t79.5 -25.5q95 5 140.5 83.5t45.5 222.5
q0 113 -14 261t-28 331zM1496 1710q0 29 20.5 49t48.5 20q29 0 49 -20t20 -49t-20 -49t-49 -20q-28 0 -48.5 20t-20.5 49zM1623 1522q0 29 20.5 49t48.5 20q29 0 49 -20t20 -49t-20 -49t-49 -20q-28 0 -48.5 20t-20.5 49zM1383 1522q0 29 20.5 49t48.5 20q29 0 49 -20
t20 -49t-20 -49t-49 -20q-28 0 -48.5 20t-20.5 49z" />
    <glyph glyph-name="sheeninitial" unicode="&#x634;" horiz-adv-x="1391" arabic-form="initial" 
d="M311 1181v-529q0 -93 17.5 -163.5t47.5 -118.5q53 -87 136 -90q78 5 131 90q29 48 46.5 118.5t17.5 162.5v530h100v-529q0 -93 17.5 -163.5t47.5 -118.5q26 -42 59.5 -64.5t80.5 -25.5q75 0 121.5 32t70.5 86t28.5 124.5t-2.5 147.5q-9 85 -28.5 173t-42 166t-44.5 141
t-35 99l94 34q14 -37 36.5 -102t46 -146.5t43.5 -173t29 -181.5q10 -98 2.5 -187t-41.5 -158t-98 -110.5t-167 -44.5q-82 2 -140 37t-99 100q-8 13 -15 27t-14 30q-7 -16 -14 -30t-15 -27q-38 -60 -88.5 -94.5t-110.5 -42.5l-39 1q-60 7 -111 41t-89 95q-8 13 -15 27t-14 30
q-7 -16 -14 -30t-15 -27q-41 -65 -96 -100t-121 -37h-21v100h18q80 3 135 90q29 48 46.5 118.5t17.5 162.5v530h100zM685 1710q0 29 20.5 49t48.5 20q29 0 49 -20t20 -49t-20 -49t-49 -20q-28 0 -48.5 20t-20.5 49zM812 1522q0 29 20.5 49t48.5 20q29 0 49 -20t20 -49
t-20 -49t-49 -20q-28 0 -48.5 20t-20.5 49zM572 1522q0 29 20.5 49t48.5 20q29 0 49 -20t20 -49t-20 -49t-49 -20q-28 0 -48.5 20t-20.5 49z" />
    <glyph glyph-name="sheenmedial" unicode="&#x634;" horiz-adv-x="1517" arabic-form="medial" 
d="M1251 1202l47 -678q4 -57 29.5 -102t58 -76.5t65 -48t52.5 -17.5h19v-100h-22q-66 2 -121 37t-96 100q-8 13 -15 27t-14 30q-7 -16 -14 -30t-15 -27q-75 -119 -200 -137l-38 3q-67 9 -116.5 43t-84.5 91q-8 13 -15 27t-14 30q-7 -16 -14 -30t-15 -27q-38 -60 -88.5 -94.5
t-110.5 -42.5l-39 1q-60 7 -111 41t-89 95q-8 13 -15 27t-14 30q-7 -16 -14 -30t-15 -27q-41 -65 -96 -100t-121 -37h-21v100h18q80 3 135 90q29 48 46.5 118.5t17.5 162.5v530h100v-529q0 -93 17.5 -163.5t47.5 -118.5q53 -87 136 -90q78 5 131 90q29 48 46.5 118.5
t17.5 162.5v530h100v-529q0 -93 17.5 -163.5t47.5 -118.5q25 -42 58.5 -64.5t79.5 -25.5q95 5 140.5 83.5t45.5 222.5q0 113 -14 261t-28 331zM685 1710q0 29 20.5 49t48.5 20q29 0 49 -20t20 -49t-20 -49t-49 -20q-28 0 -48.5 20t-20.5 49zM812 1522q0 29 20.5 49t48.5 20
q29 0 49 -20t20 -49t-20 -49t-49 -20q-28 0 -48.5 20t-20.5 49zM572 1522q0 29 20.5 49t48.5 20q29 0 49 -20t20 -49t-20 -49t-49 -20q-28 0 -48.5 20t-20.5 49z" />
    <glyph glyph-name="sadisolated" unicode="&#x635;" horiz-adv-x="1950" arabic-form="isolated" 
d="M909 1204q63 -120 106 -230.5t69 -213.5q75 268 183 404.5t259 141.5q81 -6 149 -46t117 -103t76.5 -144.5t29.5 -172.5q3 -121 -32 -236.5t-104 -209.5q-35 -47 -77 -85.5t-91 -66.5t-105 -44.5t-117 -17.5h-277q-29 -104 -77 -184q-55 -97 -136.5 -163.5t-176 -94.5
t-194.5 -14.5t-193 77.5q-64 46 -117.5 118t-89.5 171.5t-52 227t-5 284.5l100 -7q-10 -142 3 -256.5t43.5 -203t76 -151t99.5 -101.5q75 -51 154.5 -61t153.5 14t138.5 78.5t109.5 132.5q50 85 76 198t17.5 253t-57 305.5t-147.5 354.5zM1529 1206q-56 -2 -103 -35
t-87 -86.5t-72.5 -121.5t-59 -140t-48 -141.5t-38.5 -126.5q8 -75 6 -143.5t-11 -131.5h254q98 2 176.5 50t134.5 123q58 79 88.5 177t28.5 200q-2 72 -20.5 136.5t-53 114.5t-84 82.5t-111.5 42.5z" />
    <glyph glyph-name="sadfinal" unicode="&#x635;" horiz-adv-x="1960" arabic-form="final" 
d="M909 1204q63 -120 106 -230.5t69 -213.5q75 268 183 404.5t259 141.5q81 -6 149 -46t117 -103t76.5 -144.5t29.5 -172.5q3 -121 -32 -236.5t-104 -209.5q-24 -32 -51.5 -61t-59.5 -53h314v-100h-870q-29 -104 -77 -184q-55 -97 -136.5 -163.5t-176 -94.5t-194.5 -14.5
t-193 77.5q-64 46 -117.5 118t-89.5 171.5t-52 227t-5 284.5l100 -7q-10 -142 3 -256.5t43.5 -203t76 -151t99.5 -101.5q75 -51 154.5 -61t153.5 14t138.5 78.5t109.5 132.5q50 85 76 198t17.5 253t-57 305.5t-147.5 354.5zM1529 1206q-56 -2 -103 -35t-87 -86.5
t-72.5 -121.5t-59 -140t-48 -141.5t-38.5 -126.5q8 -75 6 -143.5t-11 -131.5h254q98 2 176.5 50t134.5 123q58 79 88.5 177t28.5 200q-2 72 -20.5 136.5t-53 114.5t-84 82.5t-111.5 42.5z" />
    <glyph glyph-name="sadinitial" unicode="&#x635;" horiz-adv-x="1470" arabic-form="initial" 
d="M875 180h-364q-66 2 -121 37t-96 100q-17 27 -31 61q-7 -17 -15 -32t-16 -29q-41 -65 -96 -100t-121 -37h-21v100h19q38 2 73 24.5t61 65.5q30 48 47.5 118.5t17.5 163.5l3 530h100v-530q0 -93 17 -163.5t47 -118.5q26 -43 60.5 -65.5t73.5 -24.5h14q1 43 2.5 86t5.5 88
q5 51 11.5 100t16.5 97q24 130 65.5 247.5t99.5 207t133.5 143.5t167.5 57q81 -6 149 -46t117 -103t76.5 -144.5t29.5 -172.5q3 -121 -32 -236.5t-104 -209.5q-35 -47 -77 -85.5t-91 -66.5t-105 -44.5t-117 -17.5zM635 445q-4 -42 -6 -83t-2 -82h246q98 2 176.5 50
t134.5 123q58 79 88.5 177t28.5 200q-2 72 -20.5 136.5t-53 114.5t-84 82.5t-111.5 42.5q-71 -2 -129.5 -49.5t-105 -126t-81 -181t-55.5 -216.5q-9 -47 -15 -93.5t-11 -94.5z" />
    <glyph glyph-name="sadmedial" unicode="&#x635;" horiz-adv-x="1470" arabic-form="medial" 
d="M511 180q-66 2 -121 37t-96 100q-17 27 -31 61q-7 -17 -15 -32t-16 -29q-41 -65 -96 -100t-121 -37h-21v100h19q38 2 73 24.5t61 65.5q30 48 47.5 118.5t17.5 163.5l3 530h100v-530q0 -93 17 -163.5t47 -118.5q26 -43 60.5 -65.5t73.5 -24.5h14q1 43 2.5 86t5.5 88
q5 51 11.5 100t16.5 97q24 130 65.5 247.5t99.5 207t133.5 143.5t167.5 57q81 -6 149 -46t117 -103t76.5 -144.5t29.5 -172.5q3 -121 -32 -236.5t-104 -209.5q-24 -32 -51.5 -61t-59.5 -53h321v-100h-964zM635 445q-4 -42 -6 -83t-2 -82h246q98 2 176.5 50t134.5 123
q58 79 88.5 177t28.5 200q-2 72 -20.5 136.5t-53 114.5t-84 82.5t-111.5 42.5q-71 -2 -129.5 -49.5t-105 -126t-81 -181t-55.5 -216.5q-9 -47 -15 -93.5t-11 -94.5z" />
    <glyph glyph-name="dadisolated" unicode="&#x636;" horiz-adv-x="1950" arabic-form="isolated" 
d="M909 1204q63 -120 106 -230.5t69 -213.5q75 268 183 404.5t259 141.5q81 -6 149 -46t117 -103t76.5 -144.5t29.5 -172.5q3 -121 -32 -236.5t-104 -209.5q-35 -47 -77 -85.5t-91 -66.5t-105 -44.5t-117 -17.5h-277q-29 -104 -77 -184q-55 -97 -136.5 -163.5t-176 -94.5
t-194.5 -14.5t-193 77.5q-64 46 -117.5 118t-89.5 171.5t-52 227t-5 284.5l100 -7q-10 -142 3 -256.5t43.5 -203t76 -151t99.5 -101.5q75 -51 154.5 -61t153.5 14t138.5 78.5t109.5 132.5q50 85 76 198t17.5 253t-57 305.5t-147.5 354.5zM1529 1206q-56 -2 -103 -35
t-87 -86.5t-72.5 -121.5t-59 -140t-48 -141.5t-38.5 -126.5q8 -75 6 -143.5t-11 -131.5h254q98 2 176.5 50t134.5 123q58 79 88.5 177t28.5 200q-2 72 -20.5 136.5t-53 114.5t-84 82.5t-111.5 42.5zM1055 1531q0 29 20.5 49t48.5 20q29 0 49 -20t20 -49t-20 -49t-49 -20
q-28 0 -48.5 20t-20.5 49z" />
    <glyph glyph-name="dadfinal" unicode="&#x636;" horiz-adv-x="1960" arabic-form="final" 
d="M909 1204q63 -120 106 -230.5t69 -213.5q75 268 183 404.5t259 141.5q81 -6 149 -46t117 -103t76.5 -144.5t29.5 -172.5q3 -121 -32 -236.5t-104 -209.5q-24 -32 -51.5 -61t-59.5 -53h314v-100h-870q-29 -104 -77 -184q-55 -97 -136.5 -163.5t-176 -94.5t-194.5 -14.5
t-193 77.5q-64 46 -117.5 118t-89.5 171.5t-52 227t-5 284.5l100 -7q-10 -142 3 -256.5t43.5 -203t76 -151t99.5 -101.5q75 -51 154.5 -61t153.5 14t138.5 78.5t109.5 132.5q50 85 76 198t17.5 253t-57 305.5t-147.5 354.5zM1529 1206q-56 -2 -103 -35t-87 -86.5
t-72.5 -121.5t-59 -140t-48 -141.5t-38.5 -126.5q8 -75 6 -143.5t-11 -131.5h254q98 2 176.5 50t134.5 123q58 79 88.5 177t28.5 200q-2 72 -20.5 136.5t-53 114.5t-84 82.5t-111.5 42.5zM1055 1531q0 29 20.5 49t48.5 20q29 0 49 -20t20 -49t-20 -49t-49 -20
q-28 0 -48.5 20t-20.5 49z" />
    <glyph glyph-name="dadinitial" unicode="&#x636;" horiz-adv-x="1470" arabic-form="initial" 
d="M875 180h-364q-66 2 -121 37t-96 100q-17 27 -31 61q-7 -17 -15 -32t-16 -29q-41 -65 -96 -100t-121 -37h-21v100h19q38 2 73 24.5t61 65.5q30 48 47.5 118.5t17.5 163.5l3 530h100v-530q0 -93 17 -163.5t47 -118.5q26 -43 60.5 -65.5t73.5 -24.5h14q1 43 2.5 86t5.5 88
q5 51 11.5 100t16.5 97q24 130 65.5 247.5t99.5 207t133.5 143.5t167.5 57q81 -6 149 -46t117 -103t76.5 -144.5t29.5 -172.5q3 -121 -32 -236.5t-104 -209.5q-35 -47 -77 -85.5t-91 -66.5t-105 -44.5t-117 -17.5zM635 445q-4 -42 -6 -83t-2 -82h246q98 2 176.5 50
t134.5 123q58 79 88.5 177t28.5 200q-2 72 -20.5 136.5t-53 114.5t-84 82.5t-111.5 42.5q-71 -2 -129.5 -49.5t-105 -126t-81 -181t-55.5 -216.5q-9 -47 -15 -93.5t-11 -94.5zM511 1531q0 29 20.5 49t48.5 20q29 0 49 -20t20 -49t-20 -49t-49 -20q-28 0 -48.5 20t-20.5 49z
" />
    <glyph glyph-name="dadmedial" unicode="&#x636;" horiz-adv-x="1470" arabic-form="medial" 
d="M511 180q-66 2 -121 37t-96 100q-17 27 -31 61q-7 -17 -15 -32t-16 -29q-41 -65 -96 -100t-121 -37h-21v100h19q38 2 73 24.5t61 65.5q30 48 47.5 118.5t17.5 163.5l3 530h100v-530q0 -93 17 -163.5t47 -118.5q26 -43 60.5 -65.5t73.5 -24.5h14q1 43 2.5 86t5.5 88
q5 51 11.5 100t16.5 97q24 130 65.5 247.5t99.5 207t133.5 143.5t167.5 57q81 -6 149 -46t117 -103t76.5 -144.5t29.5 -172.5q3 -121 -32 -236.5t-104 -209.5q-24 -32 -51.5 -61t-59.5 -53h321v-100h-964zM635 445q-4 -42 -6 -83t-2 -82h246q98 2 176.5 50t134.5 123
q58 79 88.5 177t28.5 200q-2 72 -20.5 136.5t-53 114.5t-84 82.5t-111.5 42.5q-71 -2 -129.5 -49.5t-105 -126t-81 -181t-55.5 -216.5q-9 -47 -15 -93.5t-11 -94.5zM511 1531q0 29 20.5 49t48.5 20q29 0 49 -20t20 -49t-20 -49t-49 -20q-28 0 -48.5 20t-20.5 49z" />
    <glyph glyph-name="tahisolated" unicode="&#x637;" horiz-adv-x="1095" arabic-form="isolated" 
d="M263 714q10 70 31 141t50.5 136.5t66 122t78.5 99t87.5 67t92.5 26.5q60 2 125 -29t120 -94q53 -59 88.5 -145t38.5 -198q4 -121 -31.5 -236.5t-104.5 -209.5q-34 -47 -76 -85.5t-91 -66.5t-105 -44.5t-117 -17.5h-438v100h85v1521h100v-1087zM839 1117q-62 60 -121 66.5
t-112.5 -26t-100.5 -97.5t-86 -146.5t-69.5 -173t-50 -178t-28.5 -161t-4 -121.5h247q97 2 175.5 50t135.5 123q57 79 87.5 177t28.5 200q-2 96 -30.5 167.5t-71.5 119.5z" />
    <glyph glyph-name="tahfinal" unicode="&#x637;" horiz-adv-x="1110" arabic-form="final" 
d="M268 714q10 70 31 141t50.5 136.5t66 122t78.5 99t87.5 67t92.5 26.5q60 2 125 -29t120 -94q53 -59 88.5 -145t38.5 -198q4 -121 -31.5 -236.5t-104.5 -209.5q-24 -32 -51.5 -61t-59.5 -53h317v-100h-1043v100h95v1521h100v-1087zM844 1117q-62 60 -121 66.5t-112.5 -26
t-100.5 -97.5t-86 -146.5t-69.5 -173t-50 -178t-28.5 -161t-4 -121.5h247q97 2 175.5 50t135.5 123q57 79 87.5 177t28.5 200q-2 96 -30.5 167.5t-71.5 119.5z" />
    <glyph glyph-name="tahinitial" unicode="&#x637;" horiz-adv-x="1053" arabic-form="initial" 
d="M221 714q10 70 31 141t50.5 136.5t66 122t78.5 99t87.5 67t92.5 26.5q60 2 125 -29t120 -94q53 -59 88.5 -145t38.5 -198q4 -121 -31.5 -236.5t-104.5 -209.5q-34 -47 -76 -85.5t-91 -66.5t-105 -44.5t-117 -17.5h-480v100h127v1521h100v-1087zM797 1117
q-62 60 -121 66.5t-112.5 -26t-100.5 -97.5t-86 -146.5t-69.5 -173t-50 -178t-28.5 -161t-4 -121.5h247q97 2 175.5 50t135.5 123q57 79 87.5 177t28.5 200q-2 96 -30.5 167.5t-71.5 119.5z" />
    <glyph glyph-name="tahmedial" unicode="&#x637;" horiz-adv-x="1063" arabic-form="medial" 
d="M221 714q10 70 31 141t50.5 136.5t66 122t78.5 99t87.5 67t92.5 26.5q60 2 125 -29t120 -94q53 -59 88.5 -145t38.5 -198q4 -121 -31.5 -236.5t-104.5 -209.5q-24 -32 -51.5 -61t-59.5 -53h317v-100h-1075v100h127v1521h100v-1087zM797 1117q-62 60 -121 66.5t-112.5 -26
t-100.5 -97.5t-86 -146.5t-69.5 -173t-50 -178t-28.5 -161t-4 -121.5h247q97 2 175.5 50t135.5 123q57 79 87.5 177t28.5 200q-2 96 -30.5 167.5t-71.5 119.5z" />
    <glyph glyph-name="zahisolated" unicode="&#x638;" horiz-adv-x="1095" arabic-form="isolated" 
d="M263 714q10 70 31 141t50.5 136.5t66 122t78.5 99t87.5 67t92.5 26.5q60 2 125 -29t120 -94q53 -59 88.5 -145t38.5 -198q4 -121 -31.5 -236.5t-104.5 -209.5q-34 -47 -76 -85.5t-91 -66.5t-105 -44.5t-117 -17.5h-438v100h85v1521h100v-1087zM839 1117q-62 60 -121 66.5
t-112.5 -26t-100.5 -97.5t-86 -146.5t-69.5 -173t-50 -178t-28.5 -161t-4 -121.5h247q97 2 175.5 50t135.5 123q57 79 87.5 177t28.5 200q-2 96 -30.5 167.5t-71.5 119.5zM421 1531q0 29 20.5 49t48.5 20q29 0 49 -20t20 -49t-20 -49t-49 -20q-28 0 -48.5 20t-20.5 49z" />
    <glyph glyph-name="zahfinal" unicode="&#x638;" horiz-adv-x="1110" arabic-form="final" 
d="M268 714q10 70 31 141t50.5 136.5t66 122t78.5 99t87.5 67t92.5 26.5q60 2 125 -29t120 -94q53 -59 88.5 -145t38.5 -198q4 -121 -31.5 -236.5t-104.5 -209.5q-24 -32 -51.5 -61t-59.5 -53h317v-100h-1043v100h95v1521h100v-1087zM844 1117q-62 60 -121 66.5t-112.5 -26
t-100.5 -97.5t-86 -146.5t-69.5 -173t-50 -178t-28.5 -161t-4 -121.5h247q97 2 175.5 50t135.5 123q57 79 87.5 177t28.5 200q-2 96 -30.5 167.5t-71.5 119.5zM421 1531q0 29 20.5 49t48.5 20q29 0 49 -20t20 -49t-20 -49t-49 -20q-28 0 -48.5 20t-20.5 49z" />
    <glyph glyph-name="zahinitial" unicode="&#x638;" horiz-adv-x="1053" arabic-form="initial" 
d="M221 714q10 70 31 141t50.5 136.5t66 122t78.5 99t87.5 67t92.5 26.5q60 2 125 -29t120 -94q53 -59 88.5 -145t38.5 -198q4 -121 -31.5 -236.5t-104.5 -209.5q-34 -47 -76 -85.5t-91 -66.5t-105 -44.5t-117 -17.5h-480v100h127v1521h100v-1087zM797 1117
q-62 60 -121 66.5t-112.5 -26t-100.5 -97.5t-86 -146.5t-69.5 -173t-50 -178t-28.5 -161t-4 -121.5h247q97 2 175.5 50t135.5 123q57 79 87.5 177t28.5 200q-2 96 -30.5 167.5t-71.5 119.5zM421 1531q0 29 20.5 49t48.5 20q29 0 49 -20t20 -49t-20 -49t-49 -20
q-28 0 -48.5 20t-20.5 49z" />
    <glyph glyph-name="zahmedial" unicode="&#x638;" horiz-adv-x="1063" arabic-form="medial" 
d="M221 714q10 70 31 141t50.5 136.5t66 122t78.5 99t87.5 67t92.5 26.5q60 2 125 -29t120 -94q53 -59 88.5 -145t38.5 -198q4 -121 -31.5 -236.5t-104.5 -209.5q-24 -32 -51.5 -61t-59.5 -53h317v-100h-1075v100h127v1521h100v-1087zM797 1117q-62 60 -121 66.5t-112.5 -26
t-100.5 -97.5t-86 -146.5t-69.5 -173t-50 -178t-28.5 -161t-4 -121.5h247q97 2 175.5 50t135.5 123q57 79 87.5 177t28.5 200q-2 96 -30.5 167.5t-71.5 119.5zM421 1531q0 29 20.5 49t48.5 20q29 0 49 -20t20 -49t-20 -49t-49 -20q-28 0 -48.5 20t-20.5 49z" />
    <glyph glyph-name="ainisolated" unicode="&#x639;" horiz-adv-x="1027" arabic-form="isolated" 
d="M250 650q-56 52 -74.5 110.5t-8.5 118t43.5 118t82.5 111.5q41 43 94.5 84t113.5 71t122.5 44.5t121.5 6.5q42 -8 74.5 -28.5t52.5 -57t25.5 -89.5t-7.5 -124l-98 18q8 45 6.5 77.5t-10.5 54.5t-24.5 34t-35.5 16q-47 4 -97 -9.5t-98 -39t-91 -59t-76 -68.5
q-36 -38 -61 -79.5t-34 -83t1 -81t46 -72.5l199 -187q79 43 169 77.5t193 58.5l24 -97q-143 -34 -261 -88t-209 -120t-153.5 -139.5t-95.5 -145.5q-23 -50 -31 -96t0 -86q7 -38 28.5 -69t58.5 -54q44 -27 108.5 -40.5t150.5 -9t194.5 27.5t239.5 70l34 -94
q-144 -51 -264 -75.5t-217 -27.5t-171.5 14t-126.5 49q-57 35 -90 83.5t-44 106.5q-11 56 -0.5 117t39.5 125q43 94 126.5 187t207.5 173z" />
    <glyph glyph-name="ainfinal" unicode="&#x639;" horiz-adv-x="933" arabic-form="final" 
d="M757 180q-53 0 -94.5 16t-80 52t-78 94t-87.5 144q-57 -47 -108.5 -94.5t-90 -96.5t-59.5 -100t-17 -104q2 -33 11.5 -67t27.5 -63q24 -40 62 -74t92.5 -59t125.5 -39t161 -14v-100q-105 0 -189.5 17.5t-149.5 49t-111.5 74.5t-76.5 94q-47 79 -53 174q-6 73 19.5 138.5
t71 125.5t107 116.5t128.5 110.5q-17 31 -35 64.5t-38 70.5q-44 82 -97 181t-120 219v101q24 13 43 22.5t37 17.5t37.5 16t44.5 17q69 24 147.5 40t154 12t142 -34t111.5 -98q44 -67 56 -128t-1 -117.5t-47 -109t-82 -103t-106 -99.5t-119 -98q42 -75 75 -126.5t62.5 -83
t59 -45.5t64.5 -14h183v-100h-183zM383 757q17 -32 33.5 -61.5t30.5 -56.5q50 40 98 80.5t87.5 81.5t68.5 83t41.5 85t6 88t-37.5 92q-32 48 -83 67.5t-111 20t-123.5 -13.5t-119.5 -34q-29 -11 -53.5 -20.5t-48.5 -21.5q64 -115 116 -211.5t95 -178.5z" />
    <glyph glyph-name="aininitial" unicode="&#x639;" horiz-adv-x="1027" arabic-form="initial" 
d="M127 658q-33 48 -45 97t-7 96.5t25 93.5t51 88t71.5 79.5t85.5 68.5q52 35 108.5 61t110.5 40q59 14 112.5 13t95.5 -22q41 -20 67.5 -56t32.5 -91t-12 -130.5t-65 -172.5l-90 43q35 73 51.5 128t17.5 93.5t-11.5 61.5t-34.5 34q-25 13 -62 13q-36 0 -78 -11
q-46 -11 -94 -33.5t-93 -53.5q-53 -36 -96.5 -81.5t-68 -96t-24.5 -103.5q0 -52 35 -102l271 -397q118 28 228.5 66t229.5 72l27 -97q-65 -18 -128 -38.5t-125 -40t-124.5 -38t-126.5 -31.5q-68 -14 -138.5 -22.5t-148.5 -8.5h-185v100h185q53 0 102 4t97 12z" />
    <glyph glyph-name="ainmedial" unicode="&#x639;" horiz-adv-x="944" arabic-form="medial" 
d="M220 280q72 2 136.5 33t119.5 79q-36 60 -79 138t-98 180q-44 82 -97 180.5t-119 217.5v103q25 15 63 31.5t83.5 32t97 28t104.5 18.5q66 8 131.5 2.5t121.5 -29.5t98.5 -70t63.5 -119q26 -92 16 -190t-45.5 -193t-91 -183.5t-119.5 -160.5q39 -53 74.5 -75t80.5 -23h188
v-100h-188q-36 0 -66 7.5t-57.5 22.5t-53 39.5t-51.5 59.5q-67 -56 -145.5 -91.5t-166.5 -37.5h-226v100h225zM549 464q52 62 97.5 137t75.5 155.5t39.5 162.5t-11.5 159q-15 54 -47 85t-74 46t-90.5 16.5t-96.5 -4.5q-38 -4 -74.5 -12t-71 -18t-65 -21.5t-55.5 -22.5
q64 -115 116 -211.5t95 -178.5q51 -95 90.5 -167t71.5 -126z" />
    <glyph glyph-name="ghainisolated" unicode="&#x63a;" horiz-adv-x="1027" arabic-form="isolated" 
d="M250 650q-56 52 -74.5 110.5t-8.5 118t43.5 118t82.5 111.5q41 43 94.5 84t113.5 71t122.5 44.5t121.5 6.5q42 -8 74.5 -28.5t52.5 -57t25.5 -89.5t-7.5 -124l-98 18q8 45 6.5 77.5t-10.5 54.5t-24.5 34t-35.5 16q-47 4 -97 -9.5t-98 -39t-91 -59t-76 -68.5
q-36 -38 -61 -79.5t-34 -83t1 -81t46 -72.5l199 -187q79 43 169 77.5t193 58.5l24 -97q-143 -34 -261 -88t-209 -120t-153.5 -139.5t-95.5 -145.5q-23 -50 -31 -96t0 -86q7 -38 28.5 -69t58.5 -54q44 -27 108.5 -40.5t150.5 -9t194.5 27.5t239.5 70l34 -94
q-144 -51 -264 -75.5t-217 -27.5t-171.5 14t-126.5 49q-57 35 -90 83.5t-44 106.5q-11 56 -0.5 117t39.5 125q43 94 126.5 187t207.5 173zM249 1464q0 29 20.5 49t48.5 20q29 0 49 -20t20 -49t-20 -49t-49 -20q-28 0 -48.5 20t-20.5 49z" />
    <glyph glyph-name="ghainfinal" unicode="&#x63a;" horiz-adv-x="933" arabic-form="final" 
d="M757 180q-53 0 -94.5 16t-80 52t-78 94t-87.5 144q-57 -47 -108.5 -94.5t-90 -96.5t-59.5 -100t-17 -104q2 -33 11.5 -67t27.5 -63q24 -40 62 -74t92.5 -59t125.5 -39t161 -14v-100q-105 0 -189.5 17.5t-149.5 49t-111.5 74.5t-76.5 94q-47 79 -53 174q-6 73 19.5 138.5
t71 125.5t107 116.5t128.5 110.5q-17 31 -35 64.5t-38 70.5q-44 82 -97 181t-120 219v101q24 13 43 22.5t37 17.5t37.5 16t44.5 17q69 24 147.5 40t154 12t142 -34t111.5 -98q44 -67 56 -128t-1 -117.5t-47 -109t-82 -103t-106 -99.5t-119 -98q42 -75 75 -126.5t62.5 -83
t59 -45.5t64.5 -14h183v-100h-183zM383 757q17 -32 33.5 -61.5t30.5 -56.5q50 40 98 80.5t87.5 81.5t68.5 83t41.5 85t6 88t-37.5 92q-32 48 -83 67.5t-111 20t-123.5 -13.5t-119.5 -34q-29 -11 -53.5 -20.5t-48.5 -21.5q64 -115 116 -211.5t95 -178.5zM385 1531
q0 29 20.5 49t48.5 20q29 0 49 -20t20 -49t-20 -49t-49 -20q-28 0 -48.5 20t-20.5 49z" />
    <glyph glyph-name="ghaininitial" unicode="&#x63a;" horiz-adv-x="1027" arabic-form="initial" 
d="M127 658q-33 48 -45 97t-7 96.5t25 93.5t51 88t71.5 79.5t85.5 68.5q52 35 108.5 61t110.5 40q59 14 112.5 13t95.5 -22q41 -20 67.5 -56t32.5 -91t-12 -130.5t-65 -172.5l-90 43q35 73 51.5 128t17.5 93.5t-11.5 61.5t-34.5 34q-25 13 -62 13q-36 0 -78 -11
q-46 -11 -94 -33.5t-93 -53.5q-53 -36 -96.5 -81.5t-68 -96t-24.5 -103.5q0 -52 35 -102l271 -397q118 28 228.5 66t229.5 72l27 -97q-65 -18 -128 -38.5t-125 -40t-124.5 -38t-126.5 -31.5q-68 -14 -138.5 -22.5t-148.5 -8.5h-185v100h185q53 0 102 4t97 12zM385 1531
q0 29 20.5 49t48.5 20q29 0 49 -20t20 -49t-20 -49t-49 -20q-28 0 -48.5 20t-20.5 49z" />
    <glyph glyph-name="ghainmedial" unicode="&#x63a;" horiz-adv-x="944" arabic-form="medial" 
d="M220 280q72 2 136.5 33t119.5 79q-36 60 -79 138t-98 180q-44 82 -97 180.5t-119 217.5v103q25 15 63 31.5t83.5 32t97 28t104.5 18.5q66 8 131.5 2.5t121.5 -29.5t98.5 -70t63.5 -119q26 -92 16 -190t-45.5 -193t-91 -183.5t-119.5 -160.5q39 -53 74.5 -75t80.5 -23h188
v-100h-188q-36 0 -66 7.5t-57.5 22.5t-53 39.5t-51.5 59.5q-67 -56 -145.5 -91.5t-166.5 -37.5h-226v100h225zM549 464q52 62 97.5 137t75.5 155.5t39.5 162.5t-11.5 159q-15 54 -47 85t-74 46t-90.5 16.5t-96.5 -4.5q-38 -4 -74.5 -12t-71 -18t-65 -21.5t-55.5 -22.5
q64 -115 116 -211.5t95 -178.5q51 -95 90.5 -167t71.5 -126zM385 1531q0 29 20.5 49t48.5 20q29 0 49 -20t20 -49t-20 -49t-49 -20q-28 0 -48.5 20t-20.5 49z" />
    <glyph glyph-name="fehisolated" unicode="&#x641;" horiz-adv-x="1413" arabic-form="isolated" 
d="M1136 430q-99 0 -178 21.5t-139.5 59t-103.5 88t-68 107.5q-20 42 -29.5 87t-10.5 91q-2 92 30 173q20 51 53.5 95.5t78 76.5t100.5 49.5t121 16.5q94 -2 164 -51t118 -127q45 -75 67.5 -167.5t22.5 -191.5q1 -120 -41.5 -220.5t-114.5 -180t-168 -136t-201 -89.5
q-103 -33 -208 -43t-200 4q-100 14 -182 54t-133 109q-32 43 -50 95.5t-18 114.5q0 63 19.5 136t62.5 156l88 -45q-35 -69 -52 -127.5t-18.5 -108t11 -90t36.5 -71.5q39 -51 104 -82t146 -42q85 -12 178 -3t185 38q96 30 181.5 80.5t148.5 122.5zM1139 529h67
q28 51 42.5 108.5t13.5 120.5q0 85 -19 164.5t-57 142.5q-35 58 -84.5 93t-113.5 37q-48 1 -88.5 -12t-73.5 -36t-57 -55.5t-38 -70.5q-26 -65 -24 -136q1 -35 8.5 -70t22.5 -68q20 -45 54.5 -84.5t84.5 -69.5t115 -47t147 -17zM924 1531q0 29 20.5 49t48.5 20q29 0 49 -20
t20 -49t-20 -49t-49 -20q-28 0 -48.5 20t-20.5 49z" />
    <glyph glyph-name="fehfinal" unicode="&#x641;" horiz-adv-x="1422" arabic-form="final" 
d="M219 713q-47 -92 -62 -166t-4 -132q12 -56 41 -95t70 -65.5t92 -42t105 -22.5q97 -11 202.5 3.5t206.5 54.5q-63 37 -111 90.5t-80 117.5t-50 135.5t-21 143.5q-4 87 13.5 182t61.5 180q22 42 52 78.5t68 63.5t83.5 42t98.5 14q54 1 100.5 -14t85 -42.5t69 -65
t52.5 -81.5q43 -85 60 -178.5t13 -178.5q-3 -65 -17.5 -129.5t-41 -123.5t-65 -110.5t-90.5 -91.5h278v-100q-95 1 -157 1t-102 0.5t-63 1t-40 2t-32 4.5t-39 8q-64 -34 -133 -57.5t-139.5 -37t-140 -17t-134.5 4.5q-69 8 -134 30t-118.5 59.5t-90.5 91.5t-51 126
q-14 74 3 163.5t73 197.5zM1002 1195q-39 3 -73.5 -6.5t-63.5 -29t-52.5 -47.5t-40.5 -61q-38 -73 -53 -154.5t-11 -156.5q3 -53 14 -105.5t31.5 -101t50 -90.5t69.5 -75q48 -41 113 -64q70 24 125 74q37 33 64.5 74.5t46.5 88t29.5 97.5t13.5 102q4 72 -10.5 153t-51.5 153
q-31 61 -80.5 102.5t-120.5 46.5zM924 1531q0 29 20.5 49t48.5 20q29 0 49 -20t20 -49t-20 -49t-49 -20q-28 0 -48.5 20t-20.5 49z" />
    <glyph glyph-name="fehinitial" unicode="&#x641;" horiz-adv-x="880" arabic-form="initial" 
d="M-6 280h449q38 0 70 11.5t58.5 31.5t47.5 47t37 59h-56q-99 0 -179 22t-140.5 59.5t-103.5 88t-69 107.5q-20 42 -29 87t-11 91q-1 45 6.5 88.5t24.5 84.5q20 51 52 94.5t75.5 75.5t97.5 50t119 18q98 0 170.5 -50.5t120.5 -133.5q45 -77 67 -174t22 -199q0 -38 -4 -81.5
t-13 -89t-23.5 -90.5t-34.5 -87q-22 -45 -51 -83t-67 -66.5t-84.5 -44.5t-102.5 -16h-449v100zM694 529q16 54 22.5 108t6.5 101q0 89 -19 173t-57 150q-35 61 -85.5 97.5t-118.5 36.5q-47 0 -86.5 -13.5t-71 -36.5t-55 -55t-38.5 -69q-26 -65 -24 -136q1 -35 8.5 -70
t22.5 -68q20 -45 54.5 -84.5t84.5 -69.5t115 -47t147 -17h94zM317 1531q0 29 20.5 49t48.5 20q29 0 49 -20t20 -49t-20 -49t-49 -20q-28 0 -48.5 20t-20.5 49z" />
    <glyph glyph-name="fehmedial" unicode="&#x641;" horiz-adv-x="897" arabic-form="medial" 
d="M-7 280h297q-55 43 -95 98.5t-66.5 119t-40 132.5t-13.5 138q0 39 4.5 81t13.5 84.5t23.5 84t34.5 79.5q22 42 52 78.5t67.5 63t82.5 41.5t97 15q53 0 98.5 -15t83.5 -42t68 -63t52 -78q20 -38 34.5 -79.5t23.5 -84t13.5 -84.5t4.5 -81q0 -69 -13 -138t-39.5 -132.5
t-67.5 -119.5t-96 -98h290v-100h-256q-21 0 -46 5t-50.5 12t-49.5 14.5t-43 12.5q-20 -5 -45.5 -12.5t-53.5 -14.5t-55 -12t-48 -5h-262v100zM452 1195q-37 0 -68.5 -10.5t-58 -30t-48 -46t-37.5 -57.5q-35 -66 -50 -141t-15 -142q0 -66 14 -132.5t42.5 -125.5t72 -107
t103.5 -79q21 -16 44.5 -15t44.5 15q60 31 103.5 79t72 107t42.5 125.5t14 132.5q0 67 -15 142t-50 141q-16 31 -37.5 57t-48 45.5t-58 30.5t-67.5 11zM359 1531q0 29 20.5 49t48.5 20q29 0 49 -20t20 -49t-20 -49t-49 -20q-28 0 -48.5 20t-20.5 49z" />
    <glyph glyph-name="qafisolated" unicode="&#x642;" horiz-adv-x="1319" arabic-form="isolated" 
d="M177 636q-13 -78 -22 -160t-10.5 -163t5.5 -158.5t26 -145.5q18 -64 48 -117.5t75.5 -92t108 -60t145.5 -21.5q121 0 216 35.5t165.5 97t119 144t76.5 177.5q12 40 20.5 80.5t13.5 82.5q-48 -66 -116.5 -105.5t-149.5 -50.5q-56 -9 -108.5 -1t-98.5 32t-83.5 61.5
t-63.5 86.5q-45 78 -67.5 175t-22.5 199t22.5 199.5t67.5 174.5q48 83 120 133.5t170 50.5q71 0 133.5 -36.5t114 -100t90.5 -150.5t64 -188q19 -79 29 -164t9 -171.5t-12.5 -171.5t-35.5 -164q-32 -110 -88 -205.5t-139 -166.5t-193.5 -112.5t-252.5 -41.5q-104 0 -183 27
t-136 75.5t-94.5 115t-59.5 146.5q-21 75 -29 158t-6.5 169.5t11 173t22.5 168.5zM1153 726q-3 17 -6.5 33t-7.5 32q-21 85 -52 158t-70 126.5t-85.5 84t-97.5 30.5q-67 0 -118 -37t-86 -97q-38 -66 -57 -150t-19 -174q0 -89 19 -173t57 -150q35 -61 86 -97.5t118 -36.5
q88 -3 155 36t108.5 104t56 146.5t-0.5 164.5zM679 1531q0 29 20.5 49t48.5 20q29 0 49 -20t20 -49t-20 -49t-49 -20q-28 0 -48.5 20t-20.5 49zM859 1531q0 29 20.5 49t48.5 20q29 0 49 -20t20 -49t-20 -49t-49 -20q-28 0 -48.5 20t-20.5 49z" />
    <glyph glyph-name="qaffinal" unicode="&#x642;" horiz-adv-x="1381" arabic-form="final" 
d="M186 636q-12 -78 -21 -160t-10.5 -163t5 -158.5t25.5 -145.5q18 -64 48 -117.5t75.5 -92t108 -60t145.5 -21.5q121 0 216 35.5t166 97t119.5 144t76.5 177.5q0 2 1 4t1 4h-208q-125 0 -214 48.5t-147 128.5q-57 78 -83 175t-26 200q0 102 22 199.5t67 174.5
q48 83 120 133.5t170 50.5q71 0 133.5 -36.5t114 -100t91 -150.5t63.5 -188q32 -126 38 -264.5t-16 -270.5h120v-100h-141q-2 -9 -5 -18t-5 -18q-33 -110 -89 -205.5t-139 -166.5t-193.5 -112.5t-252.5 -41.5q-104 0 -182.5 27t-136 75.5t-95 115t-59.5 146.5
q-21 75 -28.5 158t-6 169.5t10.5 173t22 168.5zM1166 280q22 125 17.5 257.5t-35.5 253.5q-21 85 -51.5 158t-69.5 126.5t-85.5 84t-97.5 30.5q-68 0 -119 -37t-86 -97q-38 -66 -56.5 -150t-18.5 -174q0 -88 21.5 -170.5t68.5 -146.5q45 -61 114 -98t166 -37h232zM684 1537
q0 29 20.5 49t48.5 20q29 0 49 -20t20 -49t-20 -49t-49 -20q-28 0 -48.5 20t-20.5 49zM864 1537q0 29 20.5 49t48.5 20q29 0 49 -20t20 -49t-20 -49t-49 -20q-28 0 -48.5 20t-20.5 49z" />
    <glyph glyph-name="qafinitial" unicode="&#x642;" horiz-adv-x="880" arabic-form="initial" 
d="M-6 280h449q38 0 70 11.5t58.5 31.5t47.5 47t37 59h-56q-99 0 -179 22t-140.5 59.5t-103.5 88t-69 107.5q-20 42 -29 87t-11 91q-1 45 6.5 88.5t24.5 84.5q20 51 52 94.5t75.5 75.5t97.5 50t119 18q98 0 170.5 -50.5t120.5 -133.5q45 -77 67 -174t22 -199q0 -38 -4 -81.5
t-13 -89t-23.5 -90.5t-34.5 -87q-22 -45 -51 -83t-67 -66.5t-84.5 -44.5t-102.5 -16h-449v100zM694 529q16 54 22.5 108t6.5 101q0 89 -19 173t-57 150q-35 61 -85.5 97.5t-118.5 36.5q-47 0 -86.5 -13.5t-71 -36.5t-55 -55t-38.5 -69q-26 -65 -24 -136q1 -35 8.5 -70
t22.5 -68q20 -45 54.5 -84.5t84.5 -69.5t115 -47t147 -17h94zM288 1542q0 29 20.5 49t48.5 20q29 0 49 -20t20 -49t-20 -49t-49 -20q-28 0 -48.5 20t-20.5 49zM468 1542q0 29 20.5 49t48.5 20q29 0 49 -20t20 -49t-20 -49t-49 -20q-28 0 -48.5 20t-20.5 49z" />
    <glyph glyph-name="qafmedial" unicode="&#x642;" horiz-adv-x="897" arabic-form="medial" 
d="M-7 280h297q-55 43 -95 98.5t-66.5 119t-40 132.5t-13.5 138q0 39 4.5 81t13.5 84.5t23.5 84t34.5 79.5q22 42 52 78.5t67.5 63t82.5 41.5t97 15q53 0 98.5 -15t83.5 -42t68 -63t52 -78q20 -38 34.5 -79.5t23.5 -84t13.5 -84.5t4.5 -81q0 -69 -13 -138t-39.5 -132.5
t-67.5 -119.5t-96 -98h290v-100h-256q-21 0 -46 5t-50.5 12t-49.5 14.5t-43 12.5q-20 -5 -45.5 -12.5t-53.5 -14.5t-55 -12t-48 -5h-262v100zM452 1195q-37 0 -68.5 -10.5t-58 -30t-48 -46t-37.5 -57.5q-35 -66 -50 -141t-15 -142q0 -66 14 -132.5t42.5 -125.5t72 -107
t103.5 -79q21 -16 44.5 -15t44.5 15q60 31 103.5 79t72 107t42.5 125.5t14 132.5q0 67 -15 142t-50 141q-16 31 -37.5 57t-48 45.5t-58 30.5t-67.5 11zM288 1542q0 29 20.5 49t48.5 20q29 0 49 -20t20 -49t-20 -49t-49 -20q-28 0 -48.5 20t-20.5 49zM468 1542q0 29 20.5 49
t48.5 20q29 0 49 -20t20 -49t-20 -49t-49 -20q-28 0 -48.5 20t-20.5 49z" />
    <glyph glyph-name="kafisolated" unicode="&#x643;" horiz-adv-x="1314" arabic-form="isolated" 
d="M1252 1801l-1 -1079q-1 -98 -6 -177t-31.5 -143.5t-83 -117t-160.5 -97.5q-77 -33 -170 -54q-104 -24 -213 -27.5t-207 18.5q-74 14 -136.5 48.5t-108 85t-69.5 115.5t-21 140q1 68 21.5 144t62.5 160l89 -46q-37 -72 -54.5 -137t-18.5 -122q-3 -58 15 -106t52.5 -85
t83 -62t106.5 -37q87 -20 185 -16.5t192 25.5q40 9 78 21t73 27q82 35 126.5 77.5t65 96.5t24.5 120.5t5 149.5l1 1078h100zM830 1235l-163 -141q30 -23 60.5 -43.5t62.5 -46.5q60 -46 84.5 -86.5t23.5 -75.5q-2 -32 -17 -54.5t-38.5 -37.5t-52.5 -23.5t-58 -11.5
q-41 -5 -86.5 -2t-87.5 13.5t-75.5 29t-50.5 43.5l82 57q9 -14 31 -24t50.5 -15t61 -6t62.5 3q26 5 45.5 10t33.5 20q0 12 -15.5 32t-53.5 49q-19 15 -41.5 31t-44.5 31.5t-42 30.5t-34 30q-22 26 -22.5 48.5t24.5 44.5l196 170z" />
    <glyph glyph-name="arabickaffinal" unicode="&#x643;" horiz-adv-x="1465" arabic-form="final" 
d="M1252 1801l-1 -1079q0 -20 -0.5 -38t-0.5 -35q1 -92 18 -161.5t47 -117.5q26 -43 60.5 -65.5t73.5 -24.5h19v-100h-22q-65 2 -120.5 37t-95.5 100q-16 24 -30 56q-29 -55 -83 -100.5t-147 -85.5q-77 -33 -170 -54q-104 -24 -213 -27.5t-207 18.5q-74 14 -136.5 48.5
t-108 85t-69.5 115.5t-21 140q1 68 21.5 144t62.5 160l89 -46q-37 -72 -54.5 -137t-18.5 -122q-3 -58 15 -106t52.5 -85t83 -62t106.5 -37q87 -20 185 -16.5t192 25.5q40 9 78 21t73 27q82 35 126.5 77.5t65 96.5t24.5 120.5t5 149.5l1 1078h100zM667 1094
q30 -23 60.5 -43.5t62.5 -46.5q60 -46 84.5 -86.5t23.5 -75.5q-2 -32 -17 -54.5t-38.5 -37.5t-52.5 -23.5t-58 -11.5q-41 -5 -86.5 -2t-87.5 13.5t-75.5 29t-50.5 43.5l82 57q9 -14 31 -24t50.5 -15t61 -6t62.5 3q26 5 45.5 10t33.5 20q0 12 -15.5 32t-53.5 49
q-19 15 -41.5 31t-44.5 31.5t-42 30.5t-34 30q-22 26 -22.5 48.5t24.5 44.5l196 170l65 -76z" />
    <glyph glyph-name="kafinitial" unicode="&#x643;" horiz-adv-x="1010" arabic-form="initial" 
d="M-6 280h415q106 7 172 58q29 21 49 48.5t34 59.5q14 34 19 71.5t3 76.5q-1 43 -13 88t-33 88.5t-49 84t-61 74.5q-46 51 -100.5 96.5t-114.5 82t-124 62.5t-128 39l-16 92l958 579l52 -86l-859 -519q115 -42 219 -115t187 -164q39 -40 72 -87.5t57 -99t38 -105t15 -105.5
q6 -102 -29 -190q-19 -45 -47.5 -83.5t-68.5 -68.5q-45 -33 -101.5 -53t-127.5 -24h-418v100z" />
    <glyph glyph-name="kafmedial" unicode="&#x643;" horiz-adv-x="1194" arabic-form="medial" 
d="M-7 280h400q105 7 171 58q61 45 86 113.5t20 142.5q-3 67 -28 135.5t-72 131.5q-54 72 -121 133q-87 79 -190 136.5t-212 78.5l-17 92l958 579l52 -86l-859 -519q92 -33 177 -86.5t159 -121.5q38 -34 70.5 -70t62.5 -76q71 -96 101 -204l3 1q24 -69 55.5 -130.5
t69 -112.5t79.5 -91t86 -65q16 -9 32 -16t33 -12t32.5 -7.5t30.5 -3.5h28v-100h-25q-24 0 -48 4t-47 11q-44 13 -86 38q-65 37 -124.5 98t-109.5 141q-15 -64 -48 -119.5t-87 -95.5q-45 -33 -101.5 -53t-127.5 -24h-403v100z" />
    <glyph glyph-name="lamisolated" unicode="&#x644;" arabic-form="isolated" 
d="M810 1775v-1329q0 -38 -4 -81.5t-13 -89t-23.5 -90.5t-34.5 -87q-22 -45 -51 -83t-67 -66.5t-84.5 -44.5t-102.5 -16q-98 0 -170 50.5t-120 133.5q-45 78 -67.5 174.5t-22.5 199.5q0 78 13.5 155t42.5 149l92 -38q-24 -62 -35.5 -131t-12.5 -135q0 -90 19 -174t57 -150
q35 -60 86 -97t118 -37q39 0 71.5 12t59 32.5t47.5 48.5t37 61q18 36 30 75.5t20 79t11.5 77.5t3.5 72v1329h100z" />
    <glyph glyph-name="lamfinal" unicode="&#x644;" horiz-adv-x="1022" arabic-form="final" 
d="M810 1775v-1135q2 -89 19 -156.5t46 -113.5q26 -43 60.5 -65.5t73.5 -24.5h19v-100h-22q-62 2 -115.5 33.5t-92.5 90.5q-9 -52 -24.5 -105t-38.5 -101q-22 -45 -51 -83t-67 -66.5t-84.5 -44.5t-102.5 -16q-98 0 -170 50.5t-120 133.5q-45 78 -67.5 174.5t-22.5 199.5
q0 78 13.5 155t42.5 149l92 -38q-24 -62 -35.5 -131t-12.5 -135q0 -90 19 -174t57 -150q35 -60 86 -97t118 -37q39 0 71.5 12t59 32.5t47.5 48.5t37 61q18 36 30 75.5t20 79t11.5 77.5t3.5 72v1329h100z" />
    <glyph glyph-name="laminitial" unicode="&#x644;" horiz-adv-x="407" arabic-form="initial" 
d="M315 1801v-1149q0 -107 -21 -191t-59 -144q-40 -65 -95 -100t-121 -37h-22v100h19q80 3 135 90q29 48 46.5 118.5t17.5 163.5v1149h100z" />
    <glyph glyph-name="lammedial" unicode="&#x644;" horiz-adv-x="526" arabic-form="medial" 
d="M264 378q-8 -17 -15.5 -32t-15.5 -29q-41 -65 -96 -100t-121 -37h-22v100h19q39 2 73.5 24.5t60.5 65.5q30 48 47.5 118.5t17.5 163.5v6v18v45q0 31 0.5 85t0.5 137t0.5 203t0.5 281q0 162 1 374h100v-1149q1 -93 18 -163.5t47 -118.5q26 -43 60.5 -65.5t73.5 -24.5h19
v-100h-22q-66 2 -121 37t-95 100q-17 27 -31 61z" />
    <glyph glyph-name="meemisolated" unicode="&#x645;" horiz-adv-x="1194" arabic-form="isolated" 
d="M456 370q-91 -2 -152 -13.5t-98 -31t-53 -47t-16 -61.5q0 -48 15 -101.5t41.5 -116.5t61.5 -137t75 -164l-93 -37q-42 103 -79 182t-64 143t-42.5 119t-14.5 112q0 54 19 98.5t63 76.5t116 51.5t179 24.5q-20 63 -30 129t-10 135q0 62 8.5 126.5t27.5 125.5t48.5 115
t72 95.5t97.5 67t125 28.5q70 -3 125 -28.5t97.5 -66.5t72.5 -95.5t49 -115.5t27.5 -125.5t8.5 -126.5q0 -55 -8 -117.5t-26.5 -125t-48 -119.5t-71.5 -100.5t-98.5 -69.5t-127.5 -25q-50 0 -94 14.5t-81.5 40t-68 61.5t-53.5 79zM753 1190q-81 -7 -134.5 -52t-85.5 -111
t-45 -144t-14 -151q1 -68 10.5 -131.5t32.5 -123.5q13 -38 35.5 -74.5t52.5 -65.5t67 -46.5t81 -15.5q55 1 97.5 23.5t73.5 59.5t51.5 84.5t33.5 98t18.5 100.5t5.5 91q-1 73 -14 151t-45 144t-86 111t-135 52z" />
    <glyph glyph-name="meemfinal" unicode="&#x645;" horiz-adv-x="1340" arabic-form="final" 
d="M456 370q-91 -2 -152 -13.5t-98 -31t-53 -47t-16 -61.5q0 -48 15 -101.5t41.5 -116.5t61.5 -137t75 -164l-93 -37q-42 103 -79 182t-64 143t-42.5 119t-14.5 112q0 54 19 98.5t63 76.5t116 51.5t179 24.5q-20 63 -30 129t-10 135q0 62 8.5 126.5t27.5 125.5t48.5 115
t72 95.5t97.5 67t125 28.5q70 -3 125 -28.5t97.5 -66.5t72.5 -95.5t49 -115.5t27.5 -125.5t8.5 -126.5q0 -20 -1 -40.5t-3 -42.5q1 -92 18 -161.5t47 -117.5q26 -43 60.5 -65.5t73.5 -24.5h19v-100h-22q-65 2 -120.5 37t-95.5 100q-12 19 -22.5 41t-19.5 46
q-21 -48 -51 -90.5t-68.5 -73.5t-87 -48.5t-107.5 -16.5q-50 0 -94 14.5t-81.5 40t-68 61.5t-53.5 79zM753 1190q-81 -7 -134.5 -52t-85.5 -111t-45 -144t-14 -151q1 -68 10.5 -131.5t32.5 -123.5q13 -38 35.5 -74.5t52.5 -65.5t67 -46.5t81 -15.5q50 1 89.5 20t69.5 50
t51.5 72t35.5 86t21.5 91.5t10.5 89.5q1 13 1.5 25t0.5 23q-1 73 -14 151t-45 144t-86 111t-135 52z" />
    <glyph glyph-name="meeminitial" unicode="&#x645;" horiz-adv-x="1022" arabic-form="initial" 
d="M592 1290q66 2 120.5 -22t97.5 -66.5t74 -99t51.5 -119t29.5 -127.5t7 -124q2 -59 -7.5 -124t-29.5 -127.5t-51.5 -118.5t-74 -98.5t-97 -66.5t-120.5 -22q-56 0 -103.5 17t-87 48t-70.5 73t-54 93q-18 -51 -42 -89q-41 -65 -96 -100t-121 -37h-22v100h19q80 3 135 90
q20 26 33.5 68.5t21 92t9.5 102t-2 99.5q-2 59 7.5 124t29.5 127.5t51 119t74 98.5t97.5 66.5t120.5 22.5zM592 1190q-50 1 -90.5 -20t-72 -57t-54.5 -83t-37 -98.5t-20.5 -103t-4.5 -96.5q-2 -45 4.5 -96.5t20.5 -103t37 -98.5t54.5 -83t72 -57t90.5 -19q50 -2 90.5 19
t72 57t54.5 83t37 98.5t20.5 103t4.5 96.5q2 45 -4.5 96.5t-20.5 103t-37 98.5t-54.5 83t-72 57t-90.5 20z" />
    <glyph glyph-name="meemmedial" unicode="&#x645;" horiz-adv-x="1183" arabic-form="medial" 
d="M592 1290q66 2 120.5 -22t97.5 -66.5t74 -99t51.5 -119t29.5 -127.5t7 -124q2 -42 -3 -86q1 -91 18 -159.5t47 -116.5q26 -43 60.5 -65.5t73.5 -24.5h19v-100h-22q-65 2 -120.5 37t-95.5 100q-24 37 -43 90q-23 -50 -54 -93t-70 -74.5t-86.5 -49t-103.5 -15.5
q-56 0 -103.5 17t-87 48t-70.5 73t-54 93q-18 -51 -42 -89q-41 -65 -96 -100t-121 -37h-22v100h19q80 3 135 90q20 26 33.5 68.5t21 92t9.5 102t-2 99.5q-2 59 7.5 124t29.5 127.5t51 119t74 98.5t97.5 66.5t120.5 22.5zM871 684q4 47 0 102.5t-17 112t-35 109.5t-54.5 93.5
t-75.5 64.5t-97 24q-50 1 -90.5 -20t-72 -57t-54.5 -83t-37 -98.5t-20.5 -103t-4.5 -96.5q-2 -45 4.5 -96.5t20.5 -103t37 -98.5t54.5 -83t72 -57t90.5 -19q68 -2 119 36.5t85.5 99t52.5 133.5t21 140h1z" />
    <glyph glyph-name="noonisolated" unicode="&#x646;" horiz-adv-x="1173" arabic-form="isolated" 
d="M907 1204q106 -202 157.5 -381t59.5 -331t-22 -277t-86 -219q-55 -97 -136.5 -163.5t-176 -94.5t-194.5 -14.5t-193 77.5q-64 46 -117.5 118t-89.5 171.5t-52 227t-5 284.5l100 -7q-10 -142 3 -256.5t43.5 -203t76 -151t99.5 -101.5q75 -51 154.5 -61t153.5 14
t138.5 78.5t109.5 132.5q50 85 76 198t17.5 253t-57 305.5t-147.5 354.5zM395 1177q0 29 20.5 49t48.5 20q29 0 49 -20t20 -49t-20 -49t-49 -20q-28 0 -48.5 20t-20.5 49z" />
    <glyph glyph-name="noonfinal" unicode="&#x646;" horiz-adv-x="1324" arabic-form="final" 
d="M905 1204q92 -174 142 -329t67 -293q10 -107 43.5 -177.5t82.5 -101.5q8 -6 17 -10t18 -7q18 -6 38 -6h17v-100h-18q-35 2 -66 10q-33 11 -60 28q-41 27 -73 68q-12 -85 -37.5 -157.5t-61.5 -132.5q-55 -97 -136.5 -163.5t-176 -94.5t-194.5 -14.5t-193 77.5
q-64 46 -117.5 118t-89.5 171.5t-52 227t-5 284.5l100 -7q-10 -142 3 -256.5t43.5 -203t76 -151t99.5 -101.5q75 -51 154.5 -61t153.5 14t138.5 78.5t109.5 132.5q50 85 76 198t17.5 253t-57 305.5t-147.5 354.5zM411 1229q0 29 20.5 49t48.5 20q29 0 49 -20t20 -49t-20 -49
t-49 -20q-28 0 -48.5 20t-20.5 49z" />
    <glyph glyph-name="nooninitial" unicode="&#x646;" horiz-adv-x="558" arabic-form="initial" 
d="M-6 280h174q75 0 121.5 32t70.5 86t28.5 124.5t-2.5 147.5q-9 85 -28.5 173t-42 166t-44.5 141t-35 99l94 34q14 -37 36.5 -102t46 -146.5t43.5 -173t29 -181.5q10 -99 2 -189.5t-43 -159.5t-101.5 -110t-174.5 -41h-174v100zM140 1537q0 29 20.5 49t48.5 20q29 0 49 -20
t20 -49t-20 -49t-49 -20q-28 0 -48.5 20t-20.5 49z" />
    <glyph glyph-name="noonmedial" unicode="&#x646;" horiz-adv-x="526" arabic-form="medial" 
d="M313 1181v-529q0 -93 17.5 -163.5t47.5 -118.5q26 -43 60.5 -65.5t73.5 -24.5h19v-100h-22q-66 2 -121 37t-96 100q-8 13 -15 27t-14 30q-7 -16 -14 -30t-15 -27q-41 -65 -96 -100t-121 -37h-21v100h18q80 3 135 90q29 48 46.5 118.5t17.5 162.5v530h100zM192 1458
q0 29 20.5 49t48.5 20q29 0 49 -20t20 -49t-20 -49t-49 -20q-28 0 -48.5 20t-20.5 49z" />
    <glyph glyph-name="hehisolated" unicode="&#x647;" horiz-adv-x="860" arabic-form="isolated" 
d="M732 1185q34 -52 47.5 -123.5t10 -153t-21.5 -168t-48 -168.5q-30 -84 -70.5 -159.5t-87.5 -133t-98 -92t-102 -35.5q-59 -2 -113 44t-97.5 154t-72.5 284t-37 435v28l23 16q138 91 245.5 133.5t189.5 47t139 -25t93 -83.5zM648 1130q-24 36 -65 53t-102.5 9.5t-145 -43
t-192.5 -105.5q8 -223 28.5 -375t49.5 -245t64.5 -133.5t73.5 -38.5q35 1 71.5 30t71.5 77t66.5 112t57.5 135q26 73 43 148t21.5 145t-5.5 129.5t-37 101.5z" />
    <glyph glyph-name="hehfinal" unicode="&#x647;" horiz-adv-x="1168" arabic-form="final" 
d="M864 343q-27 -94 -76.5 -134t-113.5 -37q-55 3 -116.5 39t-123.5 95.5t-121.5 137t-110.5 162.5t-90 174t-59 170t-19 149t31 112q26 39 72 57.5t115.5 9.5t163.5 -47.5t217 -113.5l-38 143l97 25q40 -152 67.5 -257t45 -173.5t27.5 -106t15 -56t6 -22.5t1 -6
q10 -39 22 -82.5t28 -86t36 -81.5t47 -69t60.5 -47.5t75.5 -17.5h50v-100h-50q-47 0 -85.5 12.5t-70 34t-57 51.5t-46.5 65zM668 976q-122 81 -212 128.5t-153 67t-101 14t-54 -29.5q-21 -31 -18.5 -85t23 -120.5t55.5 -142t80 -150.5q45 -76 96 -145t103 -122t101.5 -85
t90.5 -34q22 -1 40.5 12t33 43t24 77.5t13.5 115.5q-9 31 -17 61t-16 58l-88 338z" />
    <glyph glyph-name="hehinitial" unicode="&#x647;" horiz-adv-x="1220" arabic-form="initial" 
d="M-6 280h174q38 1 71 5t64 11q-46 38 -84.5 84t-66 97.5t-42.5 108t-14 116.5q0 61 15 121.5t44 112.5t72.5 92.5t101.5 62.5q23 125 65.5 196.5t97.5 100.5q49 22 97 19.5t92.5 -22.5t85.5 -53t77 -71q45 -48 88 -109t80 -129t67 -141t50 -146.5t28 -144.5t1 -135
q-10 -92 -48 -157.5t-95.5 -106t-131 -57.5t-154.5 -12t-164 31.5t-156 68.5q-51 -20 -110.5 -30.5t-128.5 -12.5h-176v100zM748 692q-3 -62 -18 -121t-43.5 -112t-69.5 -99t-96 -82q107 -47 214 -55q61 -3 116.5 8t98.5 40t71.5 77t36.5 119q9 85 -11 184.5t-60.5 197.5
t-96.5 187.5t-118 155.5q-27 27 -54 51t-55.5 40.5t-59.5 21.5t-65 -6q-32 -17 -59 -63t-45 -129q77 -2 137 -40.5t100.5 -98t60 -132.5t16.5 -144zM418 335q113 57 168.5 151t61.5 209q4 55 -11.5 113.5t-48.5 105t-81.5 73.5t-109.5 19q-51 -10 -88.5 -40t-62.5 -72
t-37.5 -92t-12.5 -100q0 -57 16 -109t45.5 -98.5t70.5 -87t90 -72.5z" />
    <glyph glyph-name="hehmedial" unicode="&#x647;" horiz-adv-x="1209" arabic-form="medial" 
d="M1217 180h-227q-157 0 -296.5 10.5t-254.5 48.5q-57 -26 -126.5 -41.5t-153.5 -17.5h-167v100h166q42 1 79.5 6t71.5 13q-81 51 -137 131t-81 201q-10 50 -10 100q0 61 16 118.5t46.5 105.5t75.5 84t102 55q36 139 96.5 215t134.5 99q69 23 141.5 3t140.5 -73
q63 -49 118 -121.5t94 -163.5q37 -85 57 -181.5t15.5 -197t-37.5 -201t-101 -193.5h237v-100zM556 311q66 -14 140.5 -20.5t155.5 -8.5q77 85 116 179.5t47.5 190t-8.5 188.5t-53 174q-34 78 -80.5 140.5t-100.5 104.5q-48 38 -97 53t-94 1q-46 -14 -85.5 -64t-67.5 -142
q51 -3 94.5 -21.5t79 -49t62.5 -71t44 -88.5q31 -87 29 -185q-2 -48 -12 -96.5t-30 -95.5q-23 -53 -57.5 -100.5t-82.5 -88.5zM189 651q26 -121 88.5 -193t155.5 -110q63 36 105 85t66 106q16 38 24 77.5t10 78.5q2 79 -23 148q-14 41 -38.5 74.5t-56.5 55t-70 30.5t-80 0
q-46 -11 -81.5 -37t-59.5 -62.5t-36 -80.5t-12 -92q0 -37 8 -80z" />
    <glyph glyph-name="wawisolated" unicode="&#x648;" horiz-adv-x="860" arabic-form="isolated" 
d="M428 1290q102 -5 173 -54.5t116.5 -127.5t67 -175.5t23.5 -197.5q0 -101 -6.5 -198t-23 -187t-44 -171.5t-69.5 -151.5q-43 -72 -102 -130t-137 -98.5t-176.5 -62.5t-219.5 -22v101q106 0 191.5 18.5t153 53t118 83t86.5 109.5q52 88 81 200q-44 -48 -100 -75t-125 -29
q-74 -3 -132.5 24.5t-103.5 75.5t-76.5 112.5t-49.5 135t-23.5 142.5t1.5 135q4 82 28.5 169t71 158.5t115.5 117t162 45.5zM433 1190q-48 0 -86.5 -17.5t-69.5 -48t-54 -70t-38 -84t-23.5 -90t-10.5 -87.5q-6 -48 -2.5 -105t16 -115t34.5 -112t54.5 -95.5t76 -66.5
t98.5 -24q67 0 118 36.5t86 97.5q37 65 56 147t20 170q-1 52 -7 105.5t-19 104.5t-34 96t-51 79.5t-71 55.5t-93 23z" />
    <glyph glyph-name="wawfinal" unicode="&#x648;" arabic-form="final" 
d="M434 1290q98 0 170 -50.5t120 -133.5q45 -77 67 -173t23 -198q0 -121 -9.5 -236t-34.5 -219h127v-100h-156q-29 -83 -70 -153q-43 -72 -102 -130t-137 -98.5t-176.5 -62.5t-219.5 -22v101q106 0 191.5 18.5t153 53t118 83t86.5 109.5q14 23 26 48.5t23 52.5
q-89 2 -160.5 15.5t-128.5 36t-100.5 53t-75.5 68.5q-34 39 -56.5 84t-35.5 93.5t-18 99.5t-5 102q0 102 22 199.5t67 174.5q48 83 120.5 133.5t170.5 50.5zM434 1190q-68 0 -118.5 -37t-85.5 -97q-38 -66 -57 -150t-19 -174q0 -44 4 -86.5t14.5 -82.5t27.5 -76.5t44 -67.5
t65 -56.5t89.5 -44t117.5 -28.5t149 -10q28 101 38.5 215t10.5 237q0 90 -19 174t-57 150q-35 60 -86 97t-118 37z" />
    <glyph glyph-name="alefmaksuraisolated" unicode="&#x649;" horiz-adv-x="1215" arabic-form="isolated" 
d="M949 1190q-146 0 -243.5 -22.5t-156.5 -60.5q-36 -23 -57 -51t-29 -59q-15 -63 16 -139q29 -69 89.5 -137t144.5 -125q68 -45 145.5 -105.5t145.5 -134.5q36 -38 66 -79.5t52.5 -86.5t36 -92.5t14.5 -98.5q0 -50 -13.5 -92.5t-37.5 -79t-58 -66.5t-75 -54
q-77 -45 -174 -67t-199 -22q-133 0 -229 27t-161.5 75t-103.5 115t-55 147q-16 75 -15 158t13.5 170t33 175t43.5 172l97 -27q-22 -80 -41.5 -162.5t-31.5 -163.5t-13.5 -157.5t12.5 -143.5q13 -62 44 -114.5t84.5 -90.5t133 -59t189.5 -21q89 0 173 19t150 57
q61 35 97.5 85.5t36.5 117.5q-2 80 -42 153t-100 139q-63 68 -136.5 124.5t-136.5 99.5q-97 65 -167 144.5t-104 162.5q-21 52 -27 103t6 99q12 49 43 91.5t85 77.5q70 46 182 72.5t273 26.5v-100z" />
    <glyph glyph-name="alefmaksurafinal" unicode="&#x649;" horiz-adv-x="1225" arabic-form="final" 
d="M615 378q102 -1 199 -22.5t174 -66.5q4 -2 7 -4.5t7 -4.5h229v-100h-118q28 -38 43.5 -83t15.5 -99q0 -49 -13.5 -91.5t-37.5 -79t-58 -66.5t-75 -54q-77 -45 -174 -67t-199 -22q-133 0 -229 27t-161.5 75t-103.5 115t-55 147q-16 75 -15 158t13.5 170t33 175t43.5 172
l97 -27q-22 -80 -41.5 -162.5t-31.5 -163.5t-13.5 -157.5t12.5 -143.5q13 -62 44 -114.5t84.5 -90.5t133 -59t189.5 -21q89 0 173 19t150 57q61 35 97.5 85.5t36.5 118.5q0 67 -36.5 118t-97.5 86q-66 38 -150 56.5t-173 18.5v101z" />
    <glyph glyph-name="yehisolated" unicode="&#x64a;" horiz-adv-x="1215" arabic-form="isolated" 
d="M949 1190q-146 0 -243.5 -22.5t-156.5 -60.5q-36 -23 -57 -51t-29 -59q-15 -63 16 -139q29 -69 89.5 -137t144.5 -125q68 -45 145.5 -105.5t145.5 -134.5q36 -38 66 -79.5t52.5 -86.5t36 -92.5t14.5 -98.5q0 -50 -13.5 -92.5t-37.5 -79t-58 -66.5t-75 -54
q-77 -45 -174 -67t-199 -22q-133 0 -229 27t-161.5 75t-103.5 115t-55 147q-16 75 -15 158t13.5 170t33 175t43.5 172l97 -27q-22 -80 -41.5 -162.5t-31.5 -163.5t-13.5 -157.5t12.5 -143.5q13 -62 44 -114.5t84.5 -90.5t133 -59t189.5 -21q89 0 173 19t150 57
q61 35 97.5 85.5t36.5 117.5q-2 80 -42 153t-100 139q-63 68 -136.5 124.5t-136.5 99.5q-97 65 -167 144.5t-104 162.5q-21 52 -27 103t6 99q12 49 43 91.5t85 77.5q70 46 182 72.5t273 26.5v-100zM619 -637q0 29 20.5 49t48.5 20q29 0 49 -20t20 -49t-20 -49t-49 -20
q-28 0 -48.5 20t-20.5 49zM439 -637q0 29 20.5 49t48.5 20q29 0 49 -20t20 -49t-20 -49t-49 -20q-28 0 -48.5 20t-20.5 49z" />
    <glyph glyph-name="yehfinal" unicode="&#x64a;" horiz-adv-x="1225" arabic-form="final" 
d="M615 378q102 -1 199 -22.5t174 -66.5q4 -2 7 -4.5t7 -4.5h229v-100h-118q28 -38 43.5 -83t15.5 -99q0 -49 -13.5 -91.5t-37.5 -79t-58 -66.5t-75 -54q-77 -45 -174 -67t-199 -22q-133 0 -229 27t-161.5 75t-103.5 115t-55 147q-16 75 -15 158t13.5 170t33 175t43.5 172
l97 -27q-22 -80 -41.5 -162.5t-31.5 -163.5t-13.5 -157.5t12.5 -143.5q13 -62 44 -114.5t84.5 -90.5t133 -59t189.5 -21q89 0 173 19t150 57q61 35 97.5 85.5t36.5 118.5q0 67 -36.5 118t-97.5 86q-66 38 -150 56.5t-173 18.5v101zM619 -637q0 29 20.5 49t48.5 20
q29 0 49 -20t20 -49t-20 -49t-49 -20q-28 0 -48.5 20t-20.5 49zM439 -637q0 29 20.5 49t48.5 20q29 0 49 -20t20 -49t-20 -49t-49 -20q-28 0 -48.5 20t-20.5 49z" />
    <glyph glyph-name="yehinitial" unicode="&#x64a;" horiz-adv-x="558" arabic-form="initial" 
d="M-6 280h174q75 0 121.5 32t70.5 86t28.5 124.5t-2.5 147.5q-9 85 -28.5 173t-42 166t-44.5 141t-35 99l94 34q14 -37 36.5 -102t46 -146.5t43.5 -173t29 -181.5q10 -99 2 -189.5t-43 -159.5t-101.5 -110t-174.5 -41h-174v100zM280 -142q0 29 20.5 49t48.5 20q29 0 49 -20
t20 -49t-20 -49t-49 -20q-28 0 -48.5 20t-20.5 49zM100 -142q0 29 20.5 49t48.5 20q29 0 49 -20t20 -49t-20 -49t-49 -20q-28 0 -48.5 20t-20.5 49z" />
    <glyph glyph-name="yehmedial" unicode="&#x64a;" horiz-adv-x="526" arabic-form="medial" 
d="M313 1181v-529q0 -93 17.5 -163.5t47.5 -118.5q26 -43 60.5 -65.5t73.5 -24.5h19v-100h-22q-66 2 -121 37t-96 100q-8 13 -15 27t-14 30q-7 -16 -14 -30t-15 -27q-41 -65 -96 -100t-121 -37h-21v100h18q80 3 135 90q29 48 46.5 118.5t17.5 162.5v530h100zM280 -142
q0 29 20.5 49t48.5 20q29 0 49 -20t20 -49t-20 -49t-49 -20q-28 0 -48.5 20t-20.5 49zM100 -142q0 29 20.5 49t48.5 20q29 0 49 -20t20 -49t-20 -49t-49 -20q-28 0 -48.5 20t-20.5 49z" />
    <glyph glyph-name=".null" horiz-adv-x="0" 
 />
    <glyph glyph-name="nonmarkingreturn" horiz-adv-x="682" 
 />
    <glyph glyph-name="space" unicode=" " horiz-adv-x="435" 
 />
    <glyph glyph-name="exclam" unicode="!" horiz-adv-x="709" 
d="M354 1801l99 -1042q0 -103 -20 -185t-55 -141l-84 52q27 48 43 116.5t16 157.5l-99 1042h100zM264 240q0 29 20.5 49t48.5 20q29 0 49 -20t20 -49t-20 -49t-49 -20q-28 0 -48.5 20t-20.5 49z" />
    <glyph glyph-name="quotedbl" unicode="&#x22;" horiz-adv-x="603" 
d="M424 1801l35 -375l-92 -84l-43 459h100zM225 1801l35 -375l-92 -84l-43 459h100z" />
    <glyph glyph-name="numbersign" unicode="#" horiz-adv-x="1370" 
d="M793 1418l-143 -400h243q35 99 73.5 200.5t73.5 199.5h126l-142 -400h266q-11 -29 -20 -56.5t-18 -54.5h-268l-89 -249h285q-10 -28 -19.5 -56.5t-19.5 -55.5h-283q-35 -99 -72.5 -200t-72.5 -199h-127l143 399h-245q-35 -99 -72.5 -200t-72.5 -199h-127l141 399h-274
q11 32 21 57t21 55h273l87 249h-290q10 29 19 56.5t19 54.5h292q35 99 72.5 200.5t72.5 199.5h127zM858 907h-248l-89 -251h249z" />
    <glyph glyph-name="dollar" unicode="$" horiz-adv-x="1020" 
d="M472 -47v171q-415 32 -415 410v12h147v-6q0 -131 70 -204.5t198 -81.5v503q-388 63 -388 354q0 156 102 254q101 97 286 106v130h80v-129q183 -15 280 -102t102 -236h-148q-27 197 -234 207v-448q118 -27 200 -60.5t128 -76.5q89 -83 89 -243q0 -166 -107.5 -266
t-309.5 -121v-173h-80zM552 247q126 11 193.5 74.5t67.5 170.5q0 48 -15 85.5t-46.5 67.5t-81 52t-118.5 39v-489zM472 1342q-116 0 -176 -59q-64 -59 -64 -158q0 -92 58 -146.5t182 -74.5v438z" />
    <glyph glyph-name="percent" unicode="%" horiz-adv-x="709" 
d="M167 151l-112 -99l476 1741l126 115zM83 1392q0 29 20.5 49t48.5 20q29 0 49 -20t20 -49t-20 -49t-49 -20q-28 0 -48.5 20t-20.5 49zM532 516q0 29 20.5 49t48.5 20q29 0 49 -20t20 -49t-20 -49t-49 -20q-28 0 -48.5 20t-20.5 49z" />
    <glyph glyph-name="ampersand" unicode="&#x26;" horiz-adv-x="1294" 
d="M421 954q-79 85 -116 159.5t-37 152.5q0 132 90 218q92 86 234 86q151 0 238 -78q88 -79 88 -210q0 -109 -64.5 -197.5t-201.5 -169.5l276 -337q27 49 42.5 108t21.5 131h147q-2 -100 -28.5 -188.5t-80.5 -170.5q63 -75 127 -152t127 -153h-210l-141 174
q-174 -207 -429 -207q-183 0 -296 110q-113 113 -113 285q0 63 20 120.5t55 107.5q74 100 249 197zM509 844q-69 -39 -117 -77t-77 -74q-57 -75 -57 -167q0 -114 75 -187q77 -74 193 -74q178 0 324 169zM578 1002q103 63 150.5 129t47.5 143q0 78 -48 125q-49 49 -127 49
q-88 0 -136.5 -47t-48.5 -129q0 -59 35.5 -124t115.5 -145z" />
    <glyph glyph-name="quotesingle" unicode="'" horiz-adv-x="396" 
d="M225 1801l35 -375l-92 -84l-43 459h100z" />
    <glyph glyph-name="parenleft" unicode="(" horiz-adv-x="569" 
d="M484 1489q-114 -177 -170.5 -363.5t-56.5 -384.5q0 -400 227 -752l-136 -44q-132 201 -195 404t-63 392q0 93 15.5 193.5t47.5 204t80.5 208t114.5 203.5z" />
    <glyph glyph-name="parenright" unicode=")" horiz-adv-x="569" 
d="M226 1550q66 -99 114.5 -203.5t80.5 -208t48 -204t16 -193.5q0 -189 -63.5 -392t-195.5 -404l-136 44q228 353 228 752q0 395 -228 748z" />
    <glyph glyph-name="asterisk" unicode="*" 
d="M444 996q-38 -55 -78 -113.5t-78 -113.5q-28 20 -54 36.5t-53 35.5l176 220q-60 17 -127.5 34.5t-127.5 34.5q11 31 20.5 62t18.5 61l244 -84v263h119v-263q57 20 121 42t122 42q11 -32 21.5 -61.5t22.5 -61.5l-260 -69q42 -52 88.5 -109t89.5 -109q-28 -20 -53 -39.5
t-52 -39.5z" />
    <glyph glyph-name="plus" unicode="+" horiz-adv-x="1484" 
d="M796 1210v-478h465v-104h-465v-478h-108v478h-465v104h465v478h108z" />
    <glyph glyph-name="comma" unicode="," horiz-adv-x="488" 
d="M163 150v177h162v-201q0 -95 -42 -156.5t-120 -83.5v71q42 12 65 52t23 104v37h-88z" />
    <glyph glyph-name="hyphenminus" unicode="-" horiz-adv-x="810" 
d="M91 623l47 145l578 -3l-47 -144z" />
    <glyph glyph-name="period" unicode="." horiz-adv-x="505" 
d="M176 240q0 29 20.5 49t48.5 20q29 0 49 -20t20 -49t-20 -49t-49 -20q-28 0 -48.5 20t-20.5 49z" />
    <glyph glyph-name="slash" unicode="/" horiz-adv-x="709" 
d="M167 151l-112 -99l476 1741l126 115z" />
    <glyph glyph-name="zero" unicode="0" horiz-adv-x="1019" 
d="M72 714q0 309 122 483q115 170 315 170q199 0 315 -168q122 -175 122 -485q0 -154 -31 -276.5t-91 -210.5v1q-58 -81 -138 -125t-177 -44q-198 0 -315 170q-62 87 -92 209t-30 276zM295 714q0 -254 53 -375t161 -121t162 122.5t54 373.5t-54 374t-162 123t-161 -121
t-53 -376z" />
    <glyph glyph-name="one" unicode="1" horiz-adv-x="1019" 
d="M494 84v1066q-59 -40 -126 -87t-127 -89q-17 39 -30 69.5t-28 68.5q72 60 139.5 117t139.5 117h241v-1262h-209z" />
    <glyph glyph-name="two" unicode="2" horiz-adv-x="1019" 
d="M921 84h-767l-61 187q38 40 91 88t110.5 102t115.5 113.5t107 121.5t84.5 126.5t48.5 128.5q12 61 -5.5 106.5t-53 75.5t-84 45t-99.5 15q-60 0 -122.5 -19.5t-118.5 -57.5q-18 40 -31.5 72.5t-31.5 71.5q91 57 182.5 83.5t190.5 26.5q91 0 165 -31t127 -83t82 -121
t29 -144q0 -70 -25 -136q-20 -54 -54.5 -108t-78.5 -107.5t-95 -104.5t-103.5 -98.5t-104 -91t-95.5 -80.5h597v-181z" />
    <glyph glyph-name="three" unicode="3" horiz-adv-x="1019" 
d="M160 1319q35 16 95.5 32t131 21.5t144.5 -4t137.5 -42.5t108 -94.5t56.5 -160.5q5 -43 -11.5 -86t-52 -83.5t-89 -76.5t-120.5 -66q310 -121 310 -351q0 -103 -42.5 -174.5t-110.5 -115.5t-152.5 -62.5t-168.5 -15.5t-159 26t-124 61q11 35 20 63t20 62q95 -44 187 -51
t164.5 16.5t117 73t44.5 117.5q0 43 -23.5 86.5t-70.5 79t-118 59t-165 27.5q-2 35 -4 65t-4 64q51 8 111 26t112.5 48.5t88 73.5t37.5 101q1 52 -19 88.5t-55 59.5t-79.5 33.5t-91.5 10.5t-93 -10t-82 -27q-14 35 -25 64t-25 62z" />
    <glyph glyph-name="four" unicode="4" horiz-adv-x="1019" 
d="M604 84v302h-558v198q158 197 312.5 389.5t312.5 388.5h129v-787h128v-189h-128v-302h-196zM605 575l5 470l-368 -470h363z" />
    <glyph glyph-name="five" unicode="5" horiz-adv-x="1019" 
d="M422 59q-75 0 -141 9.5t-121 27.5l39 132q40 -13 79.5 -18t78.5 -5q96 0 162 22t107 58t59 82.5t18 96.5q-1 85 -38.5 134t-101 73t-148.5 30t-180 6h-35q0 163 -1 319t-1 320h635v-172h-462v-285q127 0 227 -29t169.5 -84t106.5 -133.5t37 -178.5q-6 -95 -48 -170
t-109 -127.5t-153 -80t-179 -27.5z" />
    <glyph glyph-name="six" unicode="6" horiz-adv-x="1019" 
d="M101 513q0 113 36 230.5t102.5 228t161.5 209t212 173.5q9 -12 22.5 -29l27 -34t25 -31.5t16.5 -20.5q-118 -80 -204 -181.5t-137 -223.5q50 21 93 31t78 10q72 0 142 -26t125.5 -77t90 -125.5t34.5 -171.5q0 -91 -30.5 -167t-85 -131t-130.5 -85.5t-166 -30.5
q-100 0 -177 33.5t-129.5 93.5t-79.5 143t-27 182zM540 237q53 0 94 22.5t68 56.5t40 74t10 74q-5 53 -31 96t-65 74t-87.5 47.5t-99.5 16.5q-41 0 -82 -12.5t-79 -39.5q-8 -28 -11.5 -56.5t-3.5 -56.5q0 -59 16 -112.5t47.5 -94.5t77.5 -65t106 -24z" />
    <glyph glyph-name="seven" unicode="7" horiz-adv-x="1019" 
d="M269 123l400 1057h-571v166h781q-2 -49 -4 -89.5t-4 -90.5q-107 -281 -212.5 -555.5t-211.5 -554.5z" />
    <glyph glyph-name="eight" unicode="8" horiz-adv-x="1019" 
d="M509 1367q82 0 149 -29.5t114.5 -77.5t73.5 -109t26 -124q0 -38 -12.5 -76t-38.5 -73.5t-66.5 -67t-95.5 -56.5q140 -62 209 -146.5t69 -188.5q0 -38 -9 -74.5t-24.5 -70.5t-36 -63.5t-43.5 -53.5q-59 -46 -138 -72t-177 -26q-100 0 -179 25.5t-137 73.5v-1
q-54 48 -83 115t-29 147q0 51 18 98t50 88t76.5 74.5t97.5 57.5q-50 30 -86.5 65t-60.5 74t-36 79.5t-12 81.5q0 63 25 122.5t73.5 106t119.5 74.5t163 27zM502 638q-54 0 -94.5 -19.5t-68 -50t-41 -70t-13.5 -79.5q0 -39 12.5 -76t37 -65.5t61 -47t85.5 -19.5
q55 -2 100.5 8.5t77 36t49 69t17.5 108.5q0 9 -3 28t-11.5 41.5t-23.5 46.5t-40 44t-60.5 32.5t-84.5 12.5zM309 1023q0 -27 12 -53.5t30.5 -50.5t42.5 -44t48 -33t46 -18.5t38 -0.5q27 10 56 27t53 41.5t39.5 56t15.5 70.5q0 42 -22 89q-28 46 -77 70t-100 24
q-35 0 -67.5 -11t-58 -33t-41 -55.5t-15.5 -78.5z" />
    <glyph glyph-name="nine" unicode="9" horiz-adv-x="1019" 
d="M937 909q0 -113 -36 -230.5t-103 -228.5t-162 -209.5t-212 -173.5q-8 10 -21.5 27.5l-27 35t-25.5 32.5t-17 21q119 81 205 181.5t137 221.5q-100 -41 -171 -41q-72 0 -142 26t-125.5 77t-90 126t-34.5 172q0 91 30.5 167t85 131t130 85.5t165.5 30.5q100 0 177.5 -33.5
t130 -93t79.5 -142.5t27 -182zM497 1185q-52 0 -92 -23t-67 -57t-40.5 -74t-11.5 -74q6 -51 32 -94t65 -74t87 -48.5t98 -17.5q42 0 82.5 12.5t78.5 39.5q15 57 15 113q0 59 -16 112.5t-47.5 94.5t-77.5 65.5t-106 24.5z" />
    <glyph glyph-name="colon" unicode=":" horiz-adv-x="505" 
d="M176 666q0 29 20.5 49t48.5 20q29 0 49 -20t20 -49t-20 -49t-49 -20q-28 0 -48.5 20t-20.5 49zM176 987q0 29 20.5 49t48.5 20q29 0 49 -20t20 -49t-20 -49t-49 -20q-28 0 -48.5 20t-20.5 49z" />
    <glyph glyph-name="semicolon" unicode=";" horiz-adv-x="529" 
d="M183 150v177h164v-201q0 -93 -43 -155t-121 -85v71q42 12 65.5 52.5t23.5 103.5v37h-89zM183 900v177h164v-177h-164z" />
    <glyph glyph-name="less" unicode="&#x3c;" horiz-adv-x="1484" 
d="M1253 1034l-869 -355q214 -86 434.5 -176t434.5 -176v-117q-259 106 -511 209.5t-511 210.5v101q258 106 511 210t511 209v-116z" />
    <glyph glyph-name="equal" unicode="=" horiz-adv-x="1484" 
d="M1261 908v-106h-1038v106h1038zM1261 557v-105h-1038v105h1038z" />
    <glyph glyph-name="greater" unicode="&#x3e;" horiz-adv-x="1484" 
d="M1253 731v-101q-258 -107 -511 -210.5t-511 -209.5v117l871 352q-213 88 -435.5 177.5t-435.5 177.5v116z" />
    <glyph glyph-name="question" unicode="?" horiz-adv-x="959" 
d="M390 524v7q0 5 -1 7q0 6 -0.5 10.5t-0.5 7.5q0 51 8.5 97t24.5 84q18 38 47.5 79.5t67.5 79.5q17 17 36.5 37t36.5 37q55 55 82.5 113.5t27.5 124.5q0 99 -65 160q-66 61 -169 61q-128 0 -193.5 -77t-73.5 -230h-151v16q0 203 111 314q112 112 314 112q178 0 285 -99
q107 -96 107 -257q0 -88 -35 -164t-104 -141l-79 -76q-38 -36 -62.5 -68t-38.5 -59q-25 -56 -25 -136v-24t1 -15zM385 150v190h170v-190h-170z" />
    <glyph glyph-name="at" unicode="@" horiz-adv-x="1782" 
d="M1176 987h99l-126 -498q-3 -14 -5 -27.5t-2 -25.5q0 -45 25 -68.5t73 -23.5q45 0 94 24t96 69q72 69 112.5 167t40.5 210q0 233 -173 377q-170 144 -445 144q-119 0 -219 -25t-188 -77q-172 -103 -266 -268q-93 -164 -93 -365q0 -155 58 -274.5t170 -207.5
q44 -34 97.5 -60.5t113.5 -45t125 -28t131 -9.5q149 0 288.5 42t257.5 123q10 -15 19.5 -30t19.5 -29q-129 -97 -271.5 -143t-302.5 -46q-165 0 -303.5 41.5t-245.5 120.5q-128 103 -197 241t-69 307q0 143 46 272.5t131 235.5q64 72 142.5 130t168.5 99t189.5 63.5
t204.5 22.5q143 0 270.5 -38.5t220.5 -110.5q114 -88 172.5 -200.5t58.5 -246.5q0 -149 -57.5 -272t-158.5 -207q-57 -44 -129 -70t-144 -26q-168 0 -168 129v49q-56 -91 -122.5 -134t-151.5 -43q-132 0 -200 72t-68 212q0 204 120 342q119 137 292 137q143 0 214 -142z
M1098 769q-16 81 -63.5 126t-120.5 45q-126 0 -211 -118q-43 -60 -63.5 -131t-20.5 -156q0 -97 44.5 -149.5t127.5 -52.5q89 0 160 63q34 32 58 73.5t37 89.5z" />
    <glyph glyph-name="A" unicode="A" horiz-adv-x="1188" 
d="M522 1450h181q118 -326 234 -649t233 -649h-181l-131 391h-518q-35 -97 -71.5 -195.5t-71.5 -195.5h-175zM606 1287l-215 -612h417z" />
    <glyph glyph-name="B" unicode="B" horiz-adv-x="1188" 
d="M134 1449h562q84 0 152 -25t116 -70q42 -44 66 -102.5t24 -125.5q0 -74 -32 -140v1q-42 -83 -154 -138q60 -23 100.5 -46t63.5 -46q83 -83 83 -227q0 -162 -109 -267q-119 -113 -323 -113h-549v1299zM291 285h383q141 0 212 65.5t71 183.5q0 129 -101 188q-77 42 -211 42
h-354v-479zM291 892h326q135 0 203 48q76 53 76 173q0 100 -65.5 151t-211.5 51h-328v-423z" />
    <glyph glyph-name="C" unicode="C" horiz-adv-x="1286" 
d="M1041 1057q-8 33 -16.5 58.5t-17.5 42.5v-1q-10 20 -25 38.5t-35 37.5q-100 95 -273 95q-203 0 -320 -141q-113 -137 -113 -391q0 -239 110 -381q111 -140 307 -140q79 0 142.5 23.5t114.5 68.5q102 93 126 255h169q-13 -78 -42 -152t-67 -129q-78 -102 -189 -158
t-249 -56q-276 0 -437 175q-159 177 -159 484q0 182 52 318t152 227q45 38 92 67t89 46q45 16 99 24.5t117 8.5q230 0 379 -117q72 -57 112.5 -131t50.5 -172h-169z" />
    <glyph glyph-name="D" unicode="D" horiz-adv-x="1286" 
d="M157 1450h436q166 0 249 -18q40 -10 80 -28.5t75 -44.5q110 -85 168 -221.5t58 -321.5q0 -221 -85 -388q-20 -39 -45.5 -74t-55 -64.5t-61.5 -53.5t-65 -40q-26 -10 -57.5 -19t-65.5 -15h1q-35 -5 -80 -7.5t-99 -2.5h-453v1298zM323 1303v-1003h275q94 0 161.5 15.5
t112.5 44.5q179 122 179 459q0 83 -14.5 154.5t-42.5 129t-69.5 99.5t-94.5 66q-73 35 -238 35h-269z" />
    <glyph glyph-name="E" unicode="E" horiz-adv-x="1188" 
d="M158 1450h931v-147h-765v-405h708v-148h-708v-450h776v-148h-942v1298z" />
    <glyph glyph-name="F" unicode="F" horiz-adv-x="1188" 
d="M159 1450h930v-147h-765v-405h709v-148h-709v-441q0 -40 -0.5 -78.5t-0.5 -78.5h-164v1298z" />
    <glyph glyph-name="G" unicode="G" horiz-adv-x="1386" 
d="M1047 1061q-8 29 -18.5 56t-19.5 44t-24 36.5t-32 37.5q-95 93 -272 93q-210 0 -327 -141q-57 -69 -86.5 -166.5t-29.5 -224.5q0 -241 117 -382q118 -139 324 -139q106 0 188.5 39.5t139.5 116.5q19 26 35 56.5t25 56.5q19 56 19 166h-411v133h557v-683h-99l-46 171
q-103 -116 -195 -161q-93 -43 -227 -43q-273 0 -436 180q-162 181 -162 484q0 155 43.5 281.5t122.5 218.5q85 89 198.5 137.5t253.5 48.5q270 0 408 -157q55 -61 78 -116q13 -26 24.5 -62t20.5 -81h-169z" />
    <glyph glyph-name="H" unicode="H" horiz-adv-x="1286" 
d="M158 1450h166v-539h641v539h167v-1298h-167v610h-641v-610h-166v1298z" />
    <glyph glyph-name="I" unicode="I" horiz-adv-x="483" 
d="M164 1450h165v-1298h-165v1298z" />
    <glyph glyph-name="J" unicode="J" 
d="M194 574q0 -48 2 -84.5t5 -56.5q8 -48 35 -84q51 -74 156 -74q96 0 149 71q14 16 22 35.5t13 41.5q9 46 9 136v893h167v-893q0 -200 -63 -292q-49 -64 -128 -102t-173 -38t-171 35t-124 97q-17 24 -31 56t-19 61q-6 32 -9.5 80.5t-3.5 117.5h164z" />
    <glyph glyph-name="K" unicode="K" horiz-adv-x="1188" 
d="M158 1452h165v-653q156 160 317.5 326t317.5 327h218l-521 -528q131 -192 262 -385.5t262 -386.5h-198l-437 664l-221 -211v-453h-165v1300z" />
    <glyph glyph-name="L" unicode="L" horiz-adv-x="990" 
d="M159 1450h166v-1150h665v-148h-831v1298z" />
    <glyph glyph-name="M" unicode="M" horiz-adv-x="1466" 
d="M116 152v1297h207l418 -1108q100 273 202.5 553.5t203.5 554.5h207v-1297h-143v1048l-16 3q-97 -263 -192 -525.5t-191 -525.5h-137l-400 1052l-17 -3v-1049h-142z" />
    <glyph glyph-name="N" unicode="N" horiz-adv-x="1286" 
d="M158 1450h191l616 -1058v1058h167v-1298h-192l-602 1042l-14 -3v-1039h-166v1298z" />
    <glyph glyph-name="O" unicode="O" horiz-adv-x="1386" 
d="M66 788q0 157 44 284.5t125 218.5q41 42 92.5 76.5t110.5 58.5t125 37.5t136 13.5q289 0 455 -179q86 -89 128 -209.5t42 -272.5q0 -168 -53.5 -303.5t-156.5 -235.5q-81 -72 -188.5 -111t-235.5 -39q-140 0 -255 46.5t-200 131.5q-81 89 -125 211.5t-44 271.5zM240 793
q0 -241 123 -379q123 -139 336 -139t333 142q120 141 120 397q0 242 -120 377q-120 137 -333 137q-220 0 -340 -140q-60 -69 -89.5 -168t-29.5 -227z" />
    <glyph glyph-name="P" unicode="P" horiz-adv-x="1122" 
d="M140 150v1299h469q58 0 101.5 -3t74.5 -8q59 -12 106 -39q78 -42 118.5 -126t40.5 -196q0 -109 -41 -190.5t-120 -130.5q-42 -28 -108 -40q-32 -5 -82.5 -8t-122.5 -3h-278v-555h-158zM298 846h306q78 0 133.5 13.5t87.5 38.5q65 56 65 179q0 60 -16.5 104t-47.5 71
q-65 53 -209 53h-319v-459z" />
    <glyph glyph-name="Q" unicode="Q" horiz-adv-x="1356" 
d="M1039 211q-81 -43 -165.5 -63.5t-180.5 -20.5q-297 0 -464 176q-168 177 -168 493t168 493q166 177 464 177q295 0 461 -178q168 -175 168 -492q0 -155 -43.5 -279.5t-135.5 -227.5q39 -31 81.5 -64t81.5 -65q-22 -26 -40 -49t-38 -48zM754 436q21 26 39.5 48t39.5 47
l180 -138q68 68 102.5 172.5t34.5 234.5q0 251 -121 391v-1q-120 141 -336 141t-339 -140q-121 -140 -121 -391q0 -125 29.5 -222t91.5 -169q123 -141 339 -141q57 0 109 11t105 37z" />
    <glyph glyph-name="R" unicode="R" horiz-adv-x="1286" 
d="M158 1450h539q122 0 185 -9q32 -5 59.5 -13.5t52.5 -22.5q167 -88 167 -308q0 -56 -11 -101.5t-31 -79.5q-21 -32 -60.5 -62.5t-97.5 -57.5q114 -39 147 -98q15 -30 23.5 -80t8.5 -121v-152q0 -110 50 -192l1 -1h-192q-15 50 -22 95t-7 84v164q0 116 -56 167
q-14 15 -34 25t-43 15t-61 7.5t-90 2.5h-363v-560h-165v1298zM323 1303v-443h354q100 0 139 6q19 3 39.5 11.5t37.5 16.5q45 26 70.5 73.5t25.5 113.5q0 69 -28 120.5t-84 76.5q-51 25 -185 25h-369z" />
    <glyph glyph-name="S" unicode="S" horiz-adv-x="1188" 
d="M82 574h172v-30q0 -35 3.5 -63t11.5 -47q15 -40 57 -74l-1 1q96 -86 284 -86q72 0 132.5 15.5t105.5 43.5q45 30 69 70t24 90q0 56 -33 112q-32 56 -132 91q-102 25 -199.5 49.5t-200.5 49.5h1q-122 45 -182.5 118.5t-60.5 176.5q-5 86 26.5 153.5t85.5 121.5
q61 52 150 81.5t198 29.5q254 0 381 -133q24 -25 40.5 -50.5t26.5 -50.5q20 -51 20 -139q1 -9 2.5 -17.5t2.5 -16.5h-174q0 56 -8 86q-3 15 -10.5 30.5t-16.5 30.5q-17 26 -44.5 46.5t-62.5 34.5q-35 15 -76 22.5t-84 7.5q-60 0 -113.5 -15.5t-92.5 -42.5q-81 -60 -78 -163
q0 -56 33 -94q30 -33 121 -66q105 -27 207 -53t207 -52l-1 1q246 -90 237 -331q0 -80 -31.5 -148t-97.5 -125q-65 -56 -156.5 -84t-222.5 -28q-257 0 -388.5 104.5t-131.5 310.5v32z" />
    <glyph glyph-name="T" unicode="T" horiz-adv-x="1088" 
d="M30 1450h1036v-147h-438v-1151h-164v1151h-434v147z" />
    <glyph glyph-name="U" unicode="U" horiz-adv-x="1286" 
d="M141 1452h167v-812q0 -44 3 -79t10 -64t18.5 -52.5t27.5 -44.5q44 -55 118.5 -90t162.5 -35q178 0 271 125q35 49 48 99q15 51 15 136v817h167v-819q0 -104 -20 -179q-10 -35 -28 -70.5t-41 -69.5q-70 -91 -174.5 -139t-242.5 -48q-69 0 -130.5 13.5t-115.5 37.5
t-98.5 58.5t-78.5 76.5q-29 44 -46 88.5t-25 105.5q-4 31 -6 59.5t-2 54.5v831z" />
    <glyph glyph-name="V" unicode="V" horiz-adv-x="1088" 
d="M461 150q-115 328 -228.5 649.5t-228.5 649.5h165l380 -1120q91 276 184.5 560t184.5 560h166q-113 -327 -225.5 -649.5t-226.5 -649.5h-171z" />
    <glyph glyph-name="W" unicode="W" horiz-adv-x="1682" 
d="M14 1450h177q49 -193 99 -390.5t98 -389.5l50 -267h15q14 66 24 112l15 69v-1q0 2 1 7t2 7q5 21 10 37t11 35q57 196 116 391t117 390h173l232 -781q16 -44 34 -130l32 -136h15q11 70 23 137t29 130v-1q51 196 102 391l102 390h178q-90 -329 -177 -649.5t-177 -648.5
h-170l-312 1092q-75 -268 -153.5 -546t-153.5 -546h-177z" />
    <glyph glyph-name="X" unicode="X" horiz-adv-x="1078" 
d="M9 150l441 665q-104 156 -209.5 316t-208.5 318h196l314 -494q78 121 159 247t159 247h185l-417 -629q109 -167 220.5 -334.5t221.5 -335.5h-197l-340 541q-81 -133 -165 -270.5t-165 -270.5h-194z" />
    <glyph glyph-name="Y" unicode="Y" horiz-adv-x="1188" 
d="M10 1450h207l387 -633q94 155 190.5 316.5t190.5 316.5h198l-499 -787v-511h-168v511z" />
    <glyph glyph-name="Z" unicode="Z" horiz-adv-x="1088" 
d="M44 300l805 1003h-746v147h946v-147l-808 -1003h808v-148h-1005v148z" />
    <glyph glyph-name="bracketleft" unicode="[" horiz-adv-x="631" 
d="M222 -212v1644h335v-106h-193v-1432h193v-106h-335z" />
    <glyph glyph-name="backslash" unicode="\" horiz-adv-x="536" 
d="M438 -18q-109 373 -216 742t-215 741h89q109 -372 217 -741t216 -742h-91z" />
    <glyph glyph-name="bracketright" unicode="]" horiz-adv-x="631" 
d="M409 1432v-1644h-335v106h193v1432h-193v106h335z" />
    <glyph glyph-name="underscore" unicode="_" 
d="M888 -168v-108h-885v108h885z" />
    <glyph glyph-name="grave" unicode="`" 
d="M557 1224h-86q-60 73 -119 145t-119 144h154z" />
    <glyph glyph-name="a" unicode="a" horiz-adv-x="990" 
d="M123 816q0 60 11 96q6 19 16.5 38.5t24.5 39.5q48 66 128.5 99.5t195.5 33.5q230 0 314 -113q45 -59 45 -182v-459q0 -109 67 -109q11 1 20.5 2.5t19.5 2.5v-113q-17 -6 -29.5 -9t-23 -4.5t-20.5 -2t-21 -0.5q-129 0 -148 158q-149 -167 -337 -167q-139 0 -222 74
q-81 76 -81 204q0 177 155 249q25 12 63 23.5t86 21.5t104.5 18.5t119.5 16.5l104 14v54q0 46 -6 73t-23 48q-27 33 -75 51t-112 18q-68 0 -116 -20.5t-75 -57.5q-16 -20 -23 -42.5t-8 -55.5h-154zM713 636q-8 -1 -21.5 -2.5t-22.5 -3.5q-22 -3 -43.5 -6t-40.5 -8
q-28 -4 -60.5 -10.5l-72.5 -14.5q-113 -25 -161 -64q-49 -39 -49 -113q0 -73 48.5 -114t133.5 -41q121 0 204 68q44 35 64.5 75.5t20.5 88.5v145z" />
    <glyph glyph-name="b" unicode="b" horiz-adv-x="1059" 
d="M125 150v1299h139v-512q127 184 320 184q185 0 298 -137q114 -137 114 -368q0 -106 -31 -200.5t-81 -161.5q-56 -66 -130.5 -99.5t-167.5 -33.5q-100 0 -177 40t-145 126v-137h-139zM259 627q0 -183 76 -281.5t216 -98.5q137 0 215 96q80 97 80 263q0 187 -76.5 287.5
t-217.5 100.5q-293 0 -293 -367z" />
    <glyph glyph-name="c" unicode="c" 
d="M893 477q-10 -63 -27.5 -113t-45.5 -90q-56 -75 -135 -112t-179 -37q-102 0 -184 33t-139 93q-55 63 -84.5 154t-29.5 203q0 246 114 381q114 134 320 134q167 0 269 -93q51 -45 80.5 -107t40.5 -142h-154q-48 209 -236 209q-65 0 -116.5 -24t-86.5 -70t-53.5 -111.5
t-18.5 -149.5q0 -183 71 -280.5t206 -97.5q176 0 234 220h154z" />
    <glyph glyph-name="d" unicode="d" horiz-adv-x="990" 
d="M725 1452h148v-1299h-140v139q-86 -104 -145 -135q-60 -30 -144 -30q-172 0 -273 129t-101 354q0 116 26 208.5t80 164.5q105 141 278 141q76 0 132 -27q28 -12 62.5 -40t76.5 -70v465zM483 259q122 0 187 93.5t65 273.5q0 176 -65 270t-187 94q-124 0 -189.5 -93.5
t-65.5 -270.5q0 -180 65.5 -273.5t189.5 -93.5z" />
    <glyph glyph-name="e" unicode="e" horiz-adv-x="990" 
d="M924 580h-698q0 -158 72.5 -239.5t206.5 -81.5q103 0 164 47t84 146h156q-40 -152 -142 -238q-105 -87 -268 -87q-201 0 -315 133q-115 133 -115 366q0 126 39 224t110 164q60 50 135 78.5t159 28.5q105 0 188.5 -40.5t142.5 -113.5q42 -61 62.5 -137t20.5 -183zM775 712
q0 135 -74 205q-74 73 -193 73q-239 0 -277 -278h544z" />
    <glyph glyph-name="f" unicode="f" horiz-adv-x="471" 
d="M161 150v819h-156v108h156v148q0 227 204 227q15 0 39.5 -2t69.5 -9v-125q-41 7 -62 7q-58 0 -85 -35q-23 -32 -23 -123v-88h170v-108h-170v-819h-143z" />
    <glyph glyph-name="g" unicode="g" horiz-adv-x="990" 
d="M725 1097h147v-808q0 -61 -2.5 -109t-7.5 -84q-5 -37 -11.5 -68t-17.5 -58v1q-88 -214 -368 -214q-166 0 -253 66.5t-106 210.5h150q21 -77 66 -110q23 -17 58.5 -26t80.5 -9q90 0 146 35.5t79 101.5q8 22 14 48.5t9 52.5q3 25 5 64t2 90q-35 -41 -67.5 -70.5t-66.5 -48
t-70.5 -27t-77.5 -8.5q-84 0 -151.5 33t-116.5 93q-47 63 -71.5 153t-24.5 201q0 119 25 213.5t73 163.5q49 66 118 102.5t154 36.5q172 0 285 -173v147zM228 626q0 -164 67 -266q67 -101 183 -101q112 0 179 100v-1q66 99 66 268q0 164 -66 263q-68 101 -179 101
q-116 0 -183 -100q-67 -99 -67 -264z" />
    <glyph glyph-name="h" unicode="h" horiz-adv-x="992" 
d="M119 1450h149v-468q36 37 71.5 63.5t71.5 43.5t74.5 25.5t81.5 8.5q177 0 255 -114q27 -39 38.5 -94t11.5 -139v-624h-149v585q0 99 -19 150q-42 103 -172 103q-67 0 -119.5 -27t-90.5 -79q-15 -20 -26.5 -43.5t-16.5 -47.5q-6 -23 -8.5 -58t-2.5 -80v-503h-149v1298z
" />
    <glyph glyph-name="i" unicode="i" horiz-adv-x="395" 
d="M124 1097h148v-945h-148v945zM124 1450h148v-171h-148v171z" />
    <glyph glyph-name="j" unicode="j" horiz-adv-x="395" 
d="M-29 -102q20 -5 33.5 -7t25.5 -2q56 0 76 36q18 31 18 131v1041h149v-1066q0 -112 -28 -174v1q-51 -101 -185 -101h-57q-1 0 -2 0.5t-2 0.5q-9 1 -15.5 2.5t-12.5 2.5v135zM124 1450h149v-171h-149v171z" />
    <glyph glyph-name="k" unicode="k" 
d="M121 1450h149v-757q97 98 202.5 202.5t203.5 201.5h195l-359 -345q92 -149 185 -300t185 -300h-179l-290 497l-143 -135v-362h-149v1298z" />
    <glyph glyph-name="l" unicode="l" horiz-adv-x="395" 
d="M124 1458h148v-1306h-148v1306z" />
    <glyph glyph-name="m" unicode="m" horiz-adv-x="1529" 
d="M1299 150v587q0 150 -41 206q-43 58 -146 58q-121 0 -189 -75t-68 -212v-564h-147v587q0 147 -42 206q-43 58 -144 58q-61 0 -109 -19.5t-81 -56.5t-50.5 -90.5t-17.5 -120.5v-564h-146v951h139v-157q62 94 137.5 138t173.5 44q88 0 151.5 -38t111.5 -121
q66 82 141.5 120.5t171.5 38.5q91 0 158.5 -34t104.5 -94q8 -17 15.5 -40t12.5 -47q5 -26 7.5 -66t2.5 -94v-601h-146z" />
    <glyph glyph-name="n" unicode="n" horiz-adv-x="990" 
d="M119 1097h149v-141q92 106 152 134q32 16 69.5 24.5t84.5 8.5q90 0 154.5 -33.5t104.5 -97.5q17 -32 27 -64t10 -77l2 -94v-605h-149v573q0 138 -35 187q-51 78 -164 78q-74 0 -130 -33.5t-91 -93.5q-14 -25 -23.5 -55.5t-9.5 -68.5l-2 -90v-497h-149v945z" />
    <glyph glyph-name="o" unicode="o" horiz-adv-x="990" 
d="M69 626q0 233 114 364q113 133 314 133q202 0 315 -133q114 -132 114 -364t-114 -367q-111 -132 -315 -132q-202 0 -313 132q-115 131 -115 367zM228 626q0 -173 70 -270q72 -97 199 -97q130 0 199.5 96.5t69.5 275.5q0 85 -18 151.5t-52.5 112.5t-84.5 70.5t-114 24.5
q-65 0 -115 -24.5t-84 -71t-52 -114.5t-18 -154z" />
    <glyph glyph-name="p" unicode="p" horiz-adv-x="1059" 
d="M210 -228h-136v1305h136v-147q64 91 140.5 134.5t174.5 43.5q184 0 295 -132q55 -68 83 -157t28 -203q0 -225 -111 -362q-56 -66 -128.5 -99.5t-166.5 -33.5q-103 0 -183 45t-132 131v-525zM785 628q0 81 -21 146t-58 113q-40 47 -94 71.5t-120 24.5q-136 0 -213 -98
q-36 -48 -55.5 -115.5t-19.5 -154.5q0 -180 73.5 -276.5t208.5 -96.5q143 0 221 100t78 286z" />
    <glyph glyph-name="q" unicode="q" horiz-adv-x="1059" 
d="M795 297q-52 -86 -132.5 -131t-183.5 -45q-183 0 -295 133q-110 132 -110 362q0 228 110 360q111 132 295 132q99 0 175.5 -43.5t140.5 -134.5v147h136v-1305h-136v525zM220 628q0 -186 78 -286t221 -100q135 0 208 96.5t73 276.5q0 87 -19 154.5t-55 115.5
q-77 98 -213 98t-215 -96q-78 -96 -78 -259z" />
    <glyph glyph-name="r" unicode="r" horiz-adv-x="592" 
d="M123 1097h149v-154l15 -4q94 184 229 184h27q6 0 35 -6v-161l-45 4q-140 0 -210 -103q-14 -20 -24 -43t-15 -48q-5 -26 -7.5 -62t-2.5 -82v-470h-151v945z" />
    <glyph glyph-name="s" unicode="s" 
d="M225 450q0 -27 2.5 -45t5.5 -31q4 -15 12.5 -28t20.5 -26q61 -61 182 -61q97 0 157 39q30 21 45.5 47.5t15.5 61.5q0 34 -22 60t-83 53q-76 23 -150 46.5t-150 46.5l1 -1q-163 75 -163 239q0 121 96 195q97 77 255 77q209 0 303 -134v1q11 -18 19.5 -35.5t13.5 -35.5
q10 -29 10 -84h-151q-3 65 -33 95q-64 62 -169 62q-40 0 -73.5 -9.5t-61.5 -26.5q-57 -37 -57 -91q0 -85 88 -119q71 -23 142 -44t142 -44l-1 1q15 -7 33.5 -14.5t33.5 -14.5q6 -2 12 -5.5t13 -8.5v-1q110 -65 110 -187q0 -120 -91 -207q-100 -94 -287 -94
q-182 0 -277.5 82.5t-99.5 240.5h156z" />
    <glyph glyph-name="t" unicode="t" horiz-adv-x="525" 
d="M32 1097h126v237h148v-237h159v-121h-159v-593q0 -74 23 -100q24 -28 91 -28q11 0 23 0.5t22 1.5v-123l-19 -1q-23 -2 -47.5 -3.5t-47.5 -2.5q-144 0 -177 101q-8 22 -12 63t-4 103v582h-126v121z" />
    <glyph glyph-name="u" unicode="u" horiz-adv-x="990" 
d="M119 1097h149v-602q0 -34 2 -60t5 -43q4 -20 10.5 -36t15.5 -30q44 -67 161 -67q129 0 207 106q33 47 43 98q11 53 11 153v481h149v-942h-137v143l-15 3q-89 -174 -299 -174q-163 0 -244 104q-29 42 -43.5 102.5t-14.5 150.5v613z" />
    <glyph glyph-name="v" unicode="v" horiz-adv-x="857" 
d="M359 150q-89 241 -176 475.5t-175 475.5h156l277 -793q66 194 135 396.5t135 396.5h157q-87 -240 -173 -476t-174 -475h-162z" />
    <glyph glyph-name="w" unicode="w" horiz-adv-x="1286" 
d="M17 1097h164q15 -59 32.5 -131t36.5 -146t37 -146l33 -132l40 -191h17q5 30 10 56.5t9 46.5q5 19 9.5 40.5t9.5 47.5v-1q36 140 72.5 278.5t72.5 277.5h170q35 -136 71 -274t71 -275l2 -12q3 -11 6 -23.5t7 -27.5q2 -11 5 -27t8 -37q2 -12 5 -27.5t7 -32.5h16q4 23 8 45
t9 44q2 10 8 34.5t17 63.5q37 137 73.5 274.5t73.5 274.5h155q-71 -240 -140 -472.5t-139 -472.5h-157l-185 738h-16q-47 -185 -93.5 -369t-93.5 -369h-156z" />
    <glyph glyph-name="x" unicode="x" horiz-adv-x="869" 
d="M10 150l332 490q-78 114 -158 230.5t-158 230.5h171l242 -355q58 86 118.5 177t119.5 178h167l-320 -459q85 -123 170.5 -246t170.5 -246h-176l-258 381q-61 -93 -125 -190t-126 -191h-170z" />
    <glyph glyph-name="y" unicode="y" 
d="M188 1097l264 -783q63 191 130 391.5t130 391.5h162l-384 -1060q-29 -89 -58.5 -142t-60.5 -85q-56 -56 -130 -56l-68 6q-16 0 -25 0.5t-14 1.5q-7 3 -13 5.5t-11 4.5v134q1 -1 2 -1q2 0 4 -1q21 -8 42.5 -11.5t35.5 -3.5q65 0 100 45q34 46 78 189q-88 244 -176 487
t-176 487h168z" />
    <glyph glyph-name="z" unicode="z" 
d="M70 273l551 692h-508v132h698v-121l-554 -692h568v-132h-755v121z" />
    <glyph glyph-name="braceleft" unicode="{" 
d="M749 1321h-28q-109 0 -148 -43q-39 -42 -39 -168v-214q0 -141 -37 -196q-37 -56 -138 -84l1 -15q100 -26 138 -81q36 -59 36 -198v-214q0 -127 39 -169q39 -41 150 -41h26v-113h-30q-94 0 -147 10q-26 5 -48 13t-39 19v-1q-46 27 -66 81q-19 53 -19 184v216
q0 137 -51 192h1q-50 56 -170 56q-3 0 -9.5 -0.5t-11.5 -0.5q-4 -1 -8 -1v114h5t7 -1q6 0 11 -0.5t8 -0.5q118 0 168 56t50 189v218q0 132 19 183q20 53 66 80q19 12 42 20.5t51.5 14t64.5 8t82 2.5h24v-115z" />
    <glyph glyph-name="bar" unicode="|" 
d="M504 1513v-1789h-115v1789h115z" />
    <glyph glyph-name="braceright" unicode="}" 
d="M492 910q0 -133 50 -189t169 -56q2 0 7.5 0.5t11.5 0.5q4 1 12 1v-114h-4t-7 1q-5 0 -10.5 0.5t-7.5 0.5q-121 0 -171 -56h1q-51 -57 -51 -192v-216q0 -127 -20 -184q-9 -26 -24.5 -46.5t-39.5 -34.5v1q-17 -11 -39 -19t-49 -13t-63 -7.5t-84 -2.5h-29v113h26
q109 0 148 42q40 41 40 170v212q0 138 37 197v-1q20 29 53 49.5t84 33.5l1 15q-102 28 -138 85v-1q-37 57 -37 196v214q0 128 -40 168q-39 43 -148 43h-26v115h24q47 0 83.5 -2.5t65.5 -8t51 -14t40 -20.5q24 -14 39.5 -34t24.5 -46q20 -54 20 -183v-218z" />
    <glyph glyph-name="asciitilde" unicode="~" horiz-adv-x="1484" 
d="M1330 688q-90 -63 -170.5 -91.5t-163.5 -28.5q-42 0 -97 12t-126 38q-10 3 -18.5 6t-13.5 5q-3 1 -6 2.5t-6 2.5l1 -1q-156 54 -244 54q-73 0 -151 -31t-179 -100v115q92 63 173.5 93t158.5 30q26 0 54 -3.5t57 -8.5q30 -7 67.5 -17.5t80.5 -26.5q2 0 9.5 -2.5t16.5 -6.5
q3 -1 6 -2.5t6 -2.5l-1 1q142 -51 214 -51q38 0 76 7.5t78.5 23t84 40t93.5 58.5v-115z" />
    <glyph glyph-name="delete" horiz-adv-x="1392" 
d="M486 516q0 -108 -48 -174q-39 -53 -104 -69q-35 -9 -81 -9h-177v499h169q29 0 51.5 -1.5t38.5 -5.5q95 -23 131 -120v1q9 -26 14.5 -56t5.5 -65zM433 518q0 152 -97 191q-30 11 -92 11h-118v-413h120q48 0 80 10t52 29q55 55 55 172zM934 264h-369v499h357v-43h-305v-176
h285v-43h-285v-194h317v-43zM1322 264h-305v499h51v-456h254v-43z" />
    <glyph glyph-name="copyright" unicode="&#xa9;" horiz-adv-x="1484" 
d="M741 1424q134 0 249 -47.5t207 -139.5q91 -90 139 -207.5t48 -247.5q0 -127 -49 -243.5t-136 -204.5q-95 -90 -214.5 -141.5t-243.5 -51.5q-127 0 -242.5 48.5t-207.5 142.5q-93 92 -141 207t-48 243q0 126 50.5 244.5t139.5 211.5q91 90 206 138t243 48zM1315 782
q0 118 -42 222t-122 185q-84 82 -187.5 125t-220.5 43q-116 0 -218 -42t-183 -123q-84 -84 -128.5 -189.5t-44.5 -220.5q0 -113 43.5 -216.5t126.5 -186.5q83 -82 186 -125.5t218 -43.5q113 0 217 43.5t191 127.5q81 79 122.5 181t41.5 220zM927 950q-13 70 -61.5 105.5
t-127.5 35.5q-48 0 -86.5 -21t-65.5 -61t-41 -97.5t-14 -129.5q0 -71 14.5 -127t42.5 -94.5t67.5 -59t90.5 -20.5q76 0 125.5 40.5t63.5 114.5h111q-5 -54 -28 -95t-64 -75q-83 -70 -213 -70q-156 0 -245 104q-89 102 -89 288q0 174 93 278q93 105 246 105q123 0 203 -64
q38 -31 61.5 -68.5t28.5 -88.5h-112z" />
    <glyph glyph-name="guillemotleft" unicode="&#xab;" horiz-adv-x="880" 
d="M763 22h-72q-82 97 -164 192.5t-164 192.5q84 97 164.5 189.5t164.5 189.5h64l-217 -378zM461 22h-68q-82 97 -163 192.5t-164 192.5q84 97 164.5 189.5t165.5 189.5h65l-219 -378z" />
    <glyph glyph-name="registered" unicode="&#xae;" horiz-adv-x="1484" 
d="M741 1424q132 0 249 -48.5t209 -142.5q90 -91 137.5 -207t47.5 -244q0 -131 -47.5 -246t-139.5 -204q-95 -93 -212.5 -142t-243.5 -49q-128 0 -243.5 49t-208.5 144q-92 92 -139.5 207t-47.5 241q0 128 50 246.5t144 214.5q88 89 201 135t244 46zM1315 777q0 121 -41 225
t-121 185q-84 84 -187.5 127t-222.5 43q-115 0 -218.5 -43t-180.5 -120q-81 -85 -128 -192.5t-47 -219.5t43.5 -215t124.5 -186t185 -127t216 -44q117 0 220.5 42.5t190.5 126.5q81 78 123.5 180.5t42.5 217.5zM759 1155q299 0 299 -193q0 -76 -45.5 -126t-127.5 -67
q40 -81 82 -166t82 -167h-136l-151 314h-150v-314h-122v719h269zM612 1083v-262h126q104 0 149.5 29.5t45.5 96.5q0 72 -47 104t-152 32h-122z" />
    <glyph glyph-name="dagger" unicode="&#xb0;" horiz-adv-x="1024" 
d="M509 1094l456 -457l-456 -456l-457 456zM128 637l381 -380l380 380l-380 381zM509 855l217 -218l-217 -217l-217 217z" />
    <glyph glyph-name="daggerdbl" unicode="&#xb1;" horiz-adv-x="901" 
d="M450 1043l201 -146l201 -145l-77 -237l-76 -236h-497l-77 236l-77 237l201 145zM592 430l141 103l-54 167l-54 166h-350l-54 -166l-54 -167l142 -103l141 -102zM528 727l79 -56l-31 -92l-29 -92h-193l-60 184l78 56l78 57z" />
    <glyph glyph-name="paragraph" unicode="&#xb6;" 
d="M830 1379h-106v-1229h-80v1229h-173v-1229h-82v690q-155 6 -242 87q-86 81 -86 211q0 65 24.5 120t66.5 97q47 40 109 61.5t137 21.5h432v-59z" />
    <glyph glyph-name="nonbreakingspace" unicode="&#xb7;" horiz-adv-x="1082" 
d="M549 98l-198 219l198 199l201 -199zM1025 581l-214 -205l-198 205l198 198zM549 1056l196 -215l-196 -198l-198 198zM74 581l212 198l198 -198l-198 -198z" />
    <glyph glyph-name="periodcentered" unicode="&#xba;" horiz-adv-x="983" 
d="M253 1047h454l114 -197l113 -196l-113 -197l-114 -197h-454l-114 197l-113 197l113 196zM298 968l-182 -314l91 -158l91 -157h364l90 157l91 158l-91 157l-90 157h-364zM361 859h238l59 -102l59 -103l-118 -206h-238l-118 206l59 103z" />
    <glyph glyph-name="guillemotright" unicode="&#xbb;" horiz-adv-x="880" 
d="M335 408q-54 94 -108 189t-109 189h65q81 -95 163.5 -189.5t165.5 -189.5q-84 -99 -165 -193t-163 -192h-74zM632 408q-54 94 -109.5 189t-109.5 189h65q83 -95 165.5 -189.5t164.5 -189.5q-83 -99 -163 -193t-164 -192h-68z" />
    <glyph glyph-name="questiondown" unicode="&#xbf;" horiz-adv-x="774" 
d="M77 979h675v-675h-675v675z" />
    <glyph glyph-name="multiply" unicode="&#xd7;" horiz-adv-x="1484" 
d="M748 755l414 413q20 -20 37 -37.5t37 -37.5l-414 -414l414 -413q-20 -20 -37 -36.5t-37 -36.5l-414 412q-102 -101 -206.5 -205.5t-207.5 -206.5q-20 20 -37 36.5t-37 36.5l414 413l-414 414q20 21 37.5 38t36.5 37z" />
    <glyph glyph-name="agrave" unicode="&#xe0;" horiz-adv-x="990" 
d="M123 816q0 60 11 96q6 19 16.5 38.5t24.5 39.5q48 66 128.5 99.5t195.5 33.5q230 0 314 -113q45 -59 45 -182v-459q0 -109 67 -109q11 1 20.5 2.5t19.5 2.5v-113q-17 -6 -29.5 -9t-23 -4.5t-20.5 -2t-21 -0.5q-129 0 -148 158q-149 -167 -337 -167q-139 0 -222 74
q-81 76 -81 204q0 177 155 249q25 12 63 23.5t86 21.5t104.5 18.5t119.5 16.5l104 14v54q0 46 -6 73t-23 48q-27 33 -75 51t-112 18q-68 0 -116 -20.5t-75 -57.5q-16 -20 -23 -42.5t-8 -55.5h-154zM713 636q-8 -1 -21.5 -2.5t-22.5 -3.5q-22 -3 -43.5 -6t-40.5 -8
q-28 -4 -60.5 -10.5l-72.5 -14.5q-113 -25 -161 -64q-49 -39 -49 -113q0 -73 48.5 -114t133.5 -41q121 0 204 68q44 35 64.5 75.5t20.5 88.5v145zM557 1224h-86q-60 73 -119 145t-119 144h154z" />
    <glyph glyph-name="aacute" unicode="&#xe1;" horiz-adv-x="990" 
d="M123 816q0 60 11 96q6 19 16.5 38.5t24.5 39.5q48 66 128.5 99.5t195.5 33.5q230 0 314 -113q45 -59 45 -182v-459q0 -109 67 -109q11 1 20.5 2.5t19.5 2.5v-113q-17 -6 -29.5 -9t-23 -4.5t-20.5 -2t-21 -0.5q-129 0 -148 158q-149 -167 -337 -167q-139 0 -222 74
q-81 76 -81 204q0 177 155 249q25 12 63 23.5t86 21.5t104.5 18.5t119.5 16.5l104 14v54q0 46 -6 73t-23 48q-27 33 -75 51t-112 18q-68 0 -116 -20.5t-75 -57.5q-16 -20 -23 -42.5t-8 -55.5h-154zM713 636q-8 -1 -21.5 -2.5t-22.5 -3.5q-22 -3 -43.5 -6t-40.5 -8
q-28 -4 -60.5 -10.5l-72.5 -14.5q-113 -25 -161 -64q-49 -39 -49 -113q0 -73 48.5 -114t133.5 -41q121 0 204 68q44 35 64.5 75.5t20.5 88.5v145zM581 1513h154q-60 -72 -119 -144t-119 -145h-86z" />
    <glyph glyph-name="ccedilla" unicode="&#xe7;" horiz-adv-x="935" 
d="M749 781q-11 97 -75 149.5t-175 52.5q-135 0 -206.5 -94.5t-71.5 -272.5t69 -273t198 -95q112 0 181 57t87 167h136q-5 -74 -32.5 -136t-77.5 -109q-101 -97 -279 -106v-87h32q87 0 133 -33.5t46 -95.5q0 -147 -202 -147q-85 0 -208 32v63q66 -14 119.5 -21.5t86.5 -7.5
q50 0 76 19t26 55q0 78 -115 78q-8 0 -15 -0.5t-14 -0.5h-12v145q-185 18 -283 147q-101 133 -101 343q0 232 115 365t312 133q172 0 279 -92q50 -45 76.5 -104t31.5 -131h-137z" />
    <glyph glyph-name="egrave" unicode="&#xe8;" horiz-adv-x="990" 
d="M924 580h-698q0 -158 72.5 -239.5t206.5 -81.5q103 0 164 47t84 146h156q-40 -152 -142 -238q-105 -87 -268 -87q-201 0 -315 133q-115 133 -115 366q0 126 39 224t110 164q60 50 135 78.5t159 28.5q105 0 188.5 -40.5t142.5 -113.5q42 -61 62.5 -137t20.5 -183zM775 712
q0 135 -74 205q-74 73 -193 73q-239 0 -277 -278h544zM557 1224h-86q-60 73 -119 145t-119 144h154z" />
    <glyph glyph-name="eacute" unicode="&#xe9;" horiz-adv-x="990" 
d="M924 580h-698q0 -158 72.5 -239.5t206.5 -81.5q103 0 164 47t84 146h156q-40 -152 -142 -238q-105 -87 -268 -87q-201 0 -315 133q-115 133 -115 366q0 126 39 224t110 164q60 50 135 78.5t159 28.5q105 0 188.5 -40.5t142.5 -113.5q42 -61 62.5 -137t20.5 -183zM775 712
q0 135 -74 205q-74 73 -193 73q-239 0 -277 -278h544zM581 1513h154q-60 -72 -119 -144t-119 -145h-86z" />
    <glyph glyph-name="ecircumflex" unicode="&#xea;" horiz-adv-x="990" 
d="M924 580h-698q0 -158 72.5 -239.5t206.5 -81.5q103 0 164 47t84 146h156q-40 -152 -142 -238q-105 -87 -268 -87q-201 0 -315 133q-115 133 -115 366q0 126 39 224t110 164q60 50 135 78.5t159 28.5q105 0 188.5 -40.5t142.5 -113.5q42 -61 62.5 -137t20.5 -183zM775 712
q0 135 -74 205q-74 73 -193 73q-239 0 -277 -278h544zM244 1224q43 75 82.5 144.5t82.5 144.5h161q42 -74 82.5 -144.5t82.5 -144.5h-89l-157 206q-38 -50 -79 -103.5t-79 -102.5h-87z" />
    <glyph glyph-name="ocircumflex" unicode="&#xf4;" horiz-adv-x="990" 
d="M69 626q0 233 114 364q113 133 314 133q202 0 315 -133q114 -132 114 -364t-114 -367q-111 -132 -315 -132q-202 0 -313 132q-115 131 -115 367zM228 626q0 -173 70 -270q72 -97 199 -97q130 0 199.5 96.5t69.5 275.5q0 85 -18 151.5t-52.5 112.5t-84.5 70.5t-114 24.5
q-65 0 -115 -24.5t-84 -71t-52 -114.5t-18 -154zM244 1224q43 75 82.5 144.5t82.5 144.5h161q42 -74 82.5 -144.5t82.5 -144.5h-89l-157 206q-38 -50 -79 -103.5t-79 -102.5h-87z" />
    <glyph glyph-name="divide" unicode="&#xf7;" horiz-adv-x="1484" 
d="M1261 732v-104h-1038v104h1038zM743 1108q40 0 71 -31t31 -72q0 -40 -31 -71q-28 -31 -71 -31q-42 0 -72 30q-14 15 -22 32.5t-8 39.5q0 41 31 72t71 31zM743 456q42 0 71 -30q31 -31 31 -72t-31 -72q-28 -28 -71 -28q-44 0 -72 28q-30 30 -30 72q0 41 31 72q29 30 71 30
z" />
    <glyph glyph-name="oe" unicode="&#x153;" horiz-adv-x="1656" 
d="M1595 578h8l-8 -9v9h-685q3 -161 77 -246q38 -44 88.5 -64.5t116.5 -20.5q98 0 162.5 49.5t85.5 141.5h139q-27 -144 -131 -231q-54 -45 -121 -66t-147 -21q-120 0 -208 47.5t-136 139.5h-16q-51 -96 -133 -141.5t-197 -45.5q-198 0 -309 127t-111 353q0 122 27.5 216
t85.5 160q112 132 317 132q229 0 340 -186q136 186 343 186q196 0 305 -125q56 -61 83 -147t27 -196q0 -19 -3 -62zM219 615q0 -177 72 -273.5t203 -96.5q126 0 203 105q74 107 74 286q0 158 -72 253q-73 95 -197 95q-67 0 -119.5 -25t-89 -72t-55.5 -115.5t-19 -156.5z
M1446 691v14q0 128 -71 205q-70 74 -192 74q-118 0 -189 -77q-74 -78 -83 -216h535z" />
    <glyph glyph-name="arabiccomma" unicode="&#x60c;" horiz-adv-x="433" 
d="M281 266q-3 -2 -12.5 -16.5t-21.5 -31t-26 -30.5t-27 -14q-52 0 -74 28.5t-23.5 73t13 98.5t36.5 105t47 92t44 60q1 1 7 -11t9 -21q-13 -25 -30 -57.5t-30 -67t-19.5 -68.5t1 -62.5t32.5 -49.5t74 -28z" />
    <glyph glyph-name="arabicsemicolon" unicode="&#x61b;" horiz-adv-x="505" 
d="M344 532q-3 -2 -12.5 -16.5t-21.5 -31t-26 -30.5t-27 -14q-52 0 -74 28.5t-23.5 73t13 98.5t36.5 105t47 92t44 60q1 1 7 -11t9 -21q-13 -25 -30 -57.5t-30 -67t-19.5 -68.5t1 -62.5t32.5 -49t74 -28.5zM176 240q0 29 20.5 49t48.5 20q29 0 49 -20t20 -49t-20 -49
t-49 -20q-28 0 -48.5 20t-20.5 49z" />
    <glyph glyph-name="arabicquestionmark" unicode="&#x61f;" horiz-adv-x="886" 
d="M676 1538q-85 63 -151.5 99.5t-116.5 50t-84 7t-55 -28.5q-14 -16 -13.5 -63.5t11 -117t30 -154.5t43 -176t49.5 -181.5t50 -171t45 -144.5t34 -101q6 -19 10 -32t7 -23l-92 -70q-5 13 -10.5 30.5t-13.5 42.5q-15 43 -36.5 113t-46 156.5t-49.5 184t-47 195.5
t-38.5 190.5t-23.5 169t-2.5 131t24.5 76.5q35 38 84.5 56.5t115 11t147.5 -44t183 -107.5zM389 240q0 29 20.5 49t48.5 20q29 0 49 -20t20 -49t-20 -49t-49 -20q-28 0 -48.5 20t-20.5 49z" />
    <glyph glyph-name="hamza" unicode="&#x621;" horiz-adv-x="1095" 
d="M757 861q-84 42 -157 63.5t-134.5 26.5t-110.5 -5t-86 -32q-65 -38 -88 -108q-11 -33 -11 -71t14 -78q15 -47 47 -93.5t82.5 -88.5t119.5 -77.5t158 -59.5l387 224l50 -87l-859 -498l-50 87l356 206q-82 31 -146.5 71t-112.5 86.5t-80 97t-48 101.5q-17 56 -17.5 109.5
t15.5 102.5q17 50 50 91.5t81 70.5q47 28 107.5 42t134 10t159.5 -28.5t184 -72.5z" />
    <glyph glyph-name="alefwithmaddaabove" unicode="&#x622;" horiz-adv-x="407" 
d="M258 1801v-1281q0 -103 -20 -185t-55 -141l-84 52q27 48 43 116.5t16 157.5v1281h100zM-99 1885q-1 62 63 117.5t240 5t270 35.5q-46 -183 -258.5 -121t-314.5 -37z" />
    <glyph glyph-name="alefwithhamzaabove" unicode="&#x623;" horiz-adv-x="407" 
d="M258 1801v-1281q0 -103 -20 -185t-55 -141l-84 52q27 48 43 116.5t16 157.5v1281h100zM257 2139q-42 23 -72 25t-48 -9q-14 -8 -17.5 -23t1.5 -29q7 -22 30.5 -42.5t65.5 -33.5l101 59l31 -53l-240 -139l-31 53l71 42q-35 19 -56.5 44t-30.5 51q-11 37 0.5 70.5
t43.5 54.5q29 17 75 16t104 -31z" />
    <glyph glyph-name="wawwithhamzaabove" unicode="&#x624;" horiz-adv-x="860" 
d="M428 1290q102 -5 173 -54.5t116.5 -127.5t67 -175.5t23.5 -197.5q0 -101 -6.5 -198t-23 -187t-44 -171.5t-69.5 -151.5q-43 -72 -102 -130t-137 -98.5t-176.5 -62.5t-219.5 -22v101q106 0 191.5 18.5t153 53t118 83t86.5 109.5q52 88 81 200q-44 -48 -100 -75t-125 -29
q-74 -3 -132.5 24.5t-103.5 75.5t-76.5 112.5t-49.5 135t-23.5 142.5t1.5 135q4 82 28.5 169t71 158.5t115.5 117t162 45.5zM433 1190q-48 0 -86.5 -17.5t-69.5 -48t-54 -70t-38 -84t-23.5 -90t-10.5 -87.5q-6 -48 -2.5 -105t16 -115t34.5 -112t54.5 -95.5t76 -66.5
t98.5 -24q67 0 118 36.5t86 97.5q37 65 56 147t20 170q-1 52 -7 105.5t-19 104.5t-34 96t-51 79.5t-71 55.5t-93 23zM504 1707q-51 27 -87 29.5t-58 -10.5q-17 -10 -21 -27.5t1 -34.5q8 -26 36.5 -51.5t79.5 -40.5l123 71l37 -64l-290 -168l-38 64l86 51q-43 23 -68.5 53
t-36.5 62q-13 45 0.5 85t52.5 66q35 20 91 19t126 -37z" />
    <glyph glyph-name="alefwithhamzabelow" unicode="&#x625;" horiz-adv-x="407" 
d="M258 1801v-1281q0 -103 -20 -185t-55 -141l-84 52q27 48 43 116.5t16 157.5v1281h100zM274 -13q-42 23 -72 25t-48 -9q-14 -8 -17.5 -23t1.5 -29q7 -22 30.5 -42.5t65.5 -33.5l101 59l31 -53l-240 -139l-31 53l71 42q-35 19 -56.5 44t-30.5 51q-11 37 0.5 70.5t43.5 54.5
q29 17 75 16t104 -31z" />
    <glyph glyph-name="yehwithhamzaabove" unicode="&#x626;" horiz-adv-x="1340" 
d="M1074 1190q-146 0 -243.5 -22.5t-156.5 -60.5q-36 -23 -57 -51t-29 -59q-15 -63 16 -139q29 -69 89.5 -137t144.5 -125q68 -45 145.5 -105.5t145.5 -134.5q36 -38 66 -79.5t52.5 -86.5t36 -92.5t14.5 -98.5q0 -50 -13.5 -92.5t-37.5 -79t-58 -66.5t-75 -54
q-77 -45 -174 -67t-199 -22q-133 0 -229 27t-161.5 75t-103.5 115t-55 147q-16 75 -15 158t13.5 170t33 175t43.5 172l97 -27q-22 -80 -41.5 -162.5t-31.5 -163.5t-13.5 -157.5t12.5 -143.5q13 -62 44 -114.5t84.5 -90.5t133 -59t189.5 -21q89 0 173 19t150 57
q61 35 97.5 85.5t36.5 117.5q-2 80 -42 153t-100 139q-63 68 -136.5 124.5t-136.5 99.5q-97 65 -167 144.5t-104 162.5q-21 52 -27 103t6 99q12 49 43 91.5t85 77.5q70 46 182 72.5t273 26.5v-100zM233 1090q-51 27 -87 29.5t-58 -10.5q-17 -10 -21 -27.5t1 -34.5
q8 -26 36.5 -51.5t79.5 -40.5l123 71l37 -64l-290 -168l-38 64l86 51q-43 23 -68.5 53t-36.5 62q-13 45 0.5 85t52.5 66q35 20 91 19t126 -37z" />
    <glyph glyph-name="arabicalef" unicode="&#x627;" horiz-adv-x="407" 
d="M258 1801v-1281q0 -103 -20 -185t-55 -141l-84 52q27 48 43 116.5t16 157.5v1281h100z" />
    <glyph glyph-name="beh" unicode="&#x628;" horiz-adv-x="1350" 
d="M1163 1205q8 -21 13 -37t11 -30q30 -71 54.5 -147t38.5 -154.5t13.5 -156.5t-21 -152.5t-64 -143t-115.5 -127.5q-79 -65 -176 -106.5t-200.5 -59t-208.5 -9.5t-200 42q-39 15 -75.5 36t-67.5 48.5t-54.5 61t-36.5 74.5q-23 64 -20.5 142.5t37.5 172.5q9 23 19.5 48
t24.5 51l89 -45q-11 -23 -20.5 -45t-17.5 -44q-29 -76 -32 -137.5t14 -109.5q20 -58 68 -98t107 -60q82 -30 173.5 -37t182.5 8t175.5 51t153.5 93q62 50 98 108.5t51.5 122.5t14 132.5t-15 137.5t-36 137t-47.5 132q-8 20 -14 37.5t-11 30.5zM568 -214q0 29 20.5 49
t48.5 20q29 0 49 -20t20 -49t-20 -49t-49 -20q-28 0 -48.5 20t-20.5 49z" />
    <glyph glyph-name="tehmarbuta" unicode="&#x629;" horiz-adv-x="860" 
d="M732 1185q34 -52 47.5 -123.5t10 -153t-21.5 -168t-48 -168.5q-30 -84 -70.5 -159.5t-87.5 -133t-98 -92t-102 -35.5q-59 -2 -113 44t-97.5 154t-72.5 284t-37 435v28l23 16q138 91 245.5 133.5t189.5 47t139 -25t93 -83.5zM648 1130q-24 36 -65 53t-102.5 9.5t-145 -43
t-192.5 -105.5q8 -223 28.5 -375t49.5 -245t64.5 -133.5t73.5 -38.5q35 1 71.5 30t71.5 77t66.5 112t57.5 135q26 73 43 148t21.5 145t-5.5 129.5t-37 101.5zM141 1537q0 29 20.5 49t48.5 20q29 0 49 -20t20 -49t-20 -49t-49 -20q-28 0 -48.5 20t-20.5 49zM321 1537
q0 29 20.5 49t48.5 20q29 0 49 -20t20 -49t-20 -49t-49 -20q-28 0 -48.5 20t-20.5 49z" />
    <glyph glyph-name="teh" unicode="&#x62a;" horiz-adv-x="1350" 
d="M1163 1205q8 -21 13 -37t11 -30q30 -71 54.5 -147t38.5 -154.5t13.5 -156.5t-21 -152.5t-64 -143t-115.5 -127.5q-79 -65 -176 -106.5t-200.5 -59t-208.5 -9.5t-200 42q-39 15 -75.5 36t-67.5 48.5t-54.5 61t-36.5 74.5q-23 64 -20.5 142.5t37.5 172.5q9 23 19.5 48
t24.5 51l89 -45q-11 -23 -20.5 -45t-17.5 -44q-29 -76 -32 -137.5t14 -109.5q20 -58 68 -98t107 -60q82 -30 173.5 -37t182.5 8t175.5 51t153.5 93q62 50 98 108.5t51.5 122.5t14 132.5t-15 137.5t-36 137t-47.5 132q-8 20 -14 37.5t-11 30.5zM602 1277q0 29 20.5 49
t48.5 20q29 0 49 -20t20 -49t-20 -49t-49 -20q-28 0 -48.5 20t-20.5 49zM422 1277q0 29 20.5 49t48.5 20q29 0 49 -20t20 -49t-20 -49t-49 -20q-28 0 -48.5 20t-20.5 49z" />
    <glyph glyph-name="theh" unicode="&#x62b;" horiz-adv-x="1350" 
d="M1163 1205q8 -21 13 -37t11 -30q30 -71 54.5 -147t38.5 -154.5t13.5 -156.5t-21 -152.5t-64 -143t-115.5 -127.5q-79 -65 -176 -106.5t-200.5 -59t-208.5 -9.5t-200 42q-39 15 -75.5 36t-67.5 48.5t-54.5 61t-36.5 74.5q-23 64 -20.5 142.5t37.5 172.5q9 23 19.5 48
t24.5 51l89 -45q-11 -23 -20.5 -45t-17.5 -44q-29 -76 -32 -137.5t14 -109.5q20 -58 68 -98t107 -60q82 -30 173.5 -37t182.5 8t175.5 51t153.5 93q62 50 98 108.5t51.5 122.5t14 132.5t-15 137.5t-36 137t-47.5 132q-8 20 -14 37.5t-11 30.5zM547 1423q0 29 20.5 49
t48.5 20q29 0 49 -20t20 -49t-20 -49t-49 -20q-28 0 -48.5 20t-20.5 49zM674 1235q0 29 20.5 49t48.5 20q29 0 49 -20t20 -49t-20 -49t-49 -20q-28 0 -48.5 20t-20.5 49zM434 1235q0 29 20.5 49t48.5 20q29 0 49 -20t20 -49t-20 -49t-49 -20q-28 0 -48.5 20t-20.5 49z" />
    <glyph glyph-name="jeem" unicode="&#x62c;" horiz-adv-x="1027" 
d="M61 1150q66 68 124.5 102.5t110 40.5t96.5 -13.5t85 -58.5q39 -38 72 -92.5t62 -119.5t55 -137.5t51 -145.5l16 -46l16 -46q32 11 65.5 20.5t68.5 17.5l24 -97q-143 -34 -261 -88t-209 -120t-153.5 -139.5t-95.5 -145.5q-23 -50 -31 -96t0 -86q7 -38 28.5 -69t58.5 -54
q44 -27 108.5 -40.5t150.5 -9t194.5 27.5t239.5 70l34 -94q-144 -51 -264 -75.5t-217 -27.5t-171.5 14t-126.5 49q-57 35 -90 83.5t-44 106.5q-11 56 -0.5 117t39.5 125q30 66 80.5 132t121 128t160 117.5t196.5 99.5q-17 45 -32 93q-24 69 -48.5 137t-51 128.5t-55 110
t-61.5 81.5q-24 23 -52 33t-62 3.5t-73.5 -32.5t-86.5 -74zM459 47q0 29 20.5 49t48.5 20q29 0 49 -20t20 -49t-20 -49t-49 -20q-28 0 -48.5 20t-20.5 49z" />
    <glyph glyph-name="hah" unicode="&#x62d;" horiz-adv-x="1027" 
d="M61 1150q66 68 124.5 102.5t110 40.5t96.5 -13.5t85 -58.5q39 -38 72 -92.5t62 -119.5t55 -137.5t51 -145.5l16 -46l16 -46q32 11 65.5 20.5t68.5 17.5l24 -97q-143 -34 -261 -88t-209 -120t-153.5 -139.5t-95.5 -145.5q-23 -50 -31 -96t0 -86q7 -38 28.5 -69t58.5 -54
q44 -27 108.5 -40.5t150.5 -9t194.5 27.5t239.5 70l34 -94q-144 -51 -264 -75.5t-217 -27.5t-171.5 14t-126.5 49q-57 35 -90 83.5t-44 106.5q-11 56 -0.5 117t39.5 125q30 66 80.5 132t121 128t160 117.5t196.5 99.5q-17 45 -32 93q-24 69 -48.5 137t-51 128.5t-55 110
t-61.5 81.5q-24 23 -52 33t-62 3.5t-73.5 -32.5t-86.5 -74z" />
    <glyph glyph-name="khah" unicode="&#x62e;" horiz-adv-x="1027" 
d="M61 1150q66 68 124.5 102.5t110 40.5t96.5 -13.5t85 -58.5q39 -38 72 -92.5t62 -119.5t55 -137.5t51 -145.5l16 -46l16 -46q32 11 65.5 20.5t68.5 17.5l24 -97q-143 -34 -261 -88t-209 -120t-153.5 -139.5t-95.5 -145.5q-23 -50 -31 -96t0 -86q7 -38 28.5 -69t58.5 -54
q44 -27 108.5 -40.5t150.5 -9t194.5 27.5t239.5 70l34 -94q-144 -51 -264 -75.5t-217 -27.5t-171.5 14t-126.5 49q-57 35 -90 83.5t-44 106.5q-11 56 -0.5 117t39.5 125q30 66 80.5 132t121 128t160 117.5t196.5 99.5q-17 45 -32 93q-24 69 -48.5 137t-51 128.5t-55 110
t-61.5 81.5q-24 23 -52 33t-62 3.5t-73.5 -32.5t-86.5 -74zM365 1533q0 29 20.5 49t48.5 20q29 0 49 -20t20 -49t-20 -49t-49 -20q-28 0 -48.5 20t-20.5 49z" />
    <glyph glyph-name="dal" unicode="&#x62f;" horiz-adv-x="813" 
d="M229 1277q57 0 110 -22.5t101 -64t90.5 -99t78.5 -127.5q34 -66 61 -140.5t46.5 -155t30 -164.5t11.5 -168v-29t-1 -53q-108 -40 -197 -64.5t-174 -36.5q-86 -13 -171.5 -12.5t-172.5 17.5l18 98q78 -14 156 -14.5t156 10.5q72 10 143 28.5t143 44.5q0 79 -9.5 159
t-27.5 156t-44 146.5t-57 131.5q-29 57 -62.5 104t-70 81t-75 53.5t-77.5 20.5h-6v100z" />
    <glyph glyph-name="thal" unicode="&#x630;" horiz-adv-x="813" 
d="M229 1277q57 0 110 -22.5t101 -64t90.5 -99t78.5 -127.5q34 -66 61 -140.5t46.5 -155t30 -164.5t11.5 -168v-29t-1 -53q-108 -40 -197 -64.5t-174 -36.5q-86 -13 -171.5 -12.5t-172.5 17.5l18 98q78 -14 156 -14.5t156 10.5q72 10 143 28.5t143 44.5q0 79 -9.5 159
t-27.5 156t-44 146.5t-57 131.5q-29 57 -62.5 104t-70 81t-75 53.5t-77.5 20.5h-6v100zM349 1533q0 29 20.5 49t48.5 20q29 0 49 -20t20 -49t-20 -49t-49 -20q-28 0 -48.5 20t-20.5 49z" />
    <glyph glyph-name="reh" unicode="&#x631;" horiz-adv-x="605" 
d="M325 1110q100 -224 147 -411t47 -340q0 -107 -22 -196t-64 -162q-87 -147 -250 -219q-151 -68 -356 -68v101q187 0 316 58q133 61 203 179q73 123 73 307q-1 142 -46 320t-140 390z" />
    <glyph glyph-name="zain" unicode="&#x632;" horiz-adv-x="605" 
d="M325 1110q100 -224 147 -411t47 -340q0 -107 -22 -196t-64 -162q-87 -147 -250 -219q-151 -68 -356 -68v101q187 0 316 58q133 61 203 179q73 123 73 307q-1 142 -46 320t-140 390zM98 1381q0 29 20.5 49t48.5 20q29 0 49 -20t20 -49t-20 -49t-49 -20q-28 0 -48.5 20
t-20.5 49z" />
    <glyph glyph-name="seen" unicode="&#x633;" horiz-adv-x="2209" 
d="M931 47q43 72 68.5 162.5t27.5 202.5l2 769h100v-529q0 -93 17.5 -163.5t47.5 -118.5q53 -87 136 -90q78 5 131 90q29 48 46.5 118.5t17.5 162.5v530h100v-529q0 -93 17.5 -163.5t47.5 -118.5q26 -42 59.5 -64.5t80.5 -25.5q75 0 121.5 32t70.5 86t28.5 124.5t-2.5 147.5
q-9 85 -28.5 173t-42 166t-44.5 141t-35 99l94 34q14 -37 36.5 -102t46 -146.5t43.5 -173t29 -181.5q10 -98 2.5 -187t-41.5 -158t-98 -110.5t-167 -44.5q-82 2 -140 37t-99 100q-8 13 -15 27t-14 30q-7 -16 -14 -30t-15 -27q-38 -60 -88.5 -94.5t-110.5 -42.5l-39 1
q-113 12 -189 120q-12 -91 -38 -166.5t-64 -138.5q-55 -97 -136.5 -163.5t-176 -94.5t-194.5 -14.5t-193 77.5q-64 46 -117.5 118t-89.5 171.5t-52 227t-5 284.5l100 -7q-10 -142 3 -256.5t43.5 -203t76 -151t99.5 -101.5q75 -51 154.5 -61t153.5 14t138.5 78.5t109.5 132.5
z" />
    <glyph glyph-name="sheen" unicode="&#x634;" horiz-adv-x="2209" 
d="M931 47q43 72 68.5 162.5t27.5 202.5l2 769h100v-529q0 -93 17.5 -163.5t47.5 -118.5q53 -87 136 -90q78 5 131 90q29 48 46.5 118.5t17.5 162.5v530h100v-529q0 -93 17.5 -163.5t47.5 -118.5q26 -42 59.5 -64.5t80.5 -25.5q75 0 121.5 32t70.5 86t28.5 124.5t-2.5 147.5
q-9 85 -28.5 173t-42 166t-44.5 141t-35 99l94 34q14 -37 36.5 -102t46 -146.5t43.5 -173t29 -181.5q10 -98 2.5 -187t-41.5 -158t-98 -110.5t-167 -44.5q-82 2 -140 37t-99 100q-8 13 -15 27t-14 30q-7 -16 -14 -30t-15 -27q-38 -60 -88.5 -94.5t-110.5 -42.5l-39 1
q-113 12 -189 120q-12 -91 -38 -166.5t-64 -138.5q-55 -97 -136.5 -163.5t-176 -94.5t-194.5 -14.5t-193 77.5q-64 46 -117.5 118t-89.5 171.5t-52 227t-5 284.5l100 -7q-10 -142 3 -256.5t43.5 -203t76 -151t99.5 -101.5q75 -51 154.5 -61t153.5 14t138.5 78.5t109.5 132.5
zM1437 1710q0 29 20.5 49t48.5 20q29 0 49 -20t20 -49t-20 -49t-49 -20q-28 0 -48.5 20t-20.5 49zM1564 1522q0 29 20.5 49t48.5 20q29 0 49 -20t20 -49t-20 -49t-49 -20q-28 0 -48.5 20t-20.5 49zM1324 1522q0 29 20.5 49t48.5 20q29 0 49 -20t20 -49t-20 -49t-49 -20
q-28 0 -48.5 20t-20.5 49z" />
    <glyph glyph-name="sad" unicode="&#x635;" horiz-adv-x="1950" 
d="M909 1204q63 -120 106 -230.5t69 -213.5q75 268 183 404.5t259 141.5q81 -6 149 -46t117 -103t76.5 -144.5t29.5 -172.5q3 -121 -32 -236.5t-104 -209.5q-35 -47 -77 -85.5t-91 -66.5t-105 -44.5t-117 -17.5h-277q-29 -104 -77 -184q-55 -97 -136.5 -163.5t-176 -94.5
t-194.5 -14.5t-193 77.5q-64 46 -117.5 118t-89.5 171.5t-52 227t-5 284.5l100 -7q-10 -142 3 -256.5t43.5 -203t76 -151t99.5 -101.5q75 -51 154.5 -61t153.5 14t138.5 78.5t109.5 132.5q50 85 76 198t17.5 253t-57 305.5t-147.5 354.5zM1529 1206q-56 -2 -103 -35
t-87 -86.5t-72.5 -121.5t-59 -140t-48 -141.5t-38.5 -126.5q8 -75 6 -143.5t-11 -131.5h254q98 2 176.5 50t134.5 123q58 79 88.5 177t28.5 200q-2 72 -20.5 136.5t-53 114.5t-84 82.5t-111.5 42.5z" />
    <glyph glyph-name="dad" unicode="&#x636;" horiz-adv-x="1950" 
d="M909 1204q63 -120 106 -230.5t69 -213.5q75 268 183 404.5t259 141.5q81 -6 149 -46t117 -103t76.5 -144.5t29.5 -172.5q3 -121 -32 -236.5t-104 -209.5q-35 -47 -77 -85.5t-91 -66.5t-105 -44.5t-117 -17.5h-277q-29 -104 -77 -184q-55 -97 -136.5 -163.5t-176 -94.5
t-194.5 -14.5t-193 77.5q-64 46 -117.5 118t-89.5 171.5t-52 227t-5 284.5l100 -7q-10 -142 3 -256.5t43.5 -203t76 -151t99.5 -101.5q75 -51 154.5 -61t153.5 14t138.5 78.5t109.5 132.5q50 85 76 198t17.5 253t-57 305.5t-147.5 354.5zM1529 1206q-56 -2 -103 -35
t-87 -86.5t-72.5 -121.5t-59 -140t-48 -141.5t-38.5 -126.5q8 -75 6 -143.5t-11 -131.5h254q98 2 176.5 50t134.5 123q58 79 88.5 177t28.5 200q-2 72 -20.5 136.5t-53 114.5t-84 82.5t-111.5 42.5zM1055 1531q0 29 20.5 49t48.5 20q29 0 49 -20t20 -49t-20 -49t-49 -20
q-28 0 -48.5 20t-20.5 49z" />
    <glyph glyph-name="tah" unicode="&#x637;" horiz-adv-x="1095" 
d="M263 714q10 70 31 141t50.5 136.5t66 122t78.5 99t87.5 67t92.5 26.5q60 2 125 -29t120 -94q53 -59 88.5 -145t38.5 -198q4 -121 -31.5 -236.5t-104.5 -209.5q-34 -47 -76 -85.5t-91 -66.5t-105 -44.5t-117 -17.5h-438v100h85v1521h100v-1087zM839 1117q-62 60 -121 66.5
t-112.5 -26t-100.5 -97.5t-86 -146.5t-69.5 -173t-50 -178t-28.5 -161t-4 -121.5h247q97 2 175.5 50t135.5 123q57 79 87.5 177t28.5 200q-2 96 -30.5 167.5t-71.5 119.5z" />
    <glyph glyph-name="zah" unicode="&#x638;" horiz-adv-x="1095" 
d="M263 714q10 70 31 141t50.5 136.5t66 122t78.5 99t87.5 67t92.5 26.5q60 2 125 -29t120 -94q53 -59 88.5 -145t38.5 -198q4 -121 -31.5 -236.5t-104.5 -209.5q-34 -47 -76 -85.5t-91 -66.5t-105 -44.5t-117 -17.5h-438v100h85v1521h100v-1087zM839 1117q-62 60 -121 66.5
t-112.5 -26t-100.5 -97.5t-86 -146.5t-69.5 -173t-50 -178t-28.5 -161t-4 -121.5h247q97 2 175.5 50t135.5 123q57 79 87.5 177t28.5 200q-2 96 -30.5 167.5t-71.5 119.5zM421 1531q0 29 20.5 49t48.5 20q29 0 49 -20t20 -49t-20 -49t-49 -20q-28 0 -48.5 20t-20.5 49z" />
    <glyph glyph-name="ain" unicode="&#x639;" horiz-adv-x="1027" 
d="M250 650q-56 52 -74.5 110.5t-8.5 118t43.5 118t82.5 111.5q41 43 94.5 84t113.5 71t122.5 44.5t121.5 6.5q42 -8 74.5 -28.5t52.5 -57t25.5 -89.5t-7.5 -124l-98 18q8 45 6.5 77.5t-10.5 54.5t-24.5 34t-35.5 16q-47 4 -97 -9.5t-98 -39t-91 -59t-76 -68.5
q-36 -38 -61 -79.5t-34 -83t1 -81t46 -72.5l199 -187q79 43 169 77.5t193 58.5l24 -97q-143 -34 -261 -88t-209 -120t-153.5 -139.5t-95.5 -145.5q-23 -50 -31 -96t0 -86q7 -38 28.5 -69t58.5 -54q44 -27 108.5 -40.5t150.5 -9t194.5 27.5t239.5 70l34 -94
q-144 -51 -264 -75.5t-217 -27.5t-171.5 14t-126.5 49q-57 35 -90 83.5t-44 106.5q-11 56 -0.5 117t39.5 125q43 94 126.5 187t207.5 173z" />
    <glyph glyph-name="ghain" unicode="&#x63a;" horiz-adv-x="1027" 
d="M250 650q-56 52 -74.5 110.5t-8.5 118t43.5 118t82.5 111.5q41 43 94.5 84t113.5 71t122.5 44.5t121.5 6.5q42 -8 74.5 -28.5t52.5 -57t25.5 -89.5t-7.5 -124l-98 18q8 45 6.5 77.5t-10.5 54.5t-24.5 34t-35.5 16q-47 4 -97 -9.5t-98 -39t-91 -59t-76 -68.5
q-36 -38 -61 -79.5t-34 -83t1 -81t46 -72.5l199 -187q79 43 169 77.5t193 58.5l24 -97q-143 -34 -261 -88t-209 -120t-153.5 -139.5t-95.5 -145.5q-23 -50 -31 -96t0 -86q7 -38 28.5 -69t58.5 -54q44 -27 108.5 -40.5t150.5 -9t194.5 27.5t239.5 70l34 -94
q-144 -51 -264 -75.5t-217 -27.5t-171.5 14t-126.5 49q-57 35 -90 83.5t-44 106.5q-11 56 -0.5 117t39.5 125q43 94 126.5 187t207.5 173zM249 1464q0 29 20.5 49t48.5 20q29 0 49 -20t20 -49t-20 -49t-49 -20q-28 0 -48.5 20t-20.5 49z" />
    <glyph glyph-name="tatweel" unicode="&#x640;" horiz-adv-x="360" 
d="M366 280v-100h-370v100h370z" />
    <glyph glyph-name="feh" unicode="&#x641;" horiz-adv-x="1413" 
d="M1136 430q-99 0 -178 21.5t-139.5 59t-103.5 88t-68 107.5q-20 42 -29.5 87t-10.5 91q-2 92 30 173q20 51 53.5 95.5t78 76.5t100.5 49.5t121 16.5q94 -2 164 -51t118 -127q45 -75 67.5 -167.5t22.5 -191.5q1 -120 -41.5 -220.5t-114.5 -180t-168 -136t-201 -89.5
q-103 -33 -208 -43t-200 4q-100 14 -182 54t-133 109q-32 43 -50 95.5t-18 114.5q0 63 19.5 136t62.5 156l88 -45q-35 -69 -52 -127.5t-18.5 -108t11 -90t36.5 -71.5q39 -51 104 -82t146 -42q85 -12 178 -3t185 38q96 30 181.5 80.5t148.5 122.5zM1139 529h67
q28 51 42.5 108.5t13.5 120.5q0 85 -19 164.5t-57 142.5q-35 58 -84.5 93t-113.5 37q-48 1 -88.5 -12t-73.5 -36t-57 -55.5t-38 -70.5q-26 -65 -24 -136q1 -35 8.5 -70t22.5 -68q20 -45 54.5 -84.5t84.5 -69.5t115 -47t147 -17zM924 1531q0 29 20.5 49t48.5 20q29 0 49 -20
t20 -49t-20 -49t-49 -20q-28 0 -48.5 20t-20.5 49z" />
    <glyph glyph-name="qaf" unicode="&#x642;" horiz-adv-x="1319" 
d="M177 636q-13 -78 -22 -160t-10.5 -163t5.5 -158.5t26 -145.5q18 -64 48 -117.5t75.5 -92t108 -60t145.5 -21.5q121 0 216 35.5t165.5 97t119 144t76.5 177.5q12 40 20.5 80.5t13.5 82.5q-48 -66 -116.5 -105.5t-149.5 -50.5q-56 -9 -108.5 -1t-98.5 32t-83.5 61.5
t-63.5 86.5q-45 78 -67.5 175t-22.5 199t22.5 199.5t67.5 174.5q48 83 120 133.5t170 50.5q71 0 133.5 -36.5t114 -100t90.5 -150.5t64 -188q19 -79 29 -164t9 -171.5t-12.5 -171.5t-35.5 -164q-32 -110 -88 -205.5t-139 -166.5t-193.5 -112.5t-252.5 -41.5q-104 0 -183 27
t-136 75.5t-94.5 115t-59.5 146.5q-21 75 -29 158t-6.5 169.5t11 173t22.5 168.5zM1153 726q-3 17 -6.5 33t-7.5 32q-21 85 -52 158t-70 126.5t-85.5 84t-97.5 30.5q-67 0 -118 -37t-86 -97q-38 -66 -57 -150t-19 -174q0 -89 19 -173t57 -150q35 -61 86 -97.5t118 -36.5
q88 -3 155 36t108.5 104t56 146.5t-0.5 164.5zM679 1531q0 29 20.5 49t48.5 20q29 0 49 -20t20 -49t-20 -49t-49 -20q-28 0 -48.5 20t-20.5 49zM859 1531q0 29 20.5 49t48.5 20q29 0 49 -20t20 -49t-20 -49t-49 -20q-28 0 -48.5 20t-20.5 49z" />
    <glyph glyph-name="arabickaf" unicode="&#x643;" horiz-adv-x="1314" 
d="M1252 1801l-1 -1079q-1 -98 -6 -177t-31.5 -143.5t-83 -117t-160.5 -97.5q-77 -33 -170 -54q-104 -24 -213 -27.5t-207 18.5q-74 14 -136.5 48.5t-108 85t-69.5 115.5t-21 140q1 68 21.5 144t62.5 160l89 -46q-37 -72 -54.5 -137t-18.5 -122q-3 -58 15 -106t52.5 -85
t83 -62t106.5 -37q87 -20 185 -16.5t192 25.5q40 9 78 21t73 27q82 35 126.5 77.5t65 96.5t24.5 120.5t5 149.5l1 1078h100zM830 1235l-163 -141q30 -23 60.5 -43.5t62.5 -46.5q60 -46 84.5 -86.5t23.5 -75.5q-2 -32 -17 -54.5t-38.5 -37.5t-52.5 -23.5t-58 -11.5
q-41 -5 -86.5 -2t-87.5 13.5t-75.5 29t-50.5 43.5l82 57q9 -14 31 -24t50.5 -15t61 -6t62.5 3q26 5 45.5 10t33.5 20q0 12 -15.5 32t-53.5 49q-19 15 -41.5 31t-44.5 31.5t-42 30.5t-34 30q-22 26 -22.5 48.5t24.5 44.5l196 170z" />
    <glyph glyph-name="lam" unicode="&#x644;" 
d="M810 1775v-1329q0 -38 -4 -81.5t-13 -89t-23.5 -90.5t-34.5 -87q-22 -45 -51 -83t-67 -66.5t-84.5 -44.5t-102.5 -16q-98 0 -170 50.5t-120 133.5q-45 78 -67.5 174.5t-22.5 199.5q0 78 13.5 155t42.5 149l92 -38q-24 -62 -35.5 -131t-12.5 -135q0 -90 19 -174t57 -150
q35 -60 86 -97t118 -37q39 0 71.5 12t59 32.5t47.5 48.5t37 61q18 36 30 75.5t20 79t11.5 77.5t3.5 72v1329h100z" />
    <glyph glyph-name="meem" unicode="&#x645;" horiz-adv-x="1194" 
d="M456 370q-91 -2 -152 -13.5t-98 -31t-53 -47t-16 -61.5q0 -48 15 -101.5t41.5 -116.5t61.5 -137t75 -164l-93 -37q-42 103 -79 182t-64 143t-42.5 119t-14.5 112q0 54 19 98.5t63 76.5t116 51.5t179 24.5q-20 63 -30 129t-10 135q0 62 8.5 126.5t27.5 125.5t48.5 115
t72 95.5t97.5 67t125 28.5q70 -3 125 -28.5t97.5 -66.5t72.5 -95.5t49 -115.5t27.5 -125.5t8.5 -126.5q0 -55 -8 -117.5t-26.5 -125t-48 -119.5t-71.5 -100.5t-98.5 -69.5t-127.5 -25q-50 0 -94 14.5t-81.5 40t-68 61.5t-53.5 79zM753 1190q-81 -7 -134.5 -52t-85.5 -111
t-45 -144t-14 -151q1 -68 10.5 -131.5t32.5 -123.5q13 -38 35.5 -74.5t52.5 -65.5t67 -46.5t81 -15.5q55 1 97.5 23.5t73.5 59.5t51.5 84.5t33.5 98t18.5 100.5t5.5 91q-1 73 -14 151t-45 144t-86 111t-135 52z" />
    <glyph glyph-name="noon" unicode="&#x646;" horiz-adv-x="1173" 
d="M907 1204q106 -202 157.5 -381t59.5 -331t-22 -277t-86 -219q-55 -97 -136.5 -163.5t-176 -94.5t-194.5 -14.5t-193 77.5q-64 46 -117.5 118t-89.5 171.5t-52 227t-5 284.5l100 -7q-10 -142 3 -256.5t43.5 -203t76 -151t99.5 -101.5q75 -51 154.5 -61t153.5 14
t138.5 78.5t109.5 132.5q50 85 76 198t17.5 253t-57 305.5t-147.5 354.5zM395 1177q0 29 20.5 49t48.5 20q29 0 49 -20t20 -49t-20 -49t-49 -20q-28 0 -48.5 20t-20.5 49z" />
    <glyph glyph-name="heh" unicode="&#x647;" horiz-adv-x="860" 
d="M732 1185q34 -52 47.5 -123.5t10 -153t-21.5 -168t-48 -168.5q-30 -84 -70.5 -159.5t-87.5 -133t-98 -92t-102 -35.5q-59 -2 -113 44t-97.5 154t-72.5 284t-37 435v28l23 16q138 91 245.5 133.5t189.5 47t139 -25t93 -83.5zM648 1130q-24 36 -65 53t-102.5 9.5t-145 -43
t-192.5 -105.5q8 -223 28.5 -375t49.5 -245t64.5 -133.5t73.5 -38.5q35 1 71.5 30t71.5 77t66.5 112t57.5 135q26 73 43 148t21.5 145t-5.5 129.5t-37 101.5z" />
    <glyph glyph-name="waw" unicode="&#x648;" horiz-adv-x="860" 
d="M428 1290q102 -5 173 -54.5t116.5 -127.5t67 -175.5t23.5 -197.5q0 -101 -6.5 -198t-23 -187t-44 -171.5t-69.5 -151.5q-43 -72 -102 -130t-137 -98.5t-176.5 -62.5t-219.5 -22v101q106 0 191.5 18.5t153 53t118 83t86.5 109.5q52 88 81 200q-44 -48 -100 -75t-125 -29
q-74 -3 -132.5 24.5t-103.5 75.5t-76.5 112.5t-49.5 135t-23.5 142.5t1.5 135q4 82 28.5 169t71 158.5t115.5 117t162 45.5zM433 1190q-48 0 -86.5 -17.5t-69.5 -48t-54 -70t-38 -84t-23.5 -90t-10.5 -87.5q-6 -48 -2.5 -105t16 -115t34.5 -112t54.5 -95.5t76 -66.5
t98.5 -24q67 0 118 36.5t86 97.5q37 65 56 147t20 170q-1 52 -7 105.5t-19 104.5t-34 96t-51 79.5t-71 55.5t-93 23z" />
    <glyph glyph-name="alefmaksura" unicode="&#x649;" horiz-adv-x="1215" 
d="M949 1190q-146 0 -243.5 -22.5t-156.5 -60.5q-36 -23 -57 -51t-29 -59q-15 -63 16 -139q29 -69 89.5 -137t144.5 -125q68 -45 145.5 -105.5t145.5 -134.5q36 -38 66 -79.5t52.5 -86.5t36 -92.5t14.5 -98.5q0 -50 -13.5 -92.5t-37.5 -79t-58 -66.5t-75 -54
q-77 -45 -174 -67t-199 -22q-133 0 -229 27t-161.5 75t-103.5 115t-55 147q-16 75 -15 158t13.5 170t33 175t43.5 172l97 -27q-22 -80 -41.5 -162.5t-31.5 -163.5t-13.5 -157.5t12.5 -143.5q13 -62 44 -114.5t84.5 -90.5t133 -59t189.5 -21q89 0 173 19t150 57
q61 35 97.5 85.5t36.5 117.5q-2 80 -42 153t-100 139q-63 68 -136.5 124.5t-136.5 99.5q-97 65 -167 144.5t-104 162.5q-21 52 -27 103t6 99q12 49 43 91.5t85 77.5q70 46 182 72.5t273 26.5v-100z" />
    <glyph glyph-name="yeh" unicode="&#x64a;" horiz-adv-x="1215" 
d="M949 1190q-146 0 -243.5 -22.5t-156.5 -60.5q-36 -23 -57 -51t-29 -59q-15 -63 16 -139q29 -69 89.5 -137t144.5 -125q68 -45 145.5 -105.5t145.5 -134.5q36 -38 66 -79.5t52.5 -86.5t36 -92.5t14.5 -98.5q0 -50 -13.5 -92.5t-37.5 -79t-58 -66.5t-75 -54
q-77 -45 -174 -67t-199 -22q-133 0 -229 27t-161.5 75t-103.5 115t-55 147q-16 75 -15 158t13.5 170t33 175t43.5 172l97 -27q-22 -80 -41.5 -162.5t-31.5 -163.5t-13.5 -157.5t12.5 -143.5q13 -62 44 -114.5t84.5 -90.5t133 -59t189.5 -21q89 0 173 19t150 57
q61 35 97.5 85.5t36.5 117.5q-2 80 -42 153t-100 139q-63 68 -136.5 124.5t-136.5 99.5q-97 65 -167 144.5t-104 162.5q-21 52 -27 103t6 99q12 49 43 91.5t85 77.5q70 46 182 72.5t273 26.5v-100zM619 -637q0 29 20.5 49t48.5 20q29 0 49 -20t20 -49t-20 -49t-49 -20
q-28 0 -48.5 20t-20.5 49zM439 -637q0 29 20.5 49t48.5 20q29 0 49 -20t20 -49t-20 -49t-49 -20q-28 0 -48.5 20t-20.5 49z" />
    <glyph glyph-name="fathatan" unicode="&#x64b;" horiz-adv-x="408" 
d="M389 1675l-340 -193l17 91l340 193zM403 1842l-340 -193l17 91l340 193z" />
    <glyph glyph-name="dammatan" unicode="&#x64c;" horiz-adv-x="469" 
d="M409 1632q-6 -14 -19.5 -33.5t-32 -40t-40.5 -39.5t-45.5 -31t-47.5 -15t-46 8t-24 31.5t3 42t10.5 42t-2 32t-34.5 10.5t-86 -20q19 27 44.5 43.5t50.5 22t47 -1t34 -24.5t10.5 -48t-23.5 -72q46 20 85.5 44t71.5 62q-41 10 -60.5 31.5t-22 47.5t8 53t30 49.5t44 36
t49.5 12.5q21 -2 28 -24.5t6.5 -51t-6 -55.5t-8.5 -37l38 -12l-17 -76zM388 1793q-10 10 -23 10q-14 1 -22.5 -8.5t-8.5 -21.5q-2 -11 3 -19t14 -14t20.5 -11.5t24.5 -11.5q2 19 2 35q0 14 -2.5 26.5t-7.5 16.5v-2z" />
    <glyph glyph-name="kasratan" unicode="&#x64d;" horiz-adv-x="408" 
d="M405 -148l-340 -193l17 91l340 193zM378 -316l-340 -193l17 91l340 193z" />
    <glyph glyph-name="fatha" unicode="&#x64e;" horiz-adv-x="408" 
d="M389 1675l-340 -193l17 91l340 193z" />
    <glyph glyph-name="damma" unicode="&#x64f;" horiz-adv-x="414" 
d="M366 1664q-11 -23 -37.5 -52.5t-62.5 -55t-78.5 -42.5t-85.5 -15q-29 2 -47.5 3t-28.5 2t-12.5 1.5t-0.5 1.5q61 25 105.5 43t79 36t62.5 39.5t56 54.5q-47 11 -69 34t-25.5 51t9 57.5t34 53.5t49.5 38.5t56 13.5q16 -1 25 -12.5t12.5 -29t2.5 -39t-3.5 -41.5t-6.5 -36.5
t-7 -24.5l44 -13l-19 -80zM341 1841q-5 6 -12 8t-12 2q-17 2 -27 -8.5t-11 -24.5q-2 -25 20 -37t51 -23q2 20 2 38q0 15 -2 28.5t-9 18.5v-2z" />
    <glyph glyph-name="kasra" unicode="&#x650;" horiz-adv-x="408" 
d="M395 -148l-340 -193l17 91l340 193z" />
    <glyph glyph-name="shadda" unicode="&#x651;" horiz-adv-x="425" 
d="M398 1823q11 -17 17.5 -36t11.5 -38q6 -33 3 -67t-15 -62t-33 -45.5t-51 -17.5q-25 0 -37.5 9t-27.5 23q-6 -10 -15 -23t-22 -25t-31 -21t-40 -11q-35 -3 -56 10t-31 35t-11.5 49.5t2 53.5t10.5 47.5t14 31.5q0 -3 5 1t11.5 9t11.5 8.5t5 0.5q-8 -20 -13.5 -46.5t-3 -50
t14 -39.5t37.5 -15q28 0 43.5 15.5t24 37t13 44.5t12.5 38q1 -3 5.5 0.5t9 8t9 8t5.5 0.5q-8 -29 -2.5 -54t19.5 -40t35.5 -18t46.5 14q6 9 5.5 22t-4.5 26.5t-11 27t-14 23.5q13 18 24.5 34t22.5 32z" />
    <glyph glyph-name="sukun" unicode="&#x652;" horiz-adv-x="328" 
d="M347 1696q5 -34 -10 -71.5t-41 -87.5v1q0 1 1 2l-3 -5h1h-1q-24 -14 -61.5 -26.5t-74 -15t-65 11t-34.5 51.5q-5 33 3.5 75.5t27 81.5t46 67t59.5 33q28 4 54 -6.5t46.5 -28.5t34.5 -40.5t17 -41.5zM283 1628q-3 14 -13.5 30t-25 29.5t-31.5 22t-35 5.5q-30 -5 -44 -27
t-11 -45q3 -22 21 -32.5t42 -11t50 6.5t46 21zM296 1536h-1h1z" />
    <glyph glyph-name="arabicindicdigitzero" unicode="&#x660;" horiz-adv-x="1131" 
d="M716 560l-79 -311l-238 201l94 319z" />
    <glyph glyph-name="arabicindicdigitone" unicode="&#x661;" horiz-adv-x="1131" 
d="M418 1338q24 -43 54.5 -100t61 -132t57.5 -171t46 -217.5t26 -271t-4 -332.5h-35q-14 102 -31.5 209t-50.5 228t-86.5 261t-138.5 308z" />
    <glyph glyph-name="arabicindicdigittwo" unicode="&#x662;" horiz-adv-x="1131" 
d="M253 1338q34 -49 83.5 -94.5t104 -77.5t109.5 -46t102 -1t81.5 58t46.5 132h33q29 -106 25 -181.5t-29.5 -125t-68 -75t-92 -31.5t-99.5 4.5t-91 34.5q29 -76 50 -161t34.5 -170.5t20 -166t6 -146.5t-7.5 -112.5t-20 -64.5h-42q7 38 -0.5 106.5t-27 155t-50 184
t-68.5 193.5t-83 183t-94 153q20 63 38.5 124.5t38.5 124.5z" />
    <glyph glyph-name="arabicindicdigitthree" unicode="&#x663;" horiz-adv-x="1131" 
d="M212 1338q18 -60 53 -108.5t79.5 -78.5t94 -37.5t96 15t86.5 78.5t65 153h33q2 -22 3 -36.5t2.5 -27.5t2.5 -27.5t3 -36.5q21 -6 43 -15t44.5 -14.5t44 -3t41.5 18.5t37.5 50t31.5 92h35q-11 -54 -21.5 -108t-25 -100t-35 -80.5t-52 -49.5t-75.5 -7t-106 47
q-33 -122 -99 -157.5t-181 8.5q29 -76 50.5 -159.5t35.5 -166.5t21 -160.5t7 -141.5q0 -63 -6.5 -108t-19.5 -63h-42q7 38 -0.5 106.5t-27 155t-50 184t-68.5 193.5t-83 183t-94 153q20 63 38.5 124.5t38.5 124.5z" />
    <glyph glyph-name="arabicindicdigitfour" unicode="&#x664;" horiz-adv-x="1131" 
d="M855 331q-17 -54 -33 -106t-33 -106q-61 10 -124 17.5t-121 18.5t-106 27.5t-78 44.5t-38.5 70t13.5 103q18 54 54 102t76 87t75.5 68t50.5 45q-31 9 -76.5 16t-88 19t-75 33.5t-36.5 60.5q1 87 27 152.5t62 113.5q40 53 92 96t101.5 74.5t89.5 51t57 26.5
q-8 -51 -16 -100.5t-16 -100.5q-30 -6 -65.5 -23t-70.5 -39t-65.5 -47t-49.5 -47.5t-23.5 -40t12.5 -25.5q35 -12 69.5 -20.5t72 -15.5t80.5 -14.5t97 -18.5l-41 -143q-36 -30 -74.5 -61.5t-71.5 -64t-56.5 -66.5t-29.5 -70q-1 -22 14 -37.5t41 -26.5t61 -18.5t75 -13
t83 -10.5t85 -11z" />
    <glyph glyph-name="arabicindicdigitfive" unicode="&#x665;" horiz-adv-x="1131" 
d="M559 1134q45 14 91.5 6.5t90 -31t80.5 -61t64.5 -83t42.5 -97t13 -103.5q-11 -78 -41.5 -152t-85 -133t-136 -99.5t-194.5 -51.5q-35 -1 -81 8t-89 31.5t-75.5 59.5t-39.5 91q-13 51 -6.5 113.5t28.5 126.5t57 126.5t79 113.5t95.5 87t106.5 48zM818 716q-21 44 -43 80.5
t-48 63.5t-57 44t-71 23q-35 6 -69.5 -1.5t-66 -24t-58 -39.5t-46 -48t-30.5 -50.5t-10 -45.5q-2 -55 15 -95.5t54.5 -62t97 -22.5t143.5 24q45 13 77 32t54 40t36 42t22 40z" />
    <glyph glyph-name="arabicindicdigitsix" unicode="&#x666;" horiz-adv-x="1131" 
d="M220 1325q-19 -48 -3.5 -73.5t54.5 -35.5t96 -7.5t120.5 10.5t128.5 18.5t119 16.5q-25 -186 -26.5 -331.5t18 -253.5t58.5 -181t96 -115q-10 -60 -20 -119.5t-20 -119.5q-67 55 -112 125t-72.5 148.5t-40.5 162.5t-15.5 167.5t3 163.5t14.5 150q-79 -11 -130 -18.5
t-85.5 -12.5t-58 -7.5t-46.5 -2.5q-53 1 -84.5 21.5t-47 51.5t-18 68t3.5 71t16.5 61t21.5 38q10 2 15 2t15 2z" />
    <glyph glyph-name="arabicindicdigitseven" unicode="&#x667;" horiz-adv-x="1131" 
d="M1026 1050q-54 -69 -96.5 -143.5t-75.5 -148t-57 -143.5t-41 -130.5t-28 -107t-18 -74.5q-2 0 -9 -13t-16.5 -32t-20 -41.5t-20 -41.5t-16.5 -32t-9 -13q-30 119 -84 243t-124 244.5t-151.5 235t-166.5 214.5l51 294q118 -153 203 -281.5t144.5 -240t97.5 -209.5t62 -191
q20 101 49 211.5t73.5 226.5t106 235.5t146.5 237.5v-300z" />
    <glyph glyph-name="arabicindicdigiteight" unicode="&#x668;" horiz-adv-x="1131" 
d="M162 430q54 69 96.5 143.5t75.5 148t57 143.5t41 130.5t28 107.5t18 74q2 0 9 13t16.5 32t20 41.5t20 41.5t16.5 32t9 13q30 -119 73.5 -240t100.5 -239t128 -229.5t156 -211.5l-51 -294q-79 102 -137.5 191.5t-102 169.5t-74 152t-53 138.5t-39.5 129t-33 124.5
q-20 -101 -49 -211.5t-73.5 -226.5t-106 -235.5t-146.5 -237.5v300z" />
    <glyph glyph-name="arabicindicdigitnine" unicode="&#x669;" horiz-adv-x="1131" 
d="M887 327l-64 -224q-122 75 -144 227.5t-22 428.5q-95 -29 -169.5 -48t-127.5 -24.5t-84 4.5t-38 39q-27 105 -21 189.5t29 151t55.5 117t58.5 87.5q55 47 99.5 68.5t79 25t61 -7.5t46 -28t32 -36.5t20.5 -33.5q28 -63 40 -127.5t15.5 -127t3 -121.5t2.5 -111
q20 -241 128 -449zM626 946q-6 33 -10.5 73.5t-17 74t-39 52.5t-76.5 9q-41 -10 -69.5 -33.5t-46 -52t-25 -57t-7.5 -49.5q8 -18 21 -31t33 -18.5t48 -3t67 16.5z" />
    <glyph glyph-name="arabicpercentsign" unicode="&#x66a;" horiz-adv-x="709" 
d="M167 151l-112 -99l476 1741l126 115zM83 1392q0 29 20.5 49t48.5 20q29 0 49 -20t20 -49t-20 -49t-49 -20q-28 0 -48.5 20t-20.5 49zM532 516q0 29 20.5 49t48.5 20q29 0 49 -20t20 -49t-20 -49t-49 -20q-28 0 -48.5 20t-20.5 49z" />
    <glyph glyph-name="arabicfivepointedstar" unicode="&#x66d;" horiz-adv-x="815" 
d="M374 1445h68l17 -213l163 139l49 -49l-140 -162l214 -18v-68l-214 -17l140 -163l-49 -48l-163 139l-17 -214h-68l-17 214l-164 -139l-47 48l139 163l-214 17v68l214 18l-139 162l47 49l164 -139z" />
    <glyph glyph-name="bullet-def" unicode="&#x6f9;" horiz-adv-x="1033" 
d="M93 1109h934v-934h-934v934zM223 304h675v675h-675v-675z" />
    <glyph glyph-name="zeronojoin" unicode="&#x200c;" horiz-adv-x="45" 
d="M35 -80h-25v1631h25v-1631z" />
    <glyph glyph-name="zerojoin" unicode="&#x200d;" horiz-adv-x="45" 
d="M148 1427l-16 -16l-97 96v-1587h-25v1586l-96 -95l-16 16l109 109l-109 108l16 16l109 -108l109 108l16 -16l-109 -108z" />
    <glyph glyph-name="lefttoright" unicode="&#x200e;" horiz-adv-x="45" 
d="M291 1537q-32 -33 -62.5 -63.5l-62.5 -62.5l-17 17l97 97h-213v-1605h-25v1631h234l-93 93l17 17z" />
    <glyph glyph-name="righttoleft" unicode="&#x200f;" horiz-adv-x="45" 
d="M37 -80h-25v1605h-213l97 -97l-17 -17q-32 32 -62.5 63t-62.5 63l125 124l17 -17l-93 -93h234v-1631z" />
    <glyph glyph-name="endash" unicode="&#x2013;" 
d="M3 580v78h885v-78h-885z" />
    <glyph glyph-name="quotedash" unicode="&#x2014;" horiz-adv-x="1782" 
d="M-3 658h1788v-78h-1788v78z" />
    <glyph glyph-name="quoteleft" unicode="&#x2018;" horiz-adv-x="351" 
d="M278 913h-96q-28 117 -55.5 226.5t-56.5 225.5h97z" />
    <glyph glyph-name="quoteright" unicode="&#x2019;" horiz-adv-x="351" 
d="M181 1365h97q-29 -116 -56.5 -226.5t-55.5 -225.5h-96z" />
    <glyph glyph-name="quotesinglbase" unicode="&#x201a;" horiz-adv-x="447" 
d="M145 150v162h157v-200q0 -88 -40.5 -144t-116.5 -76v65q42 7 65 45.5t23 100.5v47h-88z" />
    <glyph glyph-name="quotedblleft" unicode="&#x201c;" horiz-adv-x="603" 
d="M277 913h-97q-28 117 -55.5 226.5t-55.5 225.5h96zM532 913h-96q-28 117 -55.5 226.5t-55.5 225.5h96z" />
    <glyph glyph-name="quotedblright" unicode="&#x201d;" horiz-adv-x="603" 
d="M437 1365h96q-28 -116 -55.5 -226.5t-55.5 -225.5h-97zM181 1365h97q-29 -116 -56.5 -226.5t-55.5 -225.5h-96z" />
    <glyph glyph-name="bullet" unicode="&#x2022;" horiz-adv-x="613" 
d="M303 812q124 0 211 -87q88 -86 88 -213q0 -126 -88 -212q-43 -44 -96 -65t-115 -21q-127 0 -213 86q-87 87 -87 212q0 126 87 213q89 87 213 87z" />
    <glyph glyph-name="trademark" unicode="&#x2122;" horiz-adv-x="1484" 
d="M833 1418l140 -354q31 84 64.5 177t64.5 177h119v-456h-69v385l-16 3q-36 -98 -72 -194.5t-73 -193.5h-37l-154 389l-15 -3v-386h-69v456h117zM593 1418v-52h-151v-404h-78v404h-152v52h381z" />
    <glyph glyph-name="fathalow" unicode="&#xe820;" horiz-adv-x="408" 
d="M401 1225l-340 -193l17 91l340 193z" />
    <glyph glyph-name="dammalow" unicode="&#xe821;" horiz-adv-x="414" 
d="M346 1204q-11 -23 -37.5 -52.5t-62.5 -55t-78.5 -42.5t-85.5 -15q-29 2 -47.5 3t-28.5 2t-12.5 1.5t-0.5 1.5q61 25 105.5 43t79 36t62.5 39.5t56 54.5q-47 11 -69 34t-25.5 51t9 57.5t34 53.5t49.5 38.5t56 13.5q16 -1 25 -12.5t12.5 -29t2.5 -39t-3.5 -41.5t-6.5 -36.5
t-7 -24.5l44 -13l-19 -80zM321 1381q-5 6 -12 8t-12 2q-17 2 -27 -8.5t-11 -24.5q-2 -25 20 -37t51 -23q2 20 2 38q0 15 -2 28.5t-9 18.5v-2z" />
    <glyph glyph-name="sukunlow" unicode="&#xe822;" horiz-adv-x="328" 
d="M344 1249q5 -34 -10 -71.5t-41 -87.5v1q0 1 1 2l-3 -5h1h-1q-24 -14 -61.5 -26.5t-74 -15t-65 11t-34.5 51.5q-5 33 3.5 75.5t27 81.5t46 67t59.5 33q28 4 54 -6.5t46.5 -28.5t34.5 -40.5t17 -41.5zM280 1181q-3 14 -13.5 30t-25 29.5t-31.5 22t-35 5.5q-30 -5 -44 -27
t-11 -45q3 -22 21 -32.5t42 -11t50 6.5t46 21zM293 1089h-1h1z" />
    <glyph glyph-name="fathatanlow" unicode="&#xe823;" horiz-adv-x="408" 
d="M391 1222l-340 -193l17 91l340 193zM405 1389l-340 -193l17 91l340 193z" />
    <glyph glyph-name="dammatanlow" unicode="&#xe824;" horiz-adv-x="469" 
d="M408 1207q-6 -14 -19.5 -33.5t-32 -40t-40.5 -39.5t-45.5 -31t-47.5 -15t-46 8t-24 31.5t3 42t10.5 42t-2 32t-34.5 10.5t-86 -20q19 27 44.5 43.5t50.5 22t47 -1t34 -24.5t10.5 -48t-23.5 -72q46 20 85.5 44t71.5 62q-41 10 -60.5 31.5t-22 47.5t8 53t30 49.5t44 36
t49.5 12.5q21 -2 28 -24.5t6.5 -51t-6 -55.5t-8.5 -37l38 -12l-17 -76zM387 1368q-10 10 -23 10q-14 1 -22.5 -8.5t-8.5 -21.5q-2 -11 3 -19t14 -14t20.5 -11.5t24.5 -11.5q2 19 2 35q0 14 -2.5 26.5t-7.5 16.5v-2z" />
    <glyph glyph-name="shaddalow" unicode="&#xe825;" horiz-adv-x="425" 
d="M396 1364q11 -17 17.5 -36t11.5 -38q6 -33 3 -67t-15 -62t-33 -45.5t-51 -17.5q-25 0 -37.5 9t-27.5 23q-6 -10 -15 -23t-22 -25t-31 -21t-40 -11q-35 -3 -56 10t-31 35t-11.5 49.5t2 53.5t10.5 47.5t14 31.5q0 -3 5 1t11.5 9t11.5 8.5t5 0.5q-8 -20 -13.5 -46.5t-3 -50
t14 -39.5t37.5 -15q28 0 43.5 15.5t24 37t13 44.5t12.5 38q1 -3 5.5 0.5t9 8t9 8t5.5 0.5q-8 -29 -2.5 -54t19.5 -40t35.5 -18t46.5 14q6 9 5.5 22t-4.5 26.5t-11 27t-14 23.5q13 18 24.5 34t22.5 32z" />
    <glyph glyph-name="kasralow" unicode="&#xe826;" horiz-adv-x="408" 
d="M395 -148l-340 -193l17 91l340 193z" />
    <glyph glyph-name="kasratanlow" unicode="&#xe827;" horiz-adv-x="408" 
d="M405 -148l-340 -193l17 91l340 193zM378 -316l-340 -193l17 91l340 193z" />
    <glyph glyph-name="shaddawithfathaisolatedlow" unicode="&#xe828;" horiz-adv-x="425" 
d="M397 1372q5 -8 5.5 -12.5t-0.5 -8.5t-1.5 -8.5t3.5 -13.5q12 -32 14.5 -66t-5 -63.5t-25.5 -50.5t-47 -26q-25 -4 -39 3t-31 18q-4 -11 -10.5 -25.5t-18 -28.5t-27 -25.5t-37.5 -16.5q-34 -9 -56 -3.5t-35 20t-17.5 35t-4.5 40.5q0 21 4.5 39.5t9.5 29.5q0 -3 4.5 1.5
t9.5 10.5t10 10.5t5 1.5q-5 -21 -7 -40t2 -32.5t17 -19t38 -0.5q28 5 41 23t17.5 40.5t5.5 46t6 39.5q1 -3 4.5 1t7.5 9t8 9.5t6 1.5q-3 -30 6.5 -54t26 -36.5t38 -11.5t42.5 21q4 10 2 23t-8.5 25.5t-15.5 24.5t-18 21q5 10 14.5 15.5t20 10t20 9.5t15.5 13zM400 1452
l-340 -193l17 91l340 193z" />
    <glyph glyph-name="shaddawithdammaisolatedlow" unicode="&#xe829;" horiz-adv-x="425" 
d="M381 1402q13 -15 22.5 -33t17.5 -36q11 -32 13 -66t-6 -63.5t-26.5 -50t-47.5 -24.5q-25 -4 -38.5 3t-30.5 19q-4 -11 -11 -25t-18.5 -28t-27.5 -25.5t-38 -16.5q-34 -8 -56.5 1.5t-36 29.5t-19 47.5t-6 54t3.5 48.5t9 33q0 -3 5 1.5t10.5 10.5t10 10t4.5 1
q-5 -21 -6.5 -47.5t4 -49.5t19.5 -37.5t40 -9.5q28 5 41 23t18 40.5t6.5 45.5t6.5 39q1 -3 4.5 1t8 9t8 9.5t5.5 1.5q-3 -30 6 -54t25.5 -37t38 -12.5t43.5 20.5q4 10 2 23t-8.5 26t-15 25t-17.5 21q11 20 19.5 37.5t17.5 34.5zM356 1471q-11 -18 -37 -41t-61.5 -43.5
t-76.5 -34t-83 -11.5q-57 4 -75 4q-17 0 -12 2q60 20 103 34t77 28t61.5 31t54.5 43q-46 8 -67.5 26.5t-25 40.5t8.5 45t33 42t48.5 30.5t55.5 10.5q23 -1 31 -20t7.5 -43.5t-6.5 -47.5t-10 -33l43 -10l-19 -63zM331 1610q-5 5 -11.5 6.5t-11.5 1.5q-17 1 -26.5 -7
t-10.5 -19q-2 -20 19 -29.5t50 -17.5q2 16 2 30q0 11 -2 22t-9 14v-1z" />
    <glyph glyph-name="shaddawithfathatanisolatedlow" unicode="&#xe82a;" horiz-adv-x="425" 
d="M425 1277q0 -76 -29.5 -121t-75.5 -45q-21 0 -64 21q-38 -87 -108 -87q-78 0 -78 109q0 29 22 101l23 4q0 -111 39 -111q29 0 57.5 48t32.5 114l19 6q24 -98 61 -98q24 0 44 42.5t20 104.5l22 11q15 -51 15 -99zM412 1701q0 -47 -8 -65t-41 -37l-289 -166q0 45 12 65
t54 44zM412 1550q0 -47 -8 -64.5t-41 -36.5l-289 -166q0 45 12 65q12 17 54 42z" />
    <glyph glyph-name="shaddawithdammatanisolatedlow" unicode="&#xe82b;" horiz-adv-x="468" 
d="M422 1486q-7 -12 -21 -28.5t-33 -34t-42 -33t-48 -26t-50 -13t-48 6.5q-23 10 -25 27t3 36t11 36t-2 26.5t-36 9t-91 -17.5q20 23 46.5 37.5t53 18.5t49.5 -1.5t35.5 -20.5t11 -40.5t-24.5 -61.5q48 17 89.5 38t75.5 53q-43 9 -63 27t-23.5 40t8 45t31.5 41.5t46 30
t52 10.5q22 -2 29.5 -21t7 -43t-6 -46.5t-9.5 -31.5l40 -10l-18 -65zM393 1404q13 -15 22.5 -33t17.5 -36q11 -32 13 -66t-6 -63.5t-26.5 -50t-47.5 -24.5q-25 -4 -38.5 3t-30.5 19q-4 -11 -11 -25t-18.5 -28t-27.5 -25.5t-38 -16.5q-34 -8 -56.5 1.5t-36 29.5t-19 46.5
t-6 53t3.5 49t9 33.5q1 -2 5.5 3t10 10.5t10 9.5t4.5 1q-5 -21 -6.5 -47.5t4 -49.5t19.5 -37.5t40 -9.5q28 5 41 23t18 40.5t6.5 45.5t6.5 39q1 -3 4.5 1t8 9t8 9.5t5.5 1.5q-3 -30 6 -54t25.5 -37t38 -12.5t43.5 20.5q4 10 2 23t-8.5 26t-15 25t-17.5 21q11 20 19.5 37.5
t17.5 34.5zM400 1623q-5 5 -12 6.5t-12 1.5q-14 1 -23.5 -7t-9.5 -18q-2 -10 3.5 -16.5t14.5 -11.5t21.5 -9.5t25.5 -9.5q2 17 2 30q0 11 -2 21.5t-8 14.5v-2z" />
    <glyph glyph-name="shaddawithkasraisolatedlow" unicode="&#xe82c;" horiz-adv-x="425" 
d="M375 1606q12 -15 21.5 -33.5t16.5 -36.5q10 -32 11 -66t-7.5 -63t-27.5 -49t-48 -24q-25 -3 -38.5 4t-30.5 20q-4 -11 -11.5 -25t-19 -27.5t-28 -24.5t-38.5 -16q-34 -7 -56.5 3t-35 31t-17.5 48t-4.5 53.5t4.5 49t10 32.5q0 -3 4.5 1.5l10.5 10.5t10.5 10t4.5 1
q-6 -21 -8 -48t3 -50t18.5 -37.5t39.5 -10.5q29 4 42.5 21t19 39.5t7 46t7.5 39.5q1 -3 5 0.5t8.5 9t8 9.5t5.5 1q-4 -29 4 -53.5t24 -38t37 -13.5q22 0 45 20q5 10 3 22.5t-8 25.5t-14.5 25.5t-16.5 21.5q11 20 20 37t19 34zM412 1224l-340 -193l17 91l340 193z" />
    <glyph glyph-name="shaddawithkasratanisolatedlow" unicode="&#xe82d;" horiz-adv-x="425" 
d="M374 1619q12 -15 21.5 -33.5t16.5 -36.5q10 -32 11 -66t-7.5 -63t-27.5 -49t-48 -24q-25 -3 -38.5 4t-30.5 20q-4 -11 -11.5 -25t-19 -27.5t-28 -24.5t-38.5 -16q-34 -7 -56.5 3t-35 31t-17.5 48t-4.5 53.5t5 49t9.5 32.5q0 -3 4.5 1.5l10.5 10.5t10.5 10t4.5 1
q-6 -21 -8 -48t3 -50t18.5 -37.5t39.5 -10.5q29 4 42.5 21t19 39.5t7 46t7.5 39.5q1 -3 5 0.5t8.5 9t8 9.5t5.5 1q-4 -29 4 -53.5t24 -38t37 -13.5q22 0 45 20q5 10 3 22.5t-8 25.5t-14.5 25.5t-16.5 21.5q11 20 20 37t19 34zM385 1148l-350 -141l33 75l350 141zM395 1253
l-350 -141l33 75l350 141z" />
    <glyph glyph-name="fathaonhamza" unicode="&#xe832;" horiz-adv-x="408" 
d="M394 1426q-97 -51 -192 -101.5t-192 -102.5q5 23 8 38.5t7 38.5q99 52 191.5 101.5t191.5 102.5z" />
    <glyph glyph-name="fathatanonhamza" unicode="&#xe833;" horiz-adv-x="408" 
d="M389 1171q-97 -51 -192 -101.5t-192 -102.5q5 23 8 38.5t7 38.5q99 52 191.5 101.5t191.5 102.5z" />
    <glyph glyph-name="sukunonhamza" unicode="&#xe834;" horiz-adv-x="566" 
d="M268 1588q6 -33 -11 -74t-44 -93q-14 -8 -32.5 -16t-39.5 -15t-43 -11t-42 -4q-32 0 -57.5 14t-30.5 48q-5 35 4 80.5t28.5 86.5t48 71.5t62.5 35.5q28 4 55 -6.5t48.5 -29.5t36 -42.5t17.5 -44.5zM218 1512q-4 17 -17 37.5t-31 38t-39 27.5t-42 7q-19 -3 -33 -12.5
t-23 -22t-12 -27.5t-1 -29q5 -30 29.5 -43.5t56.5 -13.5z" />
    <glyph glyph-name="dammaonhamza" unicode="&#xe835;" horiz-adv-x="420" 
d="M365 1288q11 -17 17.5 -36t11.5 -38q6 -33 3 -67t-15 -62t-33 -45.5t-51 -17.5q-25 0 -37.5 9t-27.5 23q-6 -10 -15 -23t-22 -25t-31 -21t-40 -11q-35 -3 -56 10t-31 35t-11.5 49.5t2 53.5t10.5 47.5t14 31.5q0 -3 5 1t11.5 9t11.5 8.5t5 0.5q-8 -20 -13.5 -46.5t-3 -50
t14 -39.5t37.5 -15q28 0 43.5 15.5t24 37t13 44.5t12.5 38q1 -3 5.5 0.5t9 8t9 8t5.5 0.5q-8 -29 -2.5 -54t19.5 -40t35.5 -18t46.5 14q6 9 5.5 22t-4.5 26.5t-11 27t-14 23.5q13 18 24.5 34t22.5 32z" />
    <glyph glyph-name="dammatanonhamza" unicode="&#xe836;" horiz-adv-x="381" 
d="M297 1715q11 -17 17.5 -36t11.5 -38q6 -33 3 -67t-15 -62t-33 -45.5t-51 -17.5q-25 0 -37.5 9t-27.5 23q-6 -10 -15 -23t-22 -25t-31 -21t-40 -11q-35 -3 -56 10t-31 35t-11.5 49.5t2 53.5t10.5 47.5t14 31.5q0 -3 5 1t11.5 9t11.5 8.5t5 0.5q-8 -20 -13.5 -46.5t-3 -50
t14 -39.5t37.5 -15q28 0 43.5 15.5t24 37t13 44.5t12.5 38q1 -3 5.5 0.5t9 8t9 8t5.5 0.5q-8 -29 -2.5 -54t19.5 -40t35.5 -18t46.5 14q6 9 5.5 22t-4.5 26.5t-11 27t-14 23.5q13 18 24.5 34t22.5 32z" />
    <glyph glyph-name="ornateleftparenthesis" unicode="&#xfd3e;" horiz-adv-x="750" 
d="M542 -53h-334v1957h334v-131h-202v-1694h202v-132z" />
    <glyph glyph-name="ornaterightparenthesis" unicode="&#xfd3f;" horiz-adv-x="750" 
d="M536 -53h-334v132h202v1694h-202v131h334v-1957z" />
    <glyph glyph-name="zerowidthnobreakspace" unicode="&#xfeff;" horiz-adv-x="744" 
 />
    </font>
</defs>
</svg>
